<?xml version="1.0" encoding="utf-8"?>
<!-- Generator: Adobe Illustrator 14.0.0, SVG Export Plug-In . SVG Version: 6.00 Build 43363)  -->
<!DOCTYPE svg PUBLIC "-//W3C//DTD SVG 1.1//EN" "http://www.w3.org/Graphics/SVG/1.1/DTD/svg11.dtd">
<svg version="1.1"
	 id="egg_2_0" xmlns:dc="http://purl.org/dc/elements/1.1/" xmlns:rdf="http://www.w3.org/1999/02/22-rdf-syntax-ns#" xmlns:cc="http://creativecommons.org/ns#"
	 xmlns="http://www.w3.org/2000/svg" xmlns:xlink="http://www.w3.org/1999/xlink" x="0px" y="0px" width="612px" height="792px"
	 viewBox="0 0 612 792" enable-background="new 0 0 612 792" xml:space="preserve">
<pattern  y="792" width="19.178" height="66.045" patternUnits="userSpaceOnUse" id="new_swatch" viewBox="0 -66.045 19.178 66.045" overflow="visible">
	<g>
		<polygon fill="none" points="0,0 19.178,0 19.178,-66.045 0,-66.045 		"/>
		<g>
			<polygon fill="none" points="0,-66.045 19.178,-66.045 19.178,0 0,0 			"/>
			<g>
				<polygon fill="none" points="0,0 19.178,0 19.178,-66.045 0,-66.045 				"/>
				<g>
					<polygon fill="none" points="0,-66.045 19.178,-66.045 19.178,0 0,0 					"/>
					<g>
						<polygon fill="#0477BE" points="9.37,-66.044 0,-66.044 0,0 9.37,0 						"/>
						<polygon fill="#2C8AA5" points="11.004,-66.045 1.749,-66.045 1.749,-0.001 11.004,-0.001 						"/>
						<polygon fill="#549E8C" points="12.639,-66.045 3.497,-66.045 3.497,-0.001 12.639,-0.001 						"/>
						<polygon fill="#7CB173" points="14.273,-66.045 5.246,-66.045 5.246,-0.001 14.273,-0.001 						"/>
						<polygon fill="#A5C45A" points="15.908,-66.045 6.994,-66.045 6.994,-0.001 15.908,-0.001 						"/>
						<polygon fill="#CDD841" points="17.543,-66.045 8.743,-66.045 8.743,-0.001 17.543,-0.001 						"/>
						<polygon fill="#F5EB28" points="19.178,-66.045 10.491,-66.045 10.491,-0.001 19.178,-0.001 						"/>
					</g>
				</g>
			</g>
		</g>
	</g>
</pattern>
<pattern  y="792" width="19.178" height="66.045" patternUnits="userSpaceOnUse" id="rect4343-1-3_2_" viewBox="0 -66.045 19.178 66.045" overflow="visible">
	<g>
		<polygon fill="none" points="0,0 19.178,0 19.178,-66.045 0,-66.045 		"/>
		<g>
			<polygon fill="none" points="0,-66.045 19.178,-66.045 19.178,0 0,0 			"/>
			<g>
				<polygon fill="none" points="0,0 19.178,0 19.178,-66.045 0,-66.045 				"/>
				<g>
					<polygon fill="none" points="0,-66.045 19.178,-66.045 19.178,0 0,0 					"/>
					<g>
						<polygon fill="#0477BE" points="9.37,-66.044 0,-66.044 0,0 9.37,0 						"/>
						<polygon fill="#2C8AA5" points="11.004,-66.045 1.749,-66.045 1.749,-0.001 11.004,-0.001 						"/>
						<polygon fill="#549E8C" points="12.639,-66.045 3.497,-66.045 3.497,-0.001 12.639,-0.001 						"/>
						<polygon fill="#7CB173" points="14.273,-66.045 5.246,-66.045 5.246,-0.001 14.273,-0.001 						"/>
						<polygon fill="#A5C45A" points="15.908,-66.045 6.994,-66.045 6.994,-0.001 15.908,-0.001 						"/>
						<polygon fill="#CDD841" points="17.543,-66.045 8.743,-66.045 8.743,-0.001 17.543,-0.001 						"/>
						<polygon fill="#F5EB28" points="19.178,-66.045 10.491,-66.045 10.491,-0.001 19.178,-0.001 						"/>
					</g>
				</g>
			</g>
		</g>
	</g>
</pattern>
<path id="path3775" fill="none" stroke="#000000" stroke-width="5.359" stroke-linecap="round" stroke-linejoin="round" d="
	M574.968,220.447c0,96.842-126.565,175.348-282.698,175.348c-156.128,0-282.698-78.5-282.698-175.348
	c0-96.842,126.57-175.348,282.698-175.348c57.992,0,111.903,10.831,156.769,29.41c75.918,31.439,125.924,85.066,125.924,145.94
	L574.968,220.447z"/>
<title  id="title4109">CO2 metabolism</title>
<path id="rect4343-1-3_1_" fill="none" d="M403.669,46.359h25.616c3.209,0,5.811,2.602,5.811,5.811v11.844
	c0,3.209-2.602,5.811-5.811,5.811h-25.616c-3.209,0-5.811-2.602-5.811-5.811V52.17C397.858,48.961,400.46,46.359,403.669,46.359z"/>
<title  id="title4113">Hydrogen metabolism</title>
<path id="rect4343-1-8" fill="#FFFFFF" stroke="#000000" stroke-width="3" stroke-linecap="round" stroke-linejoin="round" d="
	M544.807,148.99h21.934c3.17,0,5.736,2.57,5.736,5.74v9.573c0,3.17-2.566,5.74-5.736,5.74h-21.934c-3.17,0-5.736-2.57-5.736-5.74
	v-9.573C539.066,151.561,541.637,148.99,544.807,148.99z"/>
<text transform="matrix(1 0 0 1 543.7324 165.4126)" font-family="'ArialMT'" font-size="17">H</text>
<text transform="matrix(1 0 0 1 555.7734 166.9458)" font-family="'ArialMT'" font-size="12">2</text>
<title  id="title3126">Methane metabolism</title>
<path id="rect4343-1-9" fill="#FFFFFF" stroke="#000000" stroke-width="3" stroke-linecap="round" stroke-linejoin="round" d="
	M558.136,181.272h24.442c3.533,0,6.396,2.865,6.396,6.398v10.669c0,3.533-2.86,6.398-6.396,6.398h-24.442
	c-3.533,0-6.396-2.865-6.396-6.398V187.67C551.738,184.137,554.604,181.272,558.136,181.272z"/>
<text transform="matrix(1 0 0 1 555.7734 198.542)" font-family="'ArialMT'" font-size="17">CH</text>
<text transform="matrix(1 0 0 1 580.3271 200.2891)" font-family="'ArialMT'" font-size="12">4</text>
<title  id="title3958">#Energy storage</title>
<path id="rect3057" fill="#FFFFFF" stroke="#000000" stroke-width="3" stroke-linejoin="round" d="M250.547,360.965h104.074
	c4.216,0,7.632,4.193,7.632,9.365v11.065c0,5.172-3.416,9.365-7.632,9.365H250.547c-4.214,0-7.632-4.193-7.632-9.365V370.33
	C242.916,365.158,246.333,360.965,250.547,360.965z"/>
<text transform="matrix(0.9436 0 0 1 250.085 379.8428)" font-family="'ArialMT'" font-size="17">Energy storage</text>
<title  id="title4121">Butyrate production</title>
<path id="rect3059" fill="#F5EB28" stroke="#000000" stroke-width="3" stroke-linejoin="round" d="M398.178,241.755H459.4
	c3.138,0,5.681,2.367,5.681,5.287v8.811c0,2.92-2.543,5.287-5.681,5.287h-61.223c-3.139,0-5.678-2.367-5.678-5.287v-8.811
	C392.496,244.123,395.039,241.755,398.178,241.755z"/>
<text transform="matrix(1.0117 0 0 1 398.9717 256.8633)" font-family="'ArialMT'" font-size="17">Butyrate</text>
<g id="_x31_8" transform="translate(131.00183,-31.65217)">
	<title  id="title4123">Acetate production</title>
	<path id="rect3063" fill="none" stroke="#000000" stroke-width="3" stroke-linejoin="round" d="M275.958,237.202h56.584
		c4.415,0,7.992,3.692,7.992,8.246v6.186c0,4.555-3.575,8.248-7.992,8.248h-56.584c-4.412,0-7.988-3.692-7.988-8.248v-6.186
		C267.97,240.894,271.546,237.202,275.958,237.202z"/>
	<text transform="matrix(0.9686 0 0 1 275.1193 253.826)" font-family="'ArialMT'" font-size="17">Acetate</text>
</g>
<title  id="titlepropionate">Propionate production</title>
<path id="rect3061" fill="none" stroke="#000000" stroke-width="3" stroke-linejoin="round" d="M415.156,172.961h68.246
	c5.712,0,10.346,4.001,10.346,8.938v5.365c0,4.938-4.634,8.94-10.346,8.94h-68.246c-5.712,0-10.346-4.003-10.346-8.94V181.9
	C404.815,176.963,409.444,172.961,415.156,172.961z"/>
<text transform="matrix(1 0 0 1 408.4775 190.2451)" font-family="'ArialMT'" font-size="17">Propionate</text>
<path id="path3947" fill="none" stroke="#888888" stroke-width="3" d="M510.093,112.824v123.883c0,6.926-7.767,14.692-14.688,14.692
	H471.16"/>
<path id="path3949" fill="none" stroke="#888888" stroke-width="3" d="M498.084,112.155v95.83c0,5.037-5.648,10.685-10.685,10.685
	h-10.704"/>
<path id="path3951" fill="none" stroke="#888888" stroke-width="3" d="M457.034,111.817v55.129"/>
<title  id="title4127">Monosaccharide degradation</title>
<path id="path3899" fill="#0477BE" stroke="#000000" stroke-width="3" stroke-linejoin="round" d="M362.99,116.879
	c0.379,10.829-31.827,19.691-71.937,19.793c-40.107,0.103-72.928-8.595-73.307-19.424c-0.004-0.124-0.004-0.245,0-0.369
	c-0.378-10.83,31.828-19.692,71.936-19.794c40.106-0.103,72.929,8.594,73.308,19.424
	C362.994,116.631,362.994,116.754,362.99,116.879z"/>
<text transform="matrix(1 0 0 1 225.6938 121.6265)" font-family="'ArialMT'" font-size="17">Monosaccharides</text>
<title  id="title4125">Disaccharide degradation</title>
<title  id="title4129">Polysaccharide degradation</title>
<path id="path3899-4_1_" fill="#0477BE" d="M206.377,106.162c0.261,10.328-25.329,18.773-57.153,18.858
	c-31.826,0.086-57.837-8.22-58.097-18.551c-0.002-0.105-0.002-0.205,0-0.307c-0.26-10.331,25.328-18.773,57.154-18.858
	s57.837,8.22,58.097,18.551C206.38,105.958,206.38,106.059,206.377,106.162z"/>
<path id="path3945" fill="#0477BE" stroke="#000000" stroke-width="3" stroke-linejoin="round" d="M319.092,73.825
	c0,8.841-32.782,16.007-73.22,16.007c-40.439,0-73.219-7.166-73.219-16.007c0-8.84,32.78-16.006,73.219-16.006
	C286.31,57.819,319.092,64.985,319.092,73.825z"/>
<text transform="matrix(1 0 0 1 186.189 80.9414)" font-family="'ArialMT'" font-size="17">Polysaccharides</text>
<title  id="title4135">Sugar acid degradation</title>
<path id="path3899-4-2_1_" fill="none" d="M151.884,143.163c0.234,6.194-22.798,11.256-51.445,11.307
	c-28.646,0.05-52.06-4.93-52.294-11.124c-0.002-0.061-0.002-0.123,0-0.184c-0.235-6.194,22.798-11.256,51.444-11.307
	s52.06,4.929,52.294,11.123C151.886,143.04,151.886,143.102,151.884,143.163z"/>
<title  id="title3130">Mucus degradation</title>
<path id="path5764_1_" fill="none" d="M203.641,334.276c0,10.563-20.614,19.125-46.042,19.125c-25.428,0-46.042-8.563-46.042-19.125
	c0-10.563,20.613-19.125,46.042-19.125C183.026,315.151,203.641,323.713,203.641,334.276z"/>
<path fill="#231F20" d="M148.876,355.257c-32.658,0-58.24-9.844-58.24-22.411c0-12.566,25.582-22.41,58.24-22.41
	c32.657,0,58.239,9.844,58.239,22.41C207.115,345.414,181.533,355.257,148.876,355.257L148.876,355.257z M148.876,313.696
	c-29.577,0-54.565,8.77-54.565,19.151c0,10.382,24.988,19.151,54.565,19.151c29.576,0,54.564-8.77,54.564-19.151
	C203.44,322.466,178.452,313.696,148.876,313.696L148.876,313.696z"/>
<text transform="matrix(1 0 0 1 119.9521 329.6353)" font-family="'ArialMT'" font-size="17">Mucus</text>
<text transform="matrix(1 0 0 1 102.5015 341.7241)" font-family="'ArialMT'" font-size="17">Degradation</text>
<title  id="title4139">Lipolytic fermentation</title>
<path id="path5760" fill="none" stroke="#000000" stroke-width="3" d="M173.258,283.326c0,11.959-26.885,21.652-60.049,21.652
	c-33.163,0-60.048-9.694-60.048-21.652c0-11.958,26.884-21.651,60.048-21.651C146.374,261.674,173.258,271.369,173.258,283.326
	L173.258,283.326z"/>
<text transform="matrix(1.1314 0 0 1 78.0171 279.9917)" font-family="'ArialMT'" font-size="17">Lipolytic</text>
<text transform="matrix(1 0 0 1 61.8647 294.0542)" font-family="'ArialMT'" font-size="17">Fermentation</text>
<title  id="title4133">Proteolytic fermentation</title>
<pattern  id="path5762_2_" xlink:href="#new_swatch" patternTransform="matrix(1.101 0 0 -1.0953 779.5186 -18248.0195)">
</pattern>
<path id="path5762_1_" fill="url(#path5762_2_)" d="M138.804,236.443c0,12.545-27.215,22.715-60.787,22.715
	s-60.787-10.17-60.787-22.715s27.216-22.716,60.787-22.716C111.588,213.727,138.804,223.897,138.804,236.443L138.804,236.443z"/>
<path d="M78.017,260.159c-34.604,0-61.711-10.47-61.711-23.834c0-13.366,27.107-23.836,61.711-23.836
	c34.604,0,61.711,10.473,61.711,23.836C139.728,249.689,112.622,260.159,78.017,260.159L78.017,260.159z M78.017,215.705
	c-31.681,0-58.446,9.443-58.446,20.62s26.766,20.619,58.446,20.619c31.681,0,58.446-9.442,58.446-20.619
	S109.699,215.705,78.017,215.705L78.017,215.705z"/>
<text transform="matrix(1 0 0 1 38.1035 234.2578)" font-family="'ArialMT'" font-size="17">Proteolytic</text>
<text transform="matrix(1 0 0 1 30.9834 247.5249)" font-family="'ArialMT'" font-size="17">Fermentation</text>
<g id="_x32_2" transform="translate(40.144935,72.348487)">
	<title  id="title4115">Nitrate metabolism</title>
	<path id="path4250-6" fill="none" stroke="#000000" stroke-width="3" d="M443.999,237.616l-3.63,3.669l5.051,0.116l-4.136,3.032
		l4.973,0.939l-4.536,2.318l4.77,1.741l-4.83,1.549l4.45,2.497l-5.001,0.741l4.02,3.194l-5.051-0.085l3.492,3.812l-4.976-0.91
		l2.879,4.335l-4.782-1.712l2.194,4.752l-4.463-2.471l1.45,5.053l-4.037-3.17l0.68,5.228l-3.513-3.792l-0.111,5.276l-2.902-4.319
		l-0.903,5.193l-2.221-4.739l-1.666,4.98l-1.482-5.044l-2.392,4.648l-0.71-5.225l-3.063,4.201l0.081-5.276l-3.649,3.648l0.867-5.197
		l-4.146,3.007l1.639-4.991l-4.551,2.292l2.371-4.662l-4.837,1.521l3.035-4.218l-5.005,0.711l3.629-3.669l-5.051-0.116l4.135-3.031
		l-4.971-0.939l4.535-2.318l-4.77-1.741l4.831-1.549l-4.45-2.498l5.001-0.741l-4.021-3.194l5.052,0.085l-3.492-3.813l4.975,0.91
		l-2.879-4.335l4.782,1.712l-2.194-4.752l4.463,2.472l-1.454-5.052l4.043,3.17l-0.682-5.229l3.515,3.792l0.11-5.276l2.901,4.318
		l0.9-5.192l2.225,4.739l1.666-4.981l1.482,5.045l2.392-4.647l0.71,5.225l3.063-4.199l-0.082,5.275l3.649-3.648l-0.866,5.198
		l4.146-3.007l-1.639,4.991l4.55-2.292l-2.371,4.661l4.838-1.519l-3.035,4.218L443.999,237.616z"/>
	<text transform="matrix(0.9574 0 0 1 406.235 255.2526)" font-family="'ArialMT'" font-size="16">RNS</text>
</g>
<title  id="title4111">Acetogenesis</title>
<path id="rect4290" fill="#F5EB28" stroke="#000000" stroke-width="3" d="M491.783,118.266h93.253c4.532,0,8.207,3.632,8.207,8.113
	v8.325c0,4.481-3.675,8.114-8.207,8.114h-93.253c-4.532,0-8.207-3.632-8.207-8.114v-8.325
	C483.576,121.897,487.251,118.266,491.783,118.266z"/>
<text transform="matrix(1 0 0 1 486.6348 136.4829)" font-family="'ArialMT'" font-size="17">Acetogenesis</text>
<title  id="title3128">Ethanol production</title>
<path id="rect5754" fill="#0477BE" stroke="#000000" stroke-width="3" d="M343.948,297.788h56.965c2.822,0,5.11,2.811,5.11,6.277
	v10.326c0,3.466-2.288,6.277-5.11,6.277h-56.965c-2.822,0-5.11-2.811-5.11-6.277v-10.326
	C338.837,300.598,341.125,297.788,343.948,297.788z"/>
<text transform="matrix(1.0569 0 0 1 341.1836 313.8706)" font-family="'ArialMT'" font-size="17">Ethanol</text>
<title  id="title6752">central metabolism</title>
<path id="path3917_1_" fill="#0477BE" d="M343.353,218.638c0,24.789-22.591,44.885-50.458,44.885
	c-27.868,0-50.459-20.095-50.459-44.885c0-24.789,22.592-44.885,50.459-44.885C320.763,173.752,343.353,193.848,343.353,218.638z"/>
<path d="M292.895,265.023c-28.65,0-51.959-20.808-51.959-46.385c0-25.577,23.309-46.385,51.959-46.385
	c13.846,0,26.871,4.803,36.676,13.525c9.854,8.766,15.278,20.436,15.278,32.86C344.853,244.215,321.545,265.023,292.895,265.023
	L292.895,265.023z M292.895,175.253c-26.996,0-48.959,19.462-48.959,43.385c0,23.922,21.963,43.385,48.959,43.385
	c26.996,0,48.958-19.462,48.958-43.385c0-11.556-5.066-22.429-14.272-30.619C318.322,179.787,306.005,175.252,292.895,175.253
	L292.895,175.253z"/>
<text transform="matrix(1 0 0 1 261.0576 210.7432)" font-family="'Arial-BoldMT'" font-size="17">Central</text>
<text transform="matrix(1 0 0 1 247.667 228.311)" font-family="'Arial-BoldMT'" font-size="17">Metabolism</text>
<title  id="title4137">Sugar alcohol degradation</title>
<g>
	<path id="path3899-4-2-7_1_" fill="#FFFFFF" d="M163.188,180.02c0.298,8.064-29.006,14.655-65.456,14.722
		c-36.448,0.065-66.239-6.419-66.537-14.482c-0.002-0.081-0.002-0.16,0-0.24c-0.299-8.065,29.007-14.655,65.455-14.721
		c36.45-0.066,66.24,6.417,66.537,14.481C163.19,179.86,163.19,179.94,163.188,180.02z"/>
	<path fill="#231F20" d="M97.179,196.296c-32.437,0-67.117-5.6-67.502-15.978c-0.003-0.125-0.003-0.236,0-0.348
		c-0.054-1.375,0.552-2.802,1.803-4.131c6.633-7.063,33.431-12.036,65.169-12.094h0.555c32.438,0,67.117,5.6,67.501,15.979
		c0.005,0.104,0.005,0.227,0.001,0.347c0.054,1.375-0.552,2.802-1.802,4.132c-6.634,7.062-33.433,12.036-65.17,12.094
		L97.179,196.296L97.179,196.296z M97.202,166.851h-0.549c-34.541,0.063-57.832,5.652-62.985,11.139
		c-0.657,0.7-0.978,1.362-0.955,1.971v0.251c0.196,5.297,23.268,12.977,64.467,12.977h0.55c34.541-0.062,57.831-5.651,62.987-11.14
		c0.656-0.699,0.979-1.362,0.956-1.97c0-0.005-0.002-0.233-0.002-0.239C161.472,174.531,138.403,166.851,97.202,166.851
		L97.202,166.851z"/>
</g>
<text transform="matrix(1 0 0 1 43.2236 186.1133)" font-family="'ArialMT'" font-size="17">Sugar alcohol</text>
<title  id="title3956">Ammonia production</title>
<path id="rect4343-1-8-5" fill="#0477BE" stroke="#000000" stroke-width="3" stroke-linecap="round" stroke-linejoin="round" d="
	M354.442,36.228h24.438c3.533,0,6.397,2.865,6.397,6.398v10.669c0,3.534-2.864,6.398-6.397,6.398h-24.438
	c-3.534,0-6.398-2.864-6.398-6.398V42.626C348.044,39.093,350.908,36.228,354.442,36.228z"/>
<text transform="matrix(1 0 0 1 352.1289 52.5557)" font-family="'ArialMT'" font-size="15">NH</text>
<text transform="matrix(1 0 0 1 375.4805 54.8335)" font-family="'ArialMT'" font-size="12">3</text>
<path id="path3329" fill="none" stroke="#88888F" stroke-width="3" stroke-opacity="0.9412" d="M203.72,334.268h14.45
	c5.807,0,12.319-6.512,12.319-12.319V257.76c0-4.825,5.41-10.235,10.235-10.235h6.943"/>
<path id="path3329-2" fill="none" stroke="#88888F" stroke-width="3" stroke-opacity="0.9412" d="M173.258,283.326h12.884
	c5.179,0,10.983-5.971,10.983-11.295v-26.243c0-4.424,4.824-9.385,9.125-9.385h34.201"/>
<path id="path4815" fill="none" stroke="#888888" stroke-width="3" d="M137.298,238.624h34.131c2.468,0,6.411-2.926,6.411-5.635
	v-3.511c0-3.345,4.87-6.589,7.917-6.589h51.034"/>
<path id="path5021" fill="none" stroke="#888888" stroke-width="3" d="M76.436,194.742v11.104c0,2.338,3.873,4.96,7.327,4.96H237.6"
	/>
<title  id="title3124">Sulfate metabolism</title>
<g>
	<path id="rect4288_1_" fill="#FFFFFF" d="M520.587,219.003h70.236c4.696,0,8.503,2.864,8.503,6.398v23.565
		c0,3.534-3.807,6.398-8.503,6.398h-70.236c-4.694,0-8.5-2.864-8.5-6.398v-23.565C512.084,221.866,515.891,219.003,520.587,219.003z
		"/>
	<path fill="#231F20" d="M590.823,256.863h-70.236c-5.786,0-10.494-3.543-10.494-7.898V225.4c-0.001-2.109,1.087-4.093,3.073-5.585
		c1.982-1.492,4.619-2.313,7.423-2.313h70.235c5.788,0,10.497,3.543,10.497,7.898v23.565
		C601.32,253.32,596.611,256.863,590.823,256.863L590.823,256.863z M520.587,220.503c-1.739,0-3.373,0.509-4.603,1.434
		c-1.229,0.925-1.905,2.155-1.905,3.463v23.565c0,2.701,2.915,4.898,6.507,4.898h70.235c3.59,0,6.51-2.197,6.51-4.898V225.4
		c0-2.701-2.92-4.898-6.51-4.898L520.587,220.503L520.587,220.503z"/>
</g>
<text transform="matrix(1 0 0 1 531.5625 235.7861)" font-family="'ArialMT'" font-size="17">Sulfate</text>
<text transform="matrix(1 0 0 1 523.1504 251.0928)" font-family="'ArialMT'" font-size="17">reduction</text>
<path id="path3927" fill="none" stroke="#888888" stroke-width="3" d="M205.576,89.658v89.83c0,4.12,4.785,8.74,9.053,8.74h35.456"
	/>
<path id="path3929" fill="none" stroke="#888888" stroke-width="3" d="M153.563,119.299v6.647c0,2.307,2.689,4.893,5.089,4.893
	h40.23c2.512,0,5.33,2.709,5.33,5.125v8.447"/>
<path id="path3931" fill="none" stroke="#888888" stroke-width="3" d="M215.265,117.178h-5.107c-2.16,0-4.582,3.695-4.582,6.991
	v10.084"/>
<path id="path3933" fill="none" stroke="#888888" stroke-width="3" d="M337.832,196.959h18.547c4.736,0,10.048-5.311,10.048-10.048
	V65.616"/>
<path id="path3935" fill="none" stroke="#888888" stroke-width="3" d="M343.322,209.658h22.828c4.534,0,9.619-6.572,9.619-12.434
	v-91.17c0-4.994,4.329-10.591,8.195-10.591h28.477"/>
<path id="path3946" fill="none" stroke="#888888" stroke-width="3" d="M339.426,235.786l7.563,7.563
	c2.345,2.345,2.575,6.294,2.575,9.611v26.371c0,3.254-3.648,6.903-6.902,6.903h-21.571c-3.667,0-7.778,4.112-7.778,7.779v62.526"/>
<path id="path3948" fill="none" stroke="#888888" stroke-width="3" d="M343.322,224.784h21.051c4.268,0,9.053,4.786,9.053,9.053
	v60.217"/>
<title  id="title5954">cross-feeding intermediate metabolism</title>
<path id="_x32_0_1_" fill="#0477BE" d="M435.426,74.014h80.965c8.378,0,15.172,5.182,15.172,11.575v14.731
	c0,6.393-6.794,11.575-15.172,11.575h-80.965c-8.381,0-15.174-5.183-15.174-11.575V85.589
	C420.254,79.196,427.047,74.014,435.426,74.014z">
<title  id="title5351">cross-feeding intermediate metabolism</title>
</path>
<path d="M515.792,113.309h-1.62v-2.827h1.62c3.597,0,6.981-1.051,9.53-2.961l2.158,2.133
	C524.333,112.01,520.182,113.309,515.792,113.309L515.792,113.309z M501.024,113.309h-13.15v-2.827h13.153L501.024,113.309
	L501.024,113.309z M474.722,113.309h-13.15v-2.827h13.15V113.309L474.722,113.309z M448.42,113.309h-13.149v-2.827h13.149V113.309
	L448.42,113.309z M422.2,108.83c-2.643-2.358-4.104-5.38-4.104-8.509v-2.944h3.286v2.943c0.001,2.393,1.135,4.718,3.185,6.547
	L422.2,108.83L422.2,108.83z M532.598,98.45h-3.283V87.142h3.283V98.45L532.598,98.45z M421.383,86.068h-3.286v-0.479
	c0.003-4.055,2.385-7.802,6.529-10.281l1.876,2.321c-3.252,1.944-5.118,4.845-5.119,7.96V86.068L421.383,86.068z M525.074,78.206
	c-2.519-1.792-5.814-2.778-9.279-2.778h-1.985v-2.827h1.985c4.231,0,8.269,1.217,11.378,3.427L525.074,78.206L525.074,78.206z
	 M500.654,75.428h-13.15v-2.827h13.15V75.428L500.654,75.428z M474.353,75.428h-13.15v-2.827h13.15V75.428L474.353,75.428z
	 M448.051,75.428H434.9v-2.827h13.153L448.051,75.428L448.051,75.428z"/>
<text transform="matrix(1 0 0 1 420.252 98.0864)" font-family="'ArialMT'" font-size="17">Cross-feeding</text>
<path id="path3925" fill="none" stroke="#888888" stroke-width="3" d="M151.714,142.515h20.856c4.43,0,9.397,4.967,9.397,9.397
	v38.952c0,3.62,4.059,7.678,7.678,7.678h52.672"/>
<path id="path5815" fill="#888888" stroke="#777777" d="M248.375,185.782l5.676,2.129l-5.593,2.003
	C249.447,188.484,249.5,187.102,248.375,185.782L248.375,185.782z"/>
<path id="path5815-6" fill="#888888" stroke="#777777" d="M240.595,196.157l5.676,2.129l-5.593,2.003
	C241.666,198.858,241.721,197.477,240.595,196.157L240.595,196.157z"/>
<path id="path5815-6-4" fill="#888888" stroke="#777777" d="M236.191,208.346l5.677,2.129l-5.593,2.003
	C237.264,211.047,237.317,209.666,236.191,208.346L236.191,208.346z"/>
<path id="path5815-6-8" fill="#888888" stroke="#777777" d="M235.686,220.447l5.677,2.129l-5.593,2.003
	C236.758,223.148,236.812,221.767,235.686,220.447L235.686,220.447z"/>
<path id="path5815-6-7" fill="#888888" stroke="#777777" d="M239.442,233.927l5.676,2.128l-5.593,2.004
	C240.515,236.628,240.568,235.247,239.442,233.927L239.442,233.927z"/>
<path id="path5815-6-7-4" fill="#888888" stroke="#777777" d="M246.985,245.046l5.676,2.129l-5.593,2.003
	C248.057,247.747,248.11,246.366,246.985,245.046L246.985,245.046z"/>
<path id="path5815-6-7-9" fill="#888888" stroke="#777777" d="M375.997,291.969l-2.133,5.677l-2.003-5.593
	C373.296,293.041,374.678,293.095,375.997,291.969L375.997,291.969z"/>
<path id="path5815-6-7-3" fill="#888888" stroke="#777777" d="M315.826,354.868l-2.129,5.676l-2.003-5.593
	C313.125,355.94,314.507,355.993,315.826,354.868L315.826,354.868z"/>
<path id="path5815-6-7-7" fill="#888888" stroke="#777777" d="M459.568,165.359l-2.129,5.676l-2.003-5.593
	C456.867,166.431,458.249,166.485,459.568,165.359L459.568,165.359z"/>
<path id="path5815-6-7-5" fill="#888888" stroke="#777777" d="M479.428,220.511l-5.677-2.128l5.593-2.004
	C478.355,217.81,478.302,219.191,479.428,220.511L479.428,220.511z"/>
<path id="path5815-6-7-33" fill="#888888" stroke="#777777" d="M472.798,253.158l-5.676-2.128l5.593-2.003
	C471.727,250.457,471.672,251.839,472.798,253.158L472.798,253.158z"/>
<path id="path5815-6-7-50" fill="#888888" stroke="#777777" d="M410.801,93.397l5.677,2.128l-5.593,2.003
	C411.873,96.1,411.927,94.717,410.801,93.397L410.801,93.397z"/>
<path id="path5815-6-7-52" fill="#888888" stroke="#777777" d="M364.872,66.744l2.129-5.676l2.004,5.593
	C367.574,65.672,366.192,65.618,364.872,66.744L364.872,66.744z"/>
<g>
	<g>
		<rect x="100.468" y="524.456" fill="#0477BE" width="9.37" height="66.044"/>
		<rect x="102.217" y="524.457" fill="#2C8AA5" width="9.256" height="66.044"/>
		<rect x="103.965" y="524.457" fill="#549E8C" width="9.142" height="66.044"/>
		<rect x="105.714" y="524.457" fill="#7CB173" width="9.028" height="66.044"/>
		<rect x="107.462" y="524.457" fill="#A5C45A" width="8.914" height="66.044"/>
		<rect x="109.211" y="524.457" fill="#CDD841" width="8.8" height="66.044"/>
		<rect x="110.959" y="524.457" fill="#F5EB28" width="8.687" height="66.044"/>
	</g>
</g>
<path id="path3899-4-2-7_2_" fill="#0477BE" d="M158.692,147.621c0.25,8.011-24.404,14.558-55.07,14.624
	c-30.665,0.066-55.729-6.376-55.979-14.385c-0.002-0.081-0.002-0.159,0-0.239c-0.251-8.011,24.404-14.558,55.069-14.624
	c30.666-0.065,55.729,6.375,55.979,14.386C158.694,147.462,158.694,147.542,158.692,147.621z"/>
<path d="M102.972,162.552c-27.16,0-56.2-5.507-56.521-15.713c-0.003-0.122-0.003-0.232,0-0.342
	c-0.045-1.352,0.461-2.755,1.509-4.063c5.554-6.946,27.993-11.836,54.569-11.893h0.465c27.161,0,56.199,5.506,56.521,15.712
	c0.004,0.104,0.004,0.224,0.002,0.342c0.043,1.352-0.463,2.756-1.509,4.064c-5.557,6.945-27.995,11.836-54.57,11.894
	L102.972,162.552L102.972,162.552z M102.992,133.596h-0.461c-28.922,0.062-48.423,5.559-52.74,10.956
	c-0.549,0.688-0.818,1.339-0.799,1.937v0.247c0.165,5.209,19.482,12.762,53.98,12.762h0.46c28.923-0.062,48.425-5.558,52.742-10.954
	c0.55-0.688,0.819-1.34,0.8-1.938c0-0.005-0.001-0.23-0.001-0.235C156.807,141.147,137.49,133.596,102.992,133.596L102.992,133.596z
	"/>
<text transform="matrix(1 0 0 1 61.8647 151.0718)" fill="#231F20" font-family="'ArialMT'" font-size="17">Sugar acid</text>
<pattern  id="rect4343-1-8-5_2_" xlink:href="#rect4343-1-3_2_" patternTransform="matrix(1 0 0 -1 0 -17373.1348)">
</pattern>
<path id="rect4343-1-8-5_1_" fill="url(#rect4343-1-8-5_2_)" stroke="#000000" stroke-width="3" stroke-linecap="round" stroke-linejoin="round" d="
	M404.259,45.693h24.438c3.533,0,6.396,2.865,6.396,6.398V62.76c0,3.534-2.863,6.398-6.396,6.398h-24.438
	c-3.534,0-6.397-2.864-6.397-6.398V52.091C397.86,48.558,400.725,45.693,404.259,45.693z"/>
<text transform="matrix(1 0 0 1 424.5732 62.8535)" font-family="'ArialMT'" font-size="12">2</text>
<text transform="matrix(1 0 0 1 401.1992 61.3989)" font-family="'ArialMT'" font-size="15">CO</text>
<g id="_x32_2_1_" transform="translate(40.144935,72.348487)">
	<title  id="title4115">Nitrate metabolism</title>
	<path id="path4250-6_1_" fill="none" stroke="#000000" stroke-width="3" d="M489.962,211.136l-3.63,3.669l5.051,0.116l-4.136,3.032
		l4.973,0.939l-4.536,2.318l4.77,1.741l-4.83,1.549l4.45,2.497l-5.001,0.741l4.02,3.194l-5.051-0.085l3.492,3.812l-4.976-0.91
		l2.879,4.335l-4.782-1.712l2.194,4.752l-4.463-2.471l1.45,5.053l-4.037-3.17l0.68,5.228l-3.513-3.792l-0.111,5.276l-2.902-4.319
		l-0.903,5.193l-2.221-4.739l-1.666,4.98l-1.482-5.044l-2.392,4.648l-0.71-5.225l-3.063,4.201l0.081-5.276l-3.649,3.648l0.867-5.197
		l-4.146,3.007l1.639-4.991l-4.551,2.292l2.371-4.662l-4.837,1.521l3.035-4.218l-5.005,0.711l3.629-3.669l-5.051-0.116l4.135-3.031
		l-4.971-0.939l4.535-2.318l-4.77-1.741l4.831-1.549l-4.45-2.498l5.001-0.741l-4.021-3.194l5.052,0.085l-3.492-3.813l4.975,0.91
		l-2.879-4.335l4.782,1.712l-2.194-4.752l4.463,2.472l-1.454-5.052l4.043,3.17l-0.682-5.229l3.515,3.792l0.11-5.276l2.901,4.318
		l0.9-5.192l2.225,4.739l1.666-4.981l1.482,5.045l2.392-4.647l0.71,5.225l3.063-4.199l-0.082,5.275l3.649-3.648l-0.866,5.198
		l4.146-3.007l-1.639,4.991l4.55-2.292l-2.371,4.661l4.838-1.519l-3.035,4.218L489.962,211.136z"/>
	<text transform="matrix(0.9574 0 0 1 452.1978 228.7721)" font-family="'ArialMT'" font-size="16">ROS</text>
</g>
<path id="path3945_1_" fill="#0477BE" stroke="#000000" stroke-width="3" stroke-linejoin="round" d="M212.996,106.161
	c0,11.058-27.113,20.021-60.559,20.021c-33.447,0-60.559-8.962-60.559-20.021c0-11.056,27.112-20.019,60.559-20.019
	C185.883,86.143,212.996,95.105,212.996,106.161z"/>
<text transform="matrix(1 0 0 1 103.5142 111.8169)" font-family="'ArialMT'" font-size="16">Disaccharides</text>
</svg>
