<svg width="920" height="920"><g id="circle" transform="translate(460,460)"><g class="group"><title>NA</title><path id="group0" d="M2.1431318985078682e-14,-350A350,350 0 0,1 225.47619053319204,267.6947655495708L210.01496603948746,249.33855305474307A326,326 0 0,0 1.9961742826101858e-14,-326Z" style="fill: rgb(204, 204, 204);"></path><text dy=".35em" font-family="Ubuntu, Helvetica, Arial, Sans-Serif" font-size="16" transform="rotate(-20.053522829578824)translate(355)">NA</text></g><g class="group"><title>MF0036</title><path id="group1" d="M214.59089819070198,276.4972810240776A350,350 0 0,1 194.19918748161132,291.1815165519302L180.88267176858656,271.2147839883693A326,326 0 0,0 199.87609374333957,257.53746746814085Z" style="fill: rgb(227, 26, 28);"></path><text dy=".35em" font-family="Ubuntu, Helvetica, Arial, Sans-Serif" font-size="16" transform="rotate(54.24203484990741)translate(355)">MF0036</text></g><g class="group"><title>MF0033</title><path id="group2" d="M182.3996938707352,298.7144986033689A350,350 0 0,1 160.49686899512406,311.0317588973222L149.49136940688697,289.7038668586487A326,326 0 0,0 169.89228629102763,278.2312186991379Z" style="fill: rgb(227, 26, 28);"></path><text dy=".35em" font-family="Ubuntu, Helvetica, Arial, Sans-Serif" font-size="16" transform="rotate(60.64836468751432)translate(355)">MF0033</text></g><g class="group"><title>MF0031</title><path id="group3" d="M147.9305356694793,317.2011295953104A350,350 0 0,1 124.79013669683901,326.99758681553635L116.2330987519129,304.5748951481853A326,326 0 0,0 137.78672750928644,295.45019499448915Z" style="fill: rgb(227, 26, 28);"></path><text dy=".35em" font-family="Ubuntu, Helvetica, Arial, Sans-Serif" font-size="16" transform="rotate(67.05469452512119)translate(355)">MF0031</text></g><g class="group"><title>MF0030</title><path id="group4" d="M111.61390212033014,331.726298103532A350,350 0 0,1 87.52492493950061,338.87960622370707L81.52321580079199,315.6421475112243A326,326 0 0,0 103.9603774035075,308.97935194786123Z" style="fill: rgb(227, 26, 28);"></path><text dy=".35em" font-family="Ubuntu, Helvetica, Arial, Sans-Serif" font-size="16" transform="rotate(73.46102436272807)translate(355)">MF0030</text></g><g class="group"><title>MF0027</title><path id="group5" d="M73.90334451272827,342.1086021570241A350,350 0 0,1 49.166631619115456,346.5294249197753L45.79520545094754,322.7674072109907A326,326 0 0,0 68.83568660328405,318.64972658054245Z" style="fill: rgb(227, 26, 28);"></path><text dy=".35em" font-family="Ubuntu, Helvetica, Arial, Sans-Serif" font-size="16" transform="rotate(79.86735420033494)translate(355)">MF0027</text></g><g class="group"><title>MF0024</title><path id="group6" d="M35.26982257936211,348.21837920365476A350,350 0 0,1 10.194305912217384,349.85150582349667L9.495267792522478,325.86168828131406A326,326 0 0,0 32.85132045963443,324.34054748683275Z" style="fill: rgb(227, 26, 28);"></path><text dy=".35em" font-family="Ubuntu, Helvetica, Arial, Sans-Serif" font-size="16" transform="rotate(86.27368403794182)translate(355)">MF0024</text></g><g class="group"><title>MF0013</title><path id="group7" d="M-3.8041772272507606,349.97932544026605A350,350 0 0,1 -28.905334475023523,348.80436012023563L-26.923254396736198,324.886346854848A326,326 0 0,0 -3.5433193602392796,325.9807431243621Z" style="fill: rgb(227, 26, 28);"></path><text dy=".35em" font-family="Ubuntu, Helvetica, Arial, Sans-Serif" font-size="16" text-anchor="end" transform="rotate(92.68001387554872)translate(355)rotate(180)">MF0013</text></g><g class="group"><title>MF0011</title><path id="group8" d="M-42.83066741311795,347.36944875585544A350,350 0 0,1 -67.64398182844936,343.40106540660645L-63.00553736021283,319.8535637787249A326,326 0 0,0 -39.89370736193272,323.54982941259675Z" style="fill: rgb(227, 26, 28);"></path><text dy=".35em" font-family="Ubuntu, Helvetica, Arial, Sans-Serif" font-size="16" text-anchor="end" transform="rotate(99.0863437131556)translate(355)rotate(180)">MF0011</text></g><g class="group"><title>MF0073</title><path id="group9" d="M-81.32225382255086,340.4213433867222A350,350 0 0,1 -105.53783680485964,333.70910236694294L-98.30095656681212,310.8261924903526A326,326 0 0,0 -75.74587070329022,317.07816555448983Z" style="fill: rgb(202, 178, 214);"></path><text dy=".35em" font-family="Ubuntu, Helvetica, Arial, Sans-Serif" font-size="16" text-anchor="end" transform="rotate(105.49267355076248)translate(355)rotate(180)">MF0073</text></g><g class="group"><title>MF0071</title><path id="group10" d="M-118.79822260785804,329.2217828534646A350,350 0 0,1 -142.11365050679905,319.84951202031147L-132.36871447204712,297.9169740532044A326,326 0 0,0 -110.65205877189062,306.64657488636993Z" style="fill: rgb(202, 178, 214);"></path><text dy=".35em" font-family="Ubuntu, Helvetica, Arial, Sans-Serif" font-size="16" text-anchor="end" transform="rotate(111.89900338836941)translate(355)rotate(180)">MF0071</text></g><g class="group"><title>MF0066</title><path id="group11" d="M-154.79054376998664,313.91063626355805A350,350 0 0,1 -176.91463479490432,301.9953840630443L-164.78334555182516,281.28712915586414A326,326 0 0,0 -144.17633505433042,292.3853354911998Z" style="fill: rgb(202, 178, 214);"></path><text dy=".35em" font-family="Ubuntu, Helvetica, Arial, Sans-Serif" font-size="16" text-anchor="end" transform="rotate(118.30533322597628)translate(355)rotate(180)">MF0066</text></g><g class="group"><title>MF0065</title><path id="group12" d="M-188.84971629307435,294.67912151359707A350,350 0 0,1 -209.50616702508287,280.3696951855854L-195.1400298576486,261.14434465857386A326,326 0 0,0 -175.90002146154924,274.47255318123615Z" style="fill: rgb(202, 178, 214);"></path><text dy=".35em" font-family="Ubuntu, Helvetica, Arial, Sans-Serif" font-size="16" text-anchor="end" transform="rotate(124.71166306358316)translate(355)rotate(180)">MF0065</text></g><g class="group"><title>MF0062</title><path id="group13" d="M-220.55038187417662,271.76741720661596A350,350 0 0,1 -239.48121796518313,255.2425243604843L-223.05964873328486,237.74017983290824A326,326 0 0,0 -205.42692711709023,253.13193716959088Z" style="fill: rgb(202, 178, 214);"></path><text dy=".35em" font-family="Ubuntu, Helvetica, Arial, Sans-Serif" font-size="16" text-anchor="end" transform="rotate(131.11799290119004)translate(355)rotate(180)">MF0062</text></g><g class="group"><title>MF0061</title><path id="group14" d="M-249.49663713940345,245.4616631087813A350,350 0 0,1 -266.46543510297334,226.92767987925822L-248.19351955305518,211.36692468753765A326,326 0 0,0 -232.3882963069872,228.63000620989345Z" style="fill: rgb(202, 178, 214);"></path><text dy=".35em" font-family="Ubuntu, Helvetica, Arial, Sans-Serif" font-size="16" text-anchor="end" transform="rotate(137.5243227387969)translate(355)rotate(180)">MF0061</text></g><g class="group"><title>MF0059</title><path id="group15" d="M-275.32697800324405,216.09038660616338A350,350 0 0,1 -290.1218178609954,195.77878026239568L-270.2277503505271,182.35394961583143A326,326 0 0,0 -256.4474137973073,201.27276009602645Z" style="fill: rgb(202, 178, 214);"></path><text dy=".35em" font-family="Ubuntu, Helvetica, Arial, Sans-Serif" font-size="16" text-anchor="end" transform="rotate(143.93065257640382)translate(355)rotate(180)">MF0059</text></g><g class="group"><title>MF0055</title><path id="group16" d="M-297.71881442194797,184.0203997908648A350,350 0 0,1 -310.1549263304571,162.18483798724438L-288.8871599535115,151.06359195383334A326,326 0 0,0 -277.303810004443,171.40185809091977Z" style="fill: rgb(202, 178, 214);"></path><text dy=".35em" font-family="Ubuntu, Helvetica, Arial, Sans-Serif" font-size="16" text-anchor="end" transform="rotate(150.3369824140107)translate(355)rotate(180)">MF0055</text></g><g class="group"><title>MF0045</title><path id="group17" d="M-316.3924991570976,149.65221841698846A350,350 0 0,1 -326.3145709621117,126.56540118773763L-303.9387146675669,117.88663082057847A326,326 0 0,0 -294.69701350061086,139.3903520112521Z" style="fill: rgb(202, 178, 214);"></path><text dy=".35em" font-family="Ubuntu, Helvetica, Arial, Sans-Serif" font-size="16" text-anchor="end" transform="rotate(156.74331225161757)translate(355)rotate(180)">MF0045</text></g><g class="group"><title>MF0088</title><path id="group18" d="M-331.1148202349351,113.41505993820486A350,350 0 0,1 -338.3989371343018,89.36531400031498L-315.19443858794966,83.2374067545791A326,326 0 0,0 -308.40980399025386,105.63802725672795Z" style="fill: rgb(51, 160, 44);"></path><text dy=".35em" font-family="Ubuntu, Helvetica, Arial, Sans-Serif" font-size="16" text-anchor="end" transform="rotate(163.14964208922444)translate(355)rotate(180)">MF0088</text></g><g class="group"><title>MF0085</title><path id="group19" d="M-341.70191348480796,75.76148309544111A350,350 0 0,1 -346.2571055760533,51.049160993045604L-322.51376119369536,47.54864709637962A326,326 0 0,0 -318.27092513156396,70.56640996889658Z" style="fill: rgb(51, 160, 44);"></path><text dy=".35em" font-family="Ubuntu, Helvetica, Arial, Sans-Serif" font-size="16" text-anchor="end" transform="rotate(169.55597192683132)translate(355)rotate(180)">MF0085</text></g><g class="group"><title>MF0084</title><path id="group20" d="M-348.0215587826121,37.16173599982712A350,350 0 0,1 -349.7909371681505,12.095465060385832L-325.8052729051916,11.266061741959374A326,326 0 0,0 -324.157223323233,34.613502674124696Z" style="fill: rgb(51, 160, 44);"></path><text dy=".35em" font-family="Ubuntu, Helvetica, Arial, Sans-Serif" font-size="16" text-anchor="end" transform="rotate(175.96230176443828)translate(355)rotate(180)">MF0084</text></g><g class="group"><title>MF0082</title><path id="group21" d="M-349.9948313219019,-1.902116703421479A350,350 0 0,1 -348.9562985832822,-27.009288755078444L-325.02786668042853,-25.157223240444495A326,326 0 0,0 -325.9951857455429,-1.7716858437582919Z" style="fill: rgb(51, 160, 44);"></path><text dy=".35em" font-family="Ubuntu, Helvetica, Arial, Sans-Serif" font-size="16" text-anchor="end" transform="rotate(182.36863160204513)translate(355)rotate(180)">MF0082</text></g><g class="group"><title>MF0081</title><path id="group22" d="M-347.5970872902655,-40.94221424548931A350,350 0 0,1 -343.76361345848164,-65.77672887859052L-320.1912513927572,-61.26632461263002A326,326 0 0,0 -323.76185844750444,-38.134748125798616Z" style="fill: rgb(51, 160, 44);"></path><text dy=".35em" font-family="Ubuntu, Helvetica, Arial, Sans-Serif" font-size="16" text-anchor="end" transform="rotate(188.77496143965203)translate(355)rotate(180)">MF0081</text></g><g class="group"><title>MF0092</title><path id="group23" d="M-340.8582716410485,-79.47099253109404A350,350 0 0,1 -334.2777322163748,-103.72269637971063L-311.3558305786805,-96.61028291367333A326,326 0 0,0 -317.4851330142337,-74.0215530432476Z" style="fill: rgb(253, 191, 111);"></path><text dy=".35em" font-family="Ubuntu, Helvetica, Arial, Sans-Serif" font-size="16" text-anchor="end" transform="rotate(195.18129127725888)translate(355)rotate(180)">MF0092</text></g><g class="group"><title>MF0094</title><path id="group24" d="M-329.86254411672445,-117.00727323052192A350,350 0 0,1 -320.61712216101427,-140.37329153791782L-298.63194806997325,-130.74769440388917A326,326 0 0,0 -307.2433982344348,-108.98391735185756Z" style="fill: rgb(166, 206, 227);"></path><text dy=".35em" font-family="Ubuntu, Helvetica, Arial, Sans-Serif" font-size="16" text-anchor="end" transform="rotate(201.58762111486578)translate(355)rotate(180)">MF0094</text></g><g class="group"><title>MF0093</title><path id="group25" d="M-314.7472281944336,-153.08227312109375A350,350 0 0,1 -302.9523879630331,-175.27079228295818L-282.1785099312823,-163.25222366926963A326,326 0 0,0 -293.16456111824385,-142.58520296421875Z" style="fill: rgb(166, 206, 227);"></path><text dy=".35em" font-family="Ubuntu, Helvetica, Arial, Sans-Serif" font-size="16" text-anchor="end" transform="rotate(207.9939509524727)translate(355)rotate(180)">MF0093</text></g><g class="group"><title>MF0091</title><path id="group26" d="M-295.7010960801013,-187.24545862857852A350,350 0 0,1 -281.50414101148743,-207.9793705957026L-262.20099991355687,-193.7179280405687A326,326 0 0,0 -275.4244494917515,-174.40577003690456Z" style="fill: rgb(251, 154, 153);"></path><text dy=".35em" font-family="Ubuntu, Helvetica, Arial, Sans-Serif" font-size="16" text-anchor="end" transform="rotate(214.40028079007953)translate(355)rotate(180)">MF0091</text></g><g class="group"><title>MF0110</title><path id="group27" d="M-272.96201116950783,-219.07017245233882A350,350 0 0,1 -256.5402442416339,-238.09053547850831L-238.94891320792186,-221.7643273314106A326,326 0 0,0 -254.24461611788445,-204.04821776989274Z" style="fill: rgb(106, 61, 154);"></path><text dy=".35em" font-family="Ubuntu, Helvetica, Arial, Sans-Serif" font-size="16" text-anchor="end" transform="rotate(220.80661062768644)translate(355)rotate(180)">MF0110</text></g><g class="group"><title>MF0109</title><path id="group28" d="M-246.81395741914918,-248.1589620043943A350,350 0 0,1 -228.3724668474454,-265.22823451889974L-212.71264054933485,-247.0411555804609A326,326 0 0,0 -229.88957176755036,-231.14234746695013Z" style="fill: rgb(106, 61, 154);"></path><text dy=".35em" font-family="Ubuntu, Helvetica, Arial, Sans-Serif" font-size="16" text-anchor="end" transform="rotate(227.2129404652933)translate(355)rotate(180)">MF0109</text></g><g class="group"><title>MF0108</title><path id="group29" d="M-217.5834927264908,-274.148543116576A350,350 0 0,1 -197.35259065750242,-289.0535503341419L-183.81984158384512,-269.2327354540864A326,326 0 0,0 -202.6634817966743,-255.34978587429651Z" style="fill: rgb(106, 61, 154);"></path><text dy=".35em" font-family="Ubuntu, Helvetica, Arial, Sans-Serif" font-size="16" text-anchor="end" transform="rotate(233.6192703029002)translate(355)rotate(180)">MF0108</text></g><g class="group"><title>MF0124</title><path id="group30" d="M-185.63567061265167,-296.7143370250098A350,350 0 0,1 -163.86801680096517,-309.2689332437363L-152.63135279175611,-288.0619206784515A326,326 0 0,0 -172.90636748492696,-276.36821105758054Z" style="fill: rgb(255, 127, 0);"></path><text dy=".35em" font-family="Ubuntu, Helvetica, Arial, Sans-Serif" font-size="16" text-anchor="end" transform="rotate(240.0256001405071)translate(355)rotate(180)">MF0124</text></g><g class="group"><title>MF0117</title><path id="group31" d="M-151.3694811408197,-315.5745239704229A350,350 0 0,1 -128.33692753111015,-325.621917308824L-119.53668107183402,-303.2935572647903A326,326 0 0,0 -140.98985957687776,-293.9351280410225Z" style="fill: rgb(255, 127, 0);"></path><text dy=".35em" font-family="Ubuntu, Helvetica, Arial, Sans-Serif" font-size="16" text-anchor="end" transform="rotate(246.43192997811394)translate(355)rotate(180)">MF0117</text></g><g class="group"><title>MF0113</title><path id="group32" d="M-115.21286800787232,-330.49356278965644A350,350 0 0,1 -91.2030636294655,-337.90827332961186L-84.94913926630215,-314.7374203012956A326,326 0 0,0 -107.31255705876107,-307.83114705550855Z" style="fill: rgb(255, 127, 0);"></path><text dy=".35em" font-family="Ubuntu, Helvetica, Arial, Sans-Serif" font-size="16" text-anchor="end" transform="rotate(252.83825981572085)translate(355)rotate(180)">MF0113</text></g><g class="group"><title>MF0130</title><path id="group33" d="M-77.61738403976351,-341.2851325428986A350,350 0 0,1 -52.93018261451675,-345.9745594236575L-49.30068437809275,-322.2505896346067A326,326 0 0,0 -72.29504913417972,-317.8827234542427Z" style="fill: rgb(20, 181, 170);"></path><text dy=".35em" font-family="Ubuntu, Helvetica, Arial, Sans-Serif" font-size="16" text-anchor="end" transform="rotate(259.2445896533277)translate(355)rotate(180)">MF0130</text></g><g class="group"><title>MF0133</title><path id="group34" d="M-39.05255183714401,-347.8144594392349A350,350 0 0,1 -13.996266965323898,-349.7200373313422L-13.036522944844544,-325.7392347714787A326,326 0 0,0 -36.37466256831128,-323.96432507768736Z" style="fill: rgb(178, 223, 138);"></path><text dy=".35em" font-family="Ubuntu, Helvetica, Arial, Sans-Serif" font-size="16" text-anchor="end" transform="rotate(265.6509194909346)translate(355)rotate(180)">MF0133</text></g><path class="chord" d="M1.9961742826101858e-14,-326A326,326 0 0,1 23.39044905793297,-325.1597867093473Q 0,0 199.87609374333957,257.53746746814085A326,326 0 0,1 180.88267176858656,271.2147839883693Q 0,0 1.9961742826101858e-14,-326Z" style="fill: rgb(39, 129, 39);"><title>NA → MF0036</title></path><path class="chord" d="M23.39044905793297,-325.1597867093473A326,326 0 0,1 46.66032777124746,-322.64347787035734Q 0,0 169.89228629102763,278.2312186991379A326,326 0 0,1 149.49136940688697,289.7038668586487Q 0,0 23.39044905793297,-325.1597867093473Z" style="fill: rgb(230, 3, 3);"><title>NA → MF0033</title></path><path class="chord" d="M46.66032777124746,-322.64347787035734A326,326 0 0,1 69.68968729720228,-318.4640442568331Q 0,0 137.78672750928644,295.45019499448915A326,326 0 0,1 116.2330987519129,304.5748951481853Q 0,0 46.66032777124746,-322.64347787035734Z" style="fill: rgb(39, 129, 39);"><title>NA → MF0031</title></path><path class="chord" d="M69.68968729720228,-318.4640442568331A326,326 0 0,1 92.35981859316615,-312.6430295231887Q 0,0 103.9603774035075,308.97935194786123A326,326 0 0,1 81.52321580079199,315.6421475112243Q 0,0 69.68968729720228,-318.4640442568331Z" style="fill: rgb(230, 3, 3);"><title>NA → MF0030</title></path><path class="chord" d="M92.35981859316615,-312.6430295231887A326,326 0 0,1 114.55386432407327,-305.21043915374486Q 0,0 68.83568660328405,318.64972658054245A326,326 0 0,1 45.79520545094754,322.7674072109907Q 0,0 92.35981859316615,-312.6430295231887Z" style="fill: rgb(39, 129, 39);"><title>NA → MF0027</title></path><path class="chord" d="M114.55386432407327,-305.21043915374486A326,326 0 0,1 136.1574212249147,-296.20458579397643Q 0,0 32.85132045963443,324.34054748683275A326,326 0 0,1 9.495267792522478,325.86168828131406Q 0,0 114.55386432407327,-305.21043915374486Z" style="fill: rgb(230, 3, 3);"><title>NA → MF0024</title></path><path class="chord" d="M136.1574212249147,-296.20458579397643A326,326 0 0,1 157.05912981327657,-285.6718917609787Q 0,0 -3.5433193602392796,325.9807431243621A326,326 0 0,1 -26.923254396736198,324.886346854848Q 0,0 136.1574212249147,-296.20458579397643Z" style="fill: rgb(230, 3, 3);"><title>NA → MF0013</title></path><path class="chord" d="M157.05912981327657,-285.6718917609787A326,326 0 0,1 177.15124841214478,-273.6666497511499Q 0,0 -39.89370736193272,323.54982941259675A326,326 0 0,1 -63.00553736021283,319.8535637787249Q 0,0 157.05912981327657,-285.6718917609787Z" style="fill: rgb(230, 3, 3);"><title>NA → MF0011</title></path><path class="chord" d="M177.15124841214478,-273.6666497511499A326,326 0 0,1 196.3302085240707,-260.25074297856463Q 0,0 -75.74587070329022,317.07816555448983A326,326 0 0,1 -98.30095656681212,310.8261924903526Q 0,0 177.15124841214478,-273.6666497511499Z" style="fill: rgb(230, 3, 3);"><title>NA → MF0073</title></path><path class="chord" d="M196.3302085240707,-260.25074297856463A326,326 0 0,1 214.49714869391974,-245.49332618663686Q 0,0 -110.65205877189062,306.64657488636993A326,326 0 0,1 -132.36871447204712,297.9169740532044Q 0,0 196.3302085240707,-260.25074297856463Z" style="fill: rgb(230, 3, 3);"><title>NA → MF0071</title></path><path class="chord" d="M214.49714869391974,-245.49332618663686A326,326 0 0,1 231.55842410831028,-229.47046917735605Q 0,0 -144.17633505433042,292.3853354911998A326,326 0 0,1 -164.78334555182516,281.28712915586414Q 0,0 214.49714869391974,-245.49332618663686Z" style="fill: rgb(230, 3, 3);"><title>NA → MF0066</title></path><path class="chord" d="M231.55842410831028,-229.47046917735605A326,326 0 0,1 247.42608930491926,-212.26476469558986Q 0,0 -175.90002146154924,274.47255318123615A326,326 0 0,1 -195.1400298576486,261.14434465857386Q 0,0 231.55842410831028,-229.47046917735605Z" style="fill: rgb(230, 3, 3);"><title>NA → MF0065</title></path><path class="chord" d="M247.42608930491926,-212.26476469558986A326,326 0 0,1 262.01835150344107,-193.9649026896856Q 0,0 -205.42692711709023,253.13193716959088A326,326 0 0,1 -223.05964873328486,237.74017983290824Q 0,0 247.42608930491926,-212.26476469558986Z" style="fill: rgb(39, 129, 39);"><title>NA → MF0062</title></path><path class="chord" d="M262.01835150344107,-193.9649026896856A326,326 0 0,1 275.25999222142235,-174.6652131429223Q 0,0 -232.3882963069872,228.63000620989345A326,326 0 0,1 -248.19351955305518,211.36692468753765Q 0,0 262.01835150344107,-193.9649026896856Z" style="fill: rgb(39, 129, 39);"><title>NA → MF0061</title></path><path class="chord" d="M275.25999222142235,-174.6652131429223A326,326 0 0,1 287.0827550016774,-154.46517983237152Q 0,0 -256.4474137973073,201.27276009602645A326,326 0 0,1 -270.2277503505271,182.35394961583143Q 0,0 275.25999222142235,-174.6652131429223Z" style="fill: rgb(230, 3, 3);"><title>NA → MF0059</title></path><path class="chord" d="M287.0827550016774,-154.46517983237152A326,326 0 0,1 297.4256972526711,-133.46892752158627Q 0,0 -277.303810004443,171.40185809091977A326,326 0 0,1 -288.8871599535115,151.06359195383334Q 0,0 287.0827550016774,-154.46517983237152Z" style="fill: rgb(230, 3, 3);"><title>NA → MF0055</title></path><path class="chord" d="M297.4256972526711,-133.46892752158627A326,326 0 0,1 306.23550438824554,-111.7846852304771Q 0,0 -294.69701350061086,139.3903520112521A326,326 0 0,1 -303.9387146675669,117.88663082057847Q 0,0 297.4256972526711,-133.46892752158627Z" style="fill: rgb(230, 3, 3);"><title>NA → MF0045</title></path><path class="chord" d="M306.23550438824554,-111.7846852304771A326,326 0 0,1 313.46676464739835,-89.52422834904849Q 0,0 -308.40980399025386,105.63802725672795A326,326 0 0,1 -315.19443858794966,83.2374067545791Q 0,0 306.23550438824554,-111.7846852304771Z" style="fill: rgb(230, 3, 3);"><title>NA → MF0088</title></path><path class="chord" d="M313.46676464739835,-89.52422834904849A326,326 0 0,1 319.0822031775043,-66.80230247072232Q 0,0 -318.27092513156396,70.56640996889658A326,326 0 0,1 -322.51376119369536,47.54864709637962Q 0,0 313.46676464739835,-89.52422834904849Z" style="fill: rgb(230, 3, 3);"><title>NA → MF0085</title></path><path class="chord" d="M319.0822031775043,-66.80230247072232A326,326 0 0,1 323.0528741743558,-43.736031915205366Q 0,0 -324.157223323233,34.613502674124696A326,326 0 0,1 -325.8052729051916,11.266061741959374Q 0,0 319.0822031775043,-66.80230247072232Z" style="fill: rgb(230, 3, 3);"><title>NA → MF0084</title></path><path class="chord" d="M323.0528741743558,-43.736031915205366A326,326 0 0,1 325.35831008860083,-20.444315989776978Q 0,0 -325.9951857455429,-1.7716858437582919A326,326 0 0,1 -325.02786668042853,-25.157223240444495Q 0,0 323.0528741743558,-43.736031915205366Z" style="fill: rgb(39, 129, 39);"><title>NA → MF0082</title></path><path class="chord" d="M325.35831008860083,-20.444315989776978A326,326 0 0,1 325.9866271294672,2.9527838989208286Q 0,0 -323.76185844750444,-38.134748125798616A326,326 0 0,1 -320.1912513927572,-61.26632461263002Q 0,0 325.35831008860083,-20.444315989776978Z" style="fill: rgb(39, 129, 39);"><title>NA → MF0081</title></path><path class="chord" d="M325.9866271294672,2.9527838989208286A326,326 0 0,1 324.9345865219334,26.334663123346864Q 0,0 -317.4851330142337,-74.0215530432476A326,326 0 0,1 -311.3558305786805,-96.61028291367333Q 0,0 325.9866271294672,2.9527838989208286Z" style="fill: rgb(39, 129, 39);"><title>NA → MF0092</title></path><path class="chord" d="M324.9345865219334,26.334663123346864A326,326 0 0,1 322.20761120158704,49.580795513655744Q 0,0 -307.2433982344348,-108.98391735185756A326,326 0 0,1 -298.63194806997325,-130.74769440388917Q 0,0 324.9345865219334,26.334663123346864Z" style="fill: rgb(230, 3, 3);"><title>NA → MF0094</title></path><path class="chord" d="M322.20761120158704,49.580795513655744A326,326 0 0,1 317.8197578611116,72.57135463186826Q 0,0 -293.16456111824385,-142.58520296421875A326,326 0 0,1 -282.1785099312823,-163.25222366926963Q 0,0 322.20761120158704,49.580795513655744Z" style="fill: rgb(230, 3, 3);"><title>NA → MF0093</title></path><path class="chord" d="M317.8197578611116,72.57135463186826A326,326 0 0,1 311.7936444924956,95.18783143914601Q 0,0 -275.4244494917515,-174.40577003690456A326,326 0 0,1 -262.20099991355687,-193.7179280405687Q 0,0 317.8197578611116,72.57135463186826Z" style="fill: rgb(230, 3, 3);"><title>NA → MF0091</title></path><path class="chord" d="M311.7936444924956,95.18783143914601A326,326 0 0,1 304.1603337984585,117.31364517229142Q 0,0 -254.24461611788445,-204.04821776989274A326,326 0 0,1 -238.94891320792186,-221.7643273314106Q 0,0 311.7936444924956,95.18783143914601Z" style="fill: rgb(230, 3, 3);"><title>NA → MF0110</title></path><path class="chord" d="M304.1603337984585,117.31364517229142A326,326 0 0,1 294.95917307407285,138.83474428059833Q 0,0 -229.88957176755036,-231.14234746695013A326,326 0 0,1 -212.71264054933485,-247.0411555804609Q 0,0 304.1603337984585,117.31364517229142Z" style="fill: rgb(39, 129, 39);"><title>NA → MF0109</title></path><path class="chord" d="M294.95917307407285,138.83474428059833A326,326 0 0,1 284.23759138394024,159.64019432541485Q 0,0 -202.6634817966743,-255.34978587429651A326,326 0 0,1 -183.81984158384512,-269.2327354540864Q 0,0 294.95917307407285,138.83474428059833Z" style="fill: rgb(230, 3, 3);"><title>NA → MF0108</title></path><path class="chord" d="M284.23759138394024,159.64019432541485A326,326 0 0,1 272.0508550804095,179.62274981198235Q 0,0 -172.90636748492696,-276.36821105758054A326,326 0 0,1 -152.63135279175611,-288.0619206784515Q 0,0 284.23759138394024,159.64019432541485Z" style="fill: rgb(230, 3, 3);"><title>NA → MF0124</title></path><path class="chord" d="M272.0508550804095,179.62274981198235A326,326 0 0,1 258.46178292306297,198.67940700593877Q 0,0 -140.98985957687776,-293.9351280410225A326,326 0 0,1 -119.53668107183402,-303.2935572647903Q 0,0 272.0508550804095,179.62274981198235Z" style="fill: rgb(230, 3, 3);"><title>NA → MF0117</title></path><path class="chord" d="M258.46178292306297,198.67940700593877A326,326 0 0,1 243.54042226793882,216.71193488489283Q 0,0 -107.31255705876107,-307.83114705550855A326,326 0 0,1 -84.94913926630215,-314.7374203012956Q 0,0 258.46178292306297,198.67940700593877Z" style="fill: rgb(39, 129, 39);"><title>NA → MF0113</title></path><path class="chord" d="M243.54042226793882,216.71193488489283A326,326 0 0,1 227.3636879956326,233.62738148818224Q 0,0 -72.29504913417972,-317.8827234542427A326,326 0 0,1 -49.30068437809275,-322.2505896346067Q 0,0 243.54042226793882,216.71193488489283Z" style="fill: rgb(39, 129, 39);"><title>NA → MF0130</title></path><path class="chord" d="M227.3636879956326,233.62738148818224A326,326 0 0,1 210.01496603948746,249.33855305474307Q 0,0 -36.37466256831128,-323.96432507768736A326,326 0 0,1 -13.036522944844544,-325.7392347714787Q 0,0 227.3636879956326,233.62738148818224Z" style="fill: rgb(39, 129, 39);"><title>NA → MF0133</title></path></g></svg>