<svg width="920" height="920"><g id="circle" transform="translate(460,460)"><g class="group"><title>NA</title><path id="group0" d="M2.1431318985078682e-14,-350A350,350 0 0,1 241.12250578869327,253.6926037593165L224.58839110604,236.2965395015348A326,326 0 0,0 1.9961742826101858e-14,-326Z" style="fill: rgb(204, 204, 204);"></path><text dy=".35em" font-family="Ubuntu, Helvetica, Arial, Sans-Serif" font-size="16" transform="rotate(-21.772396214971323)translate(355)">NA</text></g><g class="group"><title>MF0005</title><path id="group1" d="M230.7846351900159,263.13200519931297A350,350 0 0,1 213.38128983068162,277.43183874637504L198.74942995657773,258.4079412323379A326,326 0 0,0 214.95940306270052,245.0886676999315Z" style="fill: rgb(255, 255, 153);"></path><text dy=".35em" font-family="Ubuntu, Helvetica, Arial, Sans-Serif" font-size="16" transform="rotate(50.59102804206793)translate(355)">MF0005</text></g><g class="group"><title>MF0042</title><path id="group2" d="M202.11629304463293,285.7428985747434A350,350 0 0,1 183.31791699051124,298.1518762480962L170.74754553973332,277.70717616251244A326,326 0 0,0 188.25689009300095,266.14909981533236Z" style="fill: rgb(227, 26, 28);"></path><text dy=".35em" font-family="Ubuntu, Helvetica, Arial, Sans-Serif" font-size="16" transform="rotate(56.57083780556573)translate(355)">MF0042</text></g><g class="group"><title>MF0037</title><path id="group3" d="M171.24838719213,305.2441479931996A350,350 0 0,1 151.25955685365557,315.62722705817976L140.8874729551192,293.98421720276167A326,326 0 0,0 159.5056406418125,284.3131207022373Z" style="fill: rgb(227, 26, 28);"></path><text dy=".35em" font-family="Ubuntu, Helvetica, Arial, Sans-Serif" font-size="16" transform="rotate(62.55064756906356)translate(355)">MF0037</text></g><g class="group"><title>MF0035</title><path id="group4" d="M138.51684268043468,321.42352790958495A350,350 0 0,1 117.55508978203206,329.66771280539194L109.49416933983557,307.0619267844508A326,326 0 0,0 129.01854489663344,299.38305742435625Z" style="fill: rgb(227, 26, 28);"></path><text dy=".35em" font-family="Ubuntu, Helvetica, Arial, Sans-Serif" font-size="16" transform="rotate(68.53045733256138)translate(355)">MF0035</text></g><g class="group"><title>MF0034</title><path id="group5" d="M104.27786591082909,334.10496356846176A350,350 0 0,1 82.57131016624524,340.1205356008804L76.90927746913128,316.7979845882486A326,326 0 0,0 97.12738367694367,311.19490892376723Z" style="fill: rgb(227, 26, 28);"></path><text dy=".35em" font-family="Ubuntu, Helvetica, Arial, Sans-Serif" font-size="16" transform="rotate(74.51026709605921)translate(355)">MF0034</text></g><g class="group"><title>MF0032</title><path id="group6" d="M68.90406816336831,343.1504471664548A350,350 0 0,1 46.688934725475065,346.871940886259L43.48740777287106,323.08643636834404A326,326 0 0,0 64.17921777502305,319.6201307893265Z" style="fill: rgb(227, 26, 28);"></path><text dy=".35em" font-family="Ubuntu, Helvetica, Arial, Sans-Serif" font-size="16" transform="rotate(80.49007685955704)translate(355)">MF0032</text></g><g class="group"><title>MF0027</title><path id="group7" d="M32.78041059351509,348.46153974480535A350,350 0 0,1 10.298459295341015,349.8484553862461L9.592279229374775,325.8588470169035A326,326 0 0,0 30.532611009959776,324.5670341623044Z" style="fill: rgb(227, 26, 28);"></path><text dy=".35em" font-family="Ubuntu, Helvetica, Arial, Sans-Serif" font-size="16" transform="rotate(86.46988662305483)translate(355)">MF0027</text></g><g class="group"><title>MF0023</title><path id="group8" d="M-3.6999851707698954,349.9804424674843A350,350 0 0,1 -26.204090807072337,349.01768669363264L-24.40723886601595,325.08504532035494A326,326 0 0,0 -3.4462719019171026,325.98178355542825Z" style="fill: rgb(227, 26, 28);"></path><text dy=".35em" font-family="Ubuntu, Helvetica, Arial, Sans-Serif" font-size="16" text-anchor="end" transform="rotate(92.44969638655266)translate(355)rotate(180)">MF0023</text></g><g class="group"><title>MF0022</title><path id="group9" d="M-40.1401152396183,347.6906256265046A350,350 0 0,1 -62.42147059367853,344.38867578496615L-58.14114118154057,320.7734523025685A326,326 0 0,0 -37.3876501946159,323.8489827264014Z" style="fill: rgb(227, 26, 28);"></path><text dy=".35em" font-family="Ubuntu, Helvetica, Arial, Sans-Serif" font-size="16" text-anchor="end" transform="rotate(98.42950615005049)translate(355)rotate(180)">MF0022</text></g><g class="group"><title>MF0019</title><path id="group10" d="M-76.14341392119611,341.6170085291793A350,350 0 0,1 -97.95953848912218,336.0117986306406L-91.24231299272523,312.97098958168243A326,326 0 0,0 -70.9221512523141,318.1918422300356Z" style="fill: rgb(227, 26, 28);"></path><text dy=".35em" font-family="Ubuntu, Helvetica, Arial, Sans-Serif" font-size="16" text-anchor="end" transform="rotate(104.40931591354828)translate(355)rotate(180)">MF0019</text></g><g class="group"><title>MF0017</title><path id="group11" d="M-111.31806941288379,331.8256883096732A350,350 0 0,1 -132.43154564111398,323.97821797013694L-123.35052536858046,301.76256873789896A326,326 0 0,0 -103.6848303674289,309.07192682558133Z" style="fill: rgb(227, 26, 28);"></path><text dy=".35em" font-family="Ubuntu, Helvetica, Arial, Sans-Serif" font-size="16" text-anchor="end" transform="rotate(110.38912567704611)translate(355)rotate(180)">MF0017</text></g><g class="group"><title>MF0015</title><path id="group12" d="M-145.2812877574773,318.42322061609934A350,350 0 0,1 -165.46234477824444,308.41889121855905L-154.11635542202197,287.27016724928643A326,326 0 0,0 -135.31914231125026,296.58848548813825Z" style="fill: rgb(227, 26, 28);"></path><text dy=".35em" font-family="Ubuntu, Helvetica, Arial, Sans-Serif" font-size="16" text-anchor="end" transform="rotate(116.36893544054394)translate(355)rotate(180)">MF0015</text></g><g class="group"><title>MF0014</title><path id="group13" d="M-177.66345866120747,301.55546000120347A350,350 0 0,1 -196.6924728116909,289.5031453010869L-183.20498896174638,269.6515010518695A326,326 0 0,0 -165.48082149586753,280.87737131540666Z" style="fill: rgb(227, 26, 28);"></path><text dy=".35em" font-family="Ubuntu, Helvetica, Arial, Sans-Serif" font-size="16" text-anchor="end" transform="rotate(122.34874520404173)translate(355)rotate(180)">MF0014</text></g><g class="group"><title>MF0013</title><path id="group14" d="M-208.11217783837995,281.40597263627245A350,350 0 0,1 -225.78206275123551,267.4368339249423L-210.29986416257935,249.0983081700891A326,326 0 0,0 -193.84162850089103,262.10956308407094Z" style="fill: rgb(227, 26, 28);"></path><text dy=".35em" font-family="Ubuntu, Helvetica, Arial, Sans-Serif" font-size="16" text-anchor="end" transform="rotate(128.32855496753956)translate(355)rotate(180)">MF0013</text></g><g class="group"><title>MF0011</title><path id="group15" d="M-236.29608210881003,258.1940386221698A350,350 0 0,1 -252.41454236352595,242.46009734265917L-235.1061166014556,225.8342620963054A326,326 0 0,0 -220.09292219277734,240.489304545221Z" style="fill: rgb(227, 26, 28);"></path><text dy=".35em" font-family="Ubuntu, Helvetica, Arial, Sans-Serif" font-size="16" text-anchor="end" transform="rotate(134.3083647310374)translate(355)rotate(180)">MF0011</text></g><g class="group"><title>MF0008</title><path id="group16" d="M-261.9084555119765,232.1722656376748A350,350 0 0,1 -276.3000793213245,214.84474898640133L-257.35378816786226,200.1125376273338A326,326 0 0,0 -243.94901856258383,216.25188170823424Z" style="fill: rgb(227, 26, 28);"></path><text dy=".35em" font-family="Ubuntu, Helvetica, Arial, Sans-Serif" font-size="16" text-anchor="end" transform="rotate(140.2881744945352)translate(355)rotate(180)">MF0008</text></g><g class="group"><title>MF0044</title><path id="group17" d="M-284.67056719376484,203.62383989498923A350,350 0 0,1 -297.1787353513427,184.89131741370824L-276.8007649272506,172.21305564819681A326,326 0 0,0 -265.15029972904955,189.66106230218998Z" style="fill: rgb(156, 30, 67);"></path><text dy=".35em" font-family="Ubuntu, Helvetica, Arial, Sans-Serif" font-size="16" text-anchor="end" transform="rotate(146.26798425803304)translate(355)rotate(180)">MF0044</text></g><g class="group"><title>MF0074</title><path id="group18" d="M-304.33470474070003,172.85944431933981A350,350 0 0,1 -314.82329505513223,152.92577575617906L-293.23541196563747,142.43943684718394A326,326 0 0,0 -283.4660392727663,161.00622528029936Z" style="fill: rgb(202, 178, 214);"></path><text dy=".35em" font-family="Ubuntu, Helvetica, Arial, Sans-Serif" font-size="16" text-anchor="end" transform="rotate(152.24779402153084)translate(355)rotate(180)">MF0074</text></g><g class="group"><title>MF0062</title><path id="group19" d="M-320.68686995091275,140.21387749108987A350,350 0 0,1 -329.0417386179223,119.29599426340727L-306.4788765412648,111.11569751391649A326,326 0 0,0 -298.6969131542787,130.59921160598657Z" style="fill: rgb(202, 178, 214);"></path><text dy=".35em" font-family="Ubuntu, Helvetica, Arial, Sans-Serif" font-size="16" text-anchor="end" transform="rotate(158.2276037850287)translate(355)rotate(180)">MF0062</text></g><g class="group"><title>MF0061</title><path id="group20" d="M-333.5491077046678,106.04241014528071A350,350 0 0,1 -339.67933149574657,84.36795454793673L-316.3870344788954,78.58272337893536A326,326 0 0,0 -310.6771688906334,98.77093059246147Z" style="fill: rgb(202, 178, 214);"></path><text dy=".35em" font-family="Ubuntu, Helvetica, Arial, Sans-Serif" font-size="16" text-anchor="end" transform="rotate(164.20741354852652)translate(355)rotate(180)">MF0061</text></g><g class="group"><title>MF0057</title><path id="group21" d="M-342.7814425901398,70.71691887959102A350,350 0 0,1 -346.6203083394947,48.52176673034064L-322.85205862478654,45.19455986883156A326,326 0 0,0 -319.2764293839588,65.86775872784763Z" style="fill: rgb(202, 178, 214);"></path><text dy=".35em" font-family="Ubuntu, Helvetica, Arial, Sans-Serif" font-size="16" text-anchor="end" transform="rotate(170.1872233120243)translate(355)rotate(180)">MF0057</text></g><g class="group"><title>MF0045</title><path id="group22" d="M-348.2834022087897,34.6218391462732A350,350 0 0,1 -349.78913283031056,12.147532828494265L-325.803592293375,11.314559148826087A326,326 0 0,0 -324.40111177161555,32.247770176243044Z" style="fill: rgb(202, 178, 214);"></path><text dy=".35em" font-family="Ubuntu, Helvetica, Arial, Sans-Serif" font-size="16" text-anchor="end" transform="rotate(176.1670330755221)translate(355)rotate(180)">MF0045</text></g><g class="group"><title>MF0088</title><path id="group23" d="M-349.99511058271906,-1.8500184297050672A350,350 0 0,1 -349.15131971597003,-24.35889859161306L-325.20951493544635,-22.68857411675959A326,326 0 0,0 -325.99544585704695,-1.7231600230967197Z" style="fill: rgb(51, 160, 44);"></path><text dy=".35em" font-family="Ubuntu, Helvetica, Arial, Sans-Serif" font-size="16" text-anchor="end" transform="rotate(182.14684283901994)translate(355)rotate(180)">MF0088</text></g><g class="group"><title>MF0086</title><path id="group24" d="M-347.89793976482014,-38.301742876709994A350,350 0 0,1 -344.71381010229436,-60.600240302818506L-321.07629169527985,-56.44479525348238A326,326 0 0,0 -324.0420810380896,-35.675337650878454Z" style="fill: rgb(51, 160, 44);"></path><text dy=".35em" font-family="Ubuntu, Helvetica, Arial, Sans-Serif" font-size="16" text-anchor="end" transform="rotate(188.12665260251777)translate(355)rotate(180)">MF0086</text></g><g class="group"><title>MF0083</title><path id="group25" d="M-342.0147125604649,-74.33664232518575A350,350 0 0,1 -336.5248959154277,-96.1820899601924L-313.4489030526555,-89.58674664863635A326,326 0 0,0 -318.5622751277473,-69.23927256574444Z" style="fill: rgb(51, 160, 44);"></path><text dy=".35em" font-family="Ubuntu, Helvetica, Arial, Sans-Serif" font-size="16" text-anchor="end" transform="rotate(194.1064623660156)translate(355)rotate(180)">MF0083</text></g><g class="group"><title>MF0082</title><path id="group26" d="M-332.4094541545828,-109.56256107198433A350,350 0 0,1 -324.6736943570307,-130.71722224924076L-302.41035531540575,-121.75375558072139A326,326 0 0,0 -309.6156630125543,-102.04969974133398Z" style="fill: rgb(51, 160, 44);"></path><text dy=".35em" font-family="Ubuntu, Helvetica, Arial, Sans-Serif" font-size="16" text-anchor="end" transform="rotate(200.08627212951336)translate(355)rotate(180)">MF0082</text></g><g class="group"><title>MF0095</title><path id="group27" d="M-319.1866953470854,-143.59614727912057A350,350 0 0,1 -309.28917807171763,-163.8298029288973L-288.080777289657,-152.59575929948718A326,326 0 0,0 -297.2996076661424,-133.749554322838Z" style="fill: rgb(166, 206, 227);"></path><text dy=".35em" font-family="Ubuntu, Helvetica, Arial, Sans-Serif" font-size="16" text-anchor="end" transform="rotate(206.0660818930112)translate(355)rotate(180)">MF0095</text></g><g class="group"><title>MF0110</title><path id="group28" d="M-302.4903349792924,-176.0670248630205A350,350 0 0,1 -290.5387715810995,-195.1594789092902L-270.61611295839555,-181.77711464122456A326,326 0 0,0 -281.74814058071235,-163.99385744384196Z" style="fill: rgb(106, 61, 154);"></path><text dy=".35em" font-family="Ubuntu, Helvetica, Arial, Sans-Serif" font-size="16" text-anchor="end" transform="rotate(212.045891656509)translate(355)rotate(180)">MF0110</text></g><g class="group"><title>MF0108</title><path id="group29" d="M-282.50207393119115,-206.6218241729944A350,350 0 0,1 -268.6265292589689,-224.3652998533426L-250.20642439549675,-208.98025072054196A326,326 0 0,0 -263.13050314733806,-192.45347051541762Z" style="fill: rgb(106, 61, 154);"></path><text dy=".35em" font-family="Ubuntu, Helvetica, Arial, Sans-Serif" font-size="16" text-anchor="end" transform="rotate(218.02570142000684)translate(355)rotate(180)">MF0108</text></g><g class="group"><title>MF0106</title><path id="group30" d="M-259.4394377318103,-234.9280275944148A350,350 0 0,1 -243.79091467611138,-251.12942862473324L-227.07382338403517,-233.90912494760866A326,326 0 0,0 -241.6493048587719,-218.81867713079777Z" style="fill: rgb(106, 61, 154);"></path><text dy=".35em" font-family="Ubuntu, Helvetica, Arial, Sans-Serif" font-size="16" text-anchor="end" transform="rotate(224.00551118350467)translate(355)rotate(180)">MF0106</text></g><g class="group"><title>MF0128</title><path id="group31" d="M-233.5534093019749,-260.67758822619214A350,350 0 0,1 -216.30220548138738,-275.1606002026592L-201.47005424837795,-256.2924447601912A326,326 0 0,0 -217.5383183784109,-242.80255360496753Z" style="fill: rgb(255, 127, 0);"></path><text dy=".35em" font-family="Ubuntu, Helvetica, Arial, Sans-Serif" font-size="16" text-anchor="end" transform="rotate(229.9853209470025)translate(355)rotate(180)">MF0128</text></g><g class="group"><title>MF0127</title><path id="group32" d="M-205.12569759150804,-283.5902822516971A350,350 0 0,1 -186.45955206089133,-296.19729142119405L-173.67375420528734,-275.88662000945504A326,326 0 0,0 -191.0599354709475,-264.14409146872356Z" style="fill: rgb(255, 127, 0);"></path><text dy=".35em" font-family="Ubuntu, Helvetica, Arial, Sans-Serif" font-size="16" text-anchor="end" transform="rotate(235.96513071050026)translate(355)rotate(180)">MF0127</text></g><g class="group"><title>MF0125</title><path id="group33" d="M-174.46567183538278,-303.416758520403A350,350 0 0,1 -154.58772198481307,-314.0105670380316L-143.9874210487116,-292.4784138697094A326,326 0 0,0 -162.5023114809565,-282.6110379361468Z" style="fill: rgb(255, 127, 0);"></path><text dy=".35em" font-family="Ubuntu, Helvetica, Arial, Sans-Serif" font-size="16" text-anchor="end" transform="rotate(241.94494047399814)translate(355)rotate(180)">MF0125</text></g><g class="group"><title>MF0116</title><path id="group34" d="M-141.9069947922845,-319.94125215267655A350,350 0 0,1 -121.03356567109178,-328.4065711598072L-112.7341211679312,-305.8872634231347A326,326 0 0,0 -132.1762294350993,-298.00242343363584Z" style="fill: rgb(255, 127, 0);"></path><text dy=".35em" font-family="Ubuntu, Helvetica, Arial, Sans-Serif" font-size="16" text-anchor="end" transform="rotate(247.92475023749597)translate(355)rotate(180)">MF0116</text></g><g class="group"><title>MF0114</title><path id="group35" d="M-107.80399160491717,-332.98393263646665A350,350 0 0,1 -86.1622417288574,-339.2286369106505L-80.25397372459288,-315.96724466534874A326,326 0 0,0 -100.41171789486572,-310.15074868425177Z" style="fill: rgb(255, 127, 0);"></path><text dy=".35em" font-family="Ubuntu, Helvetica, Arial, Sans-Serif" font-size="16" text-anchor="end" transform="rotate(253.9045600009938)translate(355)rotate(180)">MF0114</text></g><g class="group"><title>MF0132</title><path id="group36" d="M-72.52779379852689,-342.40286086234494A350,350 0 0,1 -50.35324305997919,-346.3589913851561L-46.90044925015204,-322.60866054731684A326,326 0 0,0 -67.5544593666279,-318.9238075460699Z" style="fill: rgb(20, 181, 170);"></path><text dy=".35em" font-family="Ubuntu, Helvetica, Arial, Sans-Serif" font-size="16" text-anchor="end" transform="rotate(259.8843697644916)translate(355)rotate(180)">MF0132</text></g><g class="group"><title>MF0133</title><path id="group37" d="M-36.46230038121079,-348.0955337991431A350,350 0 0,1 -13.996266965322343,-349.72003733134227L-13.036522944843096,-325.7392347714788A326,326 0 0,0 -33.96202835507062,-324.22612576720184Z" style="fill: rgb(178, 223, 138);"></path><text dy=".35em" font-family="Ubuntu, Helvetica, Arial, Sans-Serif" font-size="16" text-anchor="end" transform="rotate(265.8641795279894)translate(355)rotate(180)">MF0133</text></g><path class="chord" d="M1.9961742826101858e-14,-326A326,326 0 0,1 20.96927545946707,-325.3248983504106Q 0,0 214.95940306270052,245.0886676999315A326,326 0 0,1 198.74942995657773,258.4079412323379Q 0,0 1.9961742826101858e-14,-326Z" style="fill: rgb(230, 3, 3);"><title>NA → MF0005</title></path><path class="chord" d="M20.96927545946707,-325.3248983504106A326,326 0 0,1 41.85170188547781,-323.30238948898767Q 0,0 188.25689009300095,266.14909981533236A326,326 0 0,1 170.74754553973332,277.70717616251244Q 0,0 20.96927545946707,-325.3248983504106Z" style="fill: rgb(230, 3, 3);"><title>NA → MF0042</title></path><path class="chord" d="M41.85170188547781,-323.30238948898767A326,326 0 0,1 62.56078994964185,-319.94085009713405Q 0,0 159.5056406418125,284.3131207022373A326,326 0 0,1 140.8874729551192,293.98421720276167Q 0,0 41.85170188547781,-323.30238948898767Z" style="fill: rgb(230, 3, 3);"><title>NA → MF0037</title></path><path class="chord" d="M62.56078994964185,-319.94085009713405A326,326 0 0,1 83.01076824390032,-315.2542027563748Q 0,0 129.01854489663344,299.38305742435625A326,326 0 0,1 109.49416933983557,307.0619267844508Q 0,0 62.56078994964185,-319.94085009713405Z" style="fill: rgb(230, 3, 3);"><title>NA → MF0035</title></path><path class="chord" d="M83.01076824390032,-315.2542027563748A326,326 0 0,1 103.11693852236033,-309.261858284813Q 0,0 97.12738367694367,311.19490892376723A326,326 0 0,1 76.90927746913128,316.7979845882486Q 0,0 83.01076824390032,-315.2542027563748Z" style="fill: rgb(39, 129, 39);"><title>NA → MF0034</title></path><path class="chord" d="M103.11693852236033,-309.261858284813A326,326 0 0,1 122.79602649838444,-301.98863534280235Q 0,0 64.17921777502305,319.6201307893265A326,326 0 0,1 43.48740777287106,323.08643636834404Q 0,0 103.11693852236033,-309.261858284813Z" style="fill: rgb(230, 3, 3);"><title>NA → MF0032</title></path><path class="chord" d="M122.79602649838444,-301.98863534280235A326,326 0 0,1 141.9665267440277,-293.46465764080904Q 0,0 30.532611009959776,324.5670341623044A326,326 0 0,1 9.592279229374775,325.8588470169035Q 0,0 122.79602649838444,-301.98863534280235Z" style="fill: rgb(230, 3, 3);"><title>NA → MF0027</title></path><path class="chord" d="M141.9665267440277,-293.46465764080904A326,326 0 0,1 160.5490402633435,-283.7252291751992Q 0,0 -3.4462719019171026,325.98178355542825A326,326 0 0,1 -24.40723886601595,325.08504532035494Q 0,0 141.9665267440277,-293.46465764080904Z" style="fill: rgb(39, 129, 39);"><title>NA → MF0023</title></path><path class="chord" d="M160.5490402633435,-283.7252291751992A326,326 0 0,1 178.46660334142135,-272.8106880086918Q 0,0 -37.3876501946159,323.8489827264014A326,326 0 0,1 -58.14114118154057,320.7734523025685Q 0,0 160.5490402633435,-283.7252291751992Z" style="fill: rgb(39, 129, 39);"><title>NA → MF0022</title></path><path class="chord" d="M178.46660334142135,-272.8106880086918A326,326 0 0,1 195.64500630715318,-260.7662392010783Q 0,0 -70.9221512523141,318.1918422300356A326,326 0 0,1 -91.24231299272523,312.97098958168243Q 0,0 178.46660334142135,-272.8106880086918Z" style="fill: rgb(39, 129, 39);"><title>NA → MF0019</title></path><path class="chord" d="M195.64500630715318,-260.7662392010783A326,326 0 0,1 212.01310088949919,-247.64176758216502Q 0,0 -103.6848303674289,309.07192682558133A326,326 0 0,1 -123.35052536858046,301.76256873789896Q 0,0 195.64500630715318,-260.7662392010783Z" style="fill: rgb(230, 3, 3);"><title>NA → MF0017</title></path><path class="chord" d="M212.01310088949919,-247.64176758216502A326,326 0 0,1 227.50309489426812,-233.49163114238084Q 0,0 -135.31914231125026,296.58848548813825A326,326 0 0,1 -154.11635542202197,287.27016724928643Q 0,0 212.01310088949919,-247.64176758216502Z" style="fill: rgb(230, 3, 3);"><title>NA → MF0015</title></path><path class="chord" d="M227.50309489426812,-233.49163114238084A326,326 0 0,1 242.05083298094004,-218.3744358967713Q 0,0 -165.48082149586753,280.87737131540666A326,326 0 0,1 -183.20498896174638,269.6515010518695Q 0,0 227.50309489426812,-233.49163114238084Z" style="fill: rgb(230, 3, 3);"><title>NA → MF0014</title></path><path class="chord" d="M242.05083298094004,-218.3744358967713A326,326 0 0,1 255.59606237663087,-202.35279315483Q 0,0 -193.84162850089103,262.10956308407094A326,326 0 0,1 -210.29986416257935,249.0983081700891Q 0,0 242.05083298094004,-218.3744358967713Z" style="fill: rgb(39, 129, 39);"><title>NA → MF0013</title></path><path class="chord" d="M255.59606237663087,-202.35279315483A326,326 0 0,1 268.08268242668356,-185.49306020149092Q 0,0 -220.09292219277734,240.489304545221A326,326 0 0,1 -235.1061166014556,225.8342620963054Q 0,0 255.59606237663087,-202.35279315483Z" style="fill: rgb(39, 129, 39);"><title>NA → MF0011</title></path><path class="chord" d="M268.08268242668356,-185.49306020149092A326,326 0 0,1 279.45897694831535,-167.8650654633088Q 0,0 -243.94901856258383,216.25188170823424A326,326 0 0,1 -257.35378816786226,200.1125376273338Q 0,0 268.08268242668356,-185.49306020149092Z" style="fill: rgb(39, 129, 39);"><title>NA → MF0008</title></path><path class="chord" d="M279.45897694831535,-167.8650654633088A326,326 0 0,1 289.67782842497553,-149.54181929811617Q 0,0 -265.15029972904955,189.66106230218998A326,326 0 0,1 -276.8007649272506,172.21305564819681Q 0,0 279.45897694831535,-167.8650654633088Z" style="fill: rgb(230, 3, 3);"><title>NA → MF0044</title></path><path class="chord" d="M289.67782842497553,-149.54181929811617A326,326 0 0,1 298.6969131542788,-130.59921160598643Q 0,0 -283.4660392727663,161.00622528029936A326,326 0 0,1 -293.23541196563747,142.43943684718394Q 0,0 289.67782842497553,-149.54181929811617Z" style="fill: rgb(230, 3, 3);"><title>NA → MF0074</title></path><path class="chord" d="M298.6969131542788,-130.59921160598643A326,326 0 0,1 306.4788765412648,-111.1156975139163Q 0,0 -298.6969131542787,130.59921160598657A326,326 0 0,1 -306.4788765412648,111.11569751391649Q 0,0 298.6969131542788,-130.59921160598643Z" style="fill: rgb(230, 3, 3);"><title>NA → MF0062</title></path><path class="chord" d="M306.4788765412648,-111.1156975139163A326,326 0 0,1 312.99148781096676,-91.17197243603685Q 0,0 -310.6771688906334,98.77093059246147A326,326 0 0,1 -316.3870344788954,78.58272337893536Q 0,0 306.4788765412648,-111.1156975139163Z" style="fill: rgb(230, 3, 3);"><title>NA → MF0061</title></path><path class="chord" d="M312.99148781096676,-91.17197243603685A326,326 0 0,1 318.2077734995114,-70.85063785516425Q 0,0 -319.2764293839588,65.86775872784763A326,326 0 0,1 -322.85205862478654,45.19455986883156Q 0,0 312.99148781096676,-91.17197243603685Z" style="fill: rgb(230, 3, 3);"><title>NA → MF0057</title></path><path class="chord" d="M318.2077734995114,-70.85063785516425A326,326 0 0,1 322.10612917086786,-50.23585920993284Q 0,0 -324.40111177161555,32.247770176243044A326,326 0 0,1 -325.803592293375,11.314559148826087Q 0,0 318.2077734995114,-70.85063785516425Z" style="fill: rgb(230, 3, 3);"><title>NA → MF0045</title></path><path class="chord" d="M322.10612917086786,-50.23585920993284A326,326 0 0,1 324.67040889654265,-29.41301730444888Q 0,0 -325.99544585704695,-1.7231600230967197A326,326 0 0,1 -325.20951493544635,-22.68857411675959Q 0,0 322.10612917086786,-50.23585920993284Z" style="fill: rgb(39, 129, 39);"><title>NA → MF0088</title></path><path class="chord" d="M324.67040889654265,-29.41301730444888A326,326 0 0,1 325.8899921276228,-8.468354684230965Q 0,0 -324.0420810380896,-35.675337650878454A326,326 0 0,1 -321.07629169527985,-56.44479525348238Q 0,0 324.67040889654265,-29.41301730444888Z" style="fill: rgb(39, 129, 39);"><title>NA → MF0086</title></path><path class="chord" d="M325.8899921276228,-8.468354684230965A326,326 0 0,1 325.7598276821997,12.511381556947885Q 0,0 -318.5622751277473,-69.23927256574444A326,326 0 0,1 -313.4489030526555,-89.58674664863635Q 0,0 325.8899921276228,-8.468354684230965Z" style="fill: rgb(230, 3, 3);"><title>NA → MF0083</title></path><path class="chord" d="M325.7598276821997,12.511381556947885A326,326 0 0,1 324.2804546659901,33.439299059919755Q 0,0 -309.6156630125543,-102.04969974133398A326,326 0 0,1 -302.41035531540575,-121.75375558072139Q 0,0 325.7598276821997,12.511381556947885Z" style="fill: rgb(230, 3, 3);"><title>NA → MF0082</title></path><path class="chord" d="M324.2804546659901,33.439299059919755A326,326 0 0,1 321.45800023950676,54.2287200846311Q 0,0 -297.2996076661424,-133.749554322838A326,326 0 0,1 -288.080777289657,-152.59575929948718Q 0,0 324.2804546659901,33.439299059919755Z" style="fill: rgb(230, 3, 3);"><title>NA → MF0095</title></path><path class="chord" d="M321.45800023950676,54.2287200846311A326,326 0 0,1 317.3041542410271,74.79354050575806Q 0,0 -281.74814058071235,-163.99385744384196A326,326 0 0,1 -270.61611295839555,-181.77711464122456Q 0,0 321.45800023950676,54.2287200846311Z" style="fill: rgb(39, 129, 39);"><title>NA → MF0110</title></path><path class="chord" d="M317.3041542410271,74.79354050575806A326,326 0 0,1 311.83612077046354,95.04858643256559Q 0,0 -263.13050314733806,-192.45347051541762A326,326 0 0,1 -250.20642439549675,-208.98025072054196Q 0,0 317.3041542410271,74.79354050575806Z" style="fill: rgb(230, 3, 3);"><title>NA → MF0108</title></path><path class="chord" d="M311.83612077046354,95.04858643256559A326,326 0 0,1 305.07654693466253,114.90996697598803Q 0,0 -241.6493048587719,-218.81867713079777A326,326 0 0,1 -227.07382338403517,-233.90912494760866Q 0,0 311.83612077046354,95.04858643256559Z" style="fill: rgb(230, 3, 3);"><title>NA → MF0106</title></path><path class="chord" d="M305.07654693466253,114.90996697598803A326,326 0 0,1 297.0534290492503,134.295421701866Q 0,0 -217.5383183784109,-242.80255360496753A326,326 0 0,1 -201.47005424837795,-256.2924447601912Q 0,0 305.07654693466253,114.90996697598803Z" style="fill: rgb(230, 3, 3);"><title>NA → MF0128</title></path><path class="chord" d="M297.0534290492503,134.295421701866A326,326 0 0,1 287.79999668551085,153.1246613312824Q 0,0 -191.0599354709475,-264.14409146872356A326,326 0 0,1 -173.67375420528734,-275.88662000945504Q 0,0 297.0534290492503,134.295421701866Z" style="fill: rgb(39, 129, 39);"><title>NA → MF0127</title></path><path class="chord" d="M287.79999668551085,153.1246613312824A326,326 0 0,1 277.35457504254316,171.31970027691003Q 0,0 -162.5023114809565,-282.6110379361468A326,326 0 0,1 -143.9874210487116,-292.4784138697094Q 0,0 287.79999668551085,153.1246613312824Z" style="fill: rgb(230, 3, 3);"><title>NA → MF0125</title></path><path class="chord" d="M277.35457504254316,171.31970027691003A326,326 0 0,1 265.7604262147142,188.80517963809535Q 0,0 -132.1762294350993,-298.00242343363584A326,326 0 0,1 -112.7341211679312,-305.8872634231347Q 0,0 277.35457504254316,171.31970027691003Z" style="fill: rgb(39, 129, 39);"><title>NA → MF0116</title></path><path class="chord" d="M265.7604262147142,188.80517963809535A326,326 0 0,1 253.0655700118353,205.50867931692054Q 0,0 -100.41171789486572,-310.15074868425177A326,326 0 0,1 -80.25397372459288,-315.96724466534874Q 0,0 265.7604262147142,188.80517963809535Z" style="fill: rgb(39, 129, 39);"><title>NA → MF0114</title></path><path class="chord" d="M253.0655700118353,205.50867931692054A326,326 0 0,1 239.3225850741756,221.36101796254457Q 0,0 -67.5544593666279,-318.9238075460699A326,326 0 0,1 -46.90044925015204,-322.60866054731684Q 0,0 253.0655700118353,205.50867931692054Z" style="fill: rgb(39, 129, 39);"><title>NA → MF0132</title></path><path class="chord" d="M239.3225850741756,221.36101796254457A326,326 0 0,1 224.58839110604,236.2965395015348Q 0,0 -33.96202835507062,-324.22612576720184A326,326 0 0,1 -13.036522944843096,-325.7392347714788Q 0,0 239.3225850741756,221.36101796254457Z" style="fill: rgb(230, 3, 3);"><title>NA → MF0133</title></path></g></svg>