<?xml version="1.0" encoding="UTF-8"?>
<!-- Created with Inkscape (http://www.inkscape.org/) --><svg xmlns="http://www.w3.org/2000/svg" xmlns:cc="http://creativecommons.org/ns#" xmlns:dc="http://purl.org/dc/elements/1.1/" xmlns:rdf="http://www.w3.org/1999/02/22-rdf-syntax-ns#" id="egg_2_0" viewBox="0 0 1052.4 744.09" height="100%" width="100%" version="1.1" preserveAspectRatio="xMinYMin meet">
 <metadata id="metadata7">
  <rdf:RDF>
   <cc:Work rdf:about="">
    <dc:format>image/svg+xml</dc:format>
    <dc:type rdf:resource="http://purl.org/dc/dcmitype/StillImage" />
    <dc:title />
   </cc:Work>
  </rdf:RDF>
 </metadata>
  <g id="egg-elements" transform="translate(-22.080837,-296.92778)">
   <path id="path3775" stroke-linejoin="round" d="m1010.8,676.01c0,166.53-217.65,301.53-486.13,301.53s-486.13-134.99-486.13-301.53c0-166.53,217.65-301.53,486.13-301.53,99.723,0,192.43,18.625,269.58,50.573,130.55,54.063,216.54,146.28,216.54,250.96z" stroke-dashoffset="0" stroke="#000" stroke-linecap="round" stroke-miterlimit="4" stroke-dasharray="none" stroke-width="5.35900927" fill="none" />
   <g id="5" transform="translate(223.60088,-567.39252)">
    <title id="title4109">CO2 metabolism</title>
    <rect id="rect4343-1-3" stroke-linejoin="round" stroke-width="3" rx="9.992" ry="9.992" stroke-dashoffset="0" width="64.034" stroke="#888" stroke-linecap="round" stroke-dasharray="none" x="482.64" y="944.04" stroke-miterlimit="4" height="40.351" fill="#FFF" />
    <text id="text4351-8-9" style="word-spacing:0px;letter-spacing:0px;" line-height="125%" font-weight="normal" xml:space="preserve" font-size="20px" font-style="normal" font-stretch="normal" font-variant="normal" y="965.48907" x="493.96457" font-family="Ubuntu, Helvetica, Arial, serif" fill="#000000"><tspan id="tspan4353-6-7" y="965.48907" x="493.96457" font-size="20px" style="baseline-shift:sub;">CO<tspan id="tspan3180" font-size="65.00091553%" style="baseline-shift:sub;">2</tspan></tspan></text>
   </g>
   <g id="7" transform="translate(466.57425,-395.20727)">
    <title id="title4113">Hydrogen metabolism</title>
    <rect id="rect4343-1-8" stroke-linejoin="round" stroke-width="3" rx="9.8711" ry="9.8711" stroke-dashoffset="0" width="57.452" stroke="#000000" stroke-linecap="round" stroke-dasharray="none" x="482.49" y="948.34" stroke-miterlimit="4" height="36.203" fill="#E60303" style="opacity:1;" />
    <text id="text4351-8-0" style="word-spacing:0px;letter-spacing:0px;" line-height="125%" font-weight="normal" xml:space="preserve" font-size="20px" font-style="normal" font-stretch="normal" font-variant="normal" y="971.25232" x="499.19601" font-family="Ubuntu, Helvetica, Arial, serif" fill="#000000"><tspan id="tspan4353-6-9" y="971.25232" x="499.19601">H<tspan id="tspan4393-45" font-size="65.00091553%" style="baseline-shift:sub;">2</tspan></tspan></text>
   </g>
   <g id="8" transform="translate(488.21398,-335.39538)">
    <title id="title3126">Methane metabolism</title>
    <rect id="rect4343-1-9" stroke-linejoin="round" stroke-width="3" rx="11.002" ry="11.002" stroke-dashoffset="0" width="64.034" stroke="#888" stroke-linecap="round" stroke-dasharray="none" x="482.64" y="944.04" stroke-miterlimit="4" height="40.351" fill="#FFF" />
    <text id="text4351-8-3" style="word-spacing:0px;letter-spacing:0px;" line-height="125%" font-weight="normal" xml:space="preserve" font-size="20px" font-style="normal" font-stretch="normal" font-variant="normal" y="970.53986" x="498.00519" font-family="Ubuntu, Helvetica, Arial, serif" fill="#000000"><tspan id="tspan4353-6-3" y="970.53986" x="498.00519">CH<tspan id="tspan4393-3" font-size="65.00091553%" style="baseline-shift:sub;">4</tspan></tspan></text>
   </g>
   <g id="3" transform="translate(-158.94708,1.403117)">
    <title id="title3958">#Energy storage</title>
    <rect id="rect3057" stroke-linejoin="round" stroke-width="3" transform="translate(0,308.2677)" rx="11.112" stroke-dashoffset="0" ry="11.112" width="173.75" stroke="#000000" stroke-linecap="butt" stroke-dasharray="none" x="635.39" y="610.75" stroke-miterlimit="4" height="35.355" fill="#E60303" style="opacity:1;" />
    <text id="text3841" style="word-spacing:0px;letter-spacing:0px;" font-weight="normal" xml:space="preserve" font-size="20px" font-style="normal" font-stretch="normal" line-height="125%" font-variant="normal" y="943.26569" x="648.51794" font-family="Ubuntu, Helvetica, Arial, serif" fill="#000000"><tspan id="tspan3843" y="943.26569" x="648.51794">Energy storage</tspan></text>
   </g>
   <g id="19" transform="translate(181.39709,-58.88529)">
    <title id="title4121">Butyrate production</title>
    <rect id="rect3059" stroke-linejoin="round" stroke-width="3" transform="translate(0,308.2677)" rx="9.0914" stroke-dashoffset="0" ry="9.0914" width="116.17" stroke="#888" stroke-linecap="butt" stroke-dasharray="none" x="524.27" y="463.27" stroke-miterlimit="4" height="33.335" fill="#FFF" />
    <text id="text3845" style="word-spacing:0px;letter-spacing:0px;" font-weight="normal" xml:space="preserve" font-size="20px" font-style="normal" line-height="125%" font-stretch="normal" font-variant="normal" y="794.75299" x="539.40118" font-family="Ubuntu, Helvetica, Arial, serif" fill="#000000"><tspan id="tspan3847" y="794.75299" x="539.40118">Butyrate</tspan></text>
   </g>
   <g id="18" transform="translate(131.00183,-31.65217)">
    <title id="title4123">Acetate production</title>
    <rect id="rect3063" stroke-linejoin="round" stroke-width="3" rx="12.122" ry="12.122" stroke-dashoffset="0" width="110.11" stroke="#000000" stroke-linecap="butt" stroke-dasharray="none" x="591.82" y="687.71" stroke-miterlimit="4" height="33.335" fill="#278127" style="opacity:1;" />
    <text id="text3849" style="word-spacing:0px;letter-spacing:0px;" font-weight="normal" xml:space="preserve" font-size="20px" font-style="normal" font-stretch="normal" line-height="125%" font-variant="normal" y="710.94043" x="608.99481" font-family="Ubuntu, Helvetica, Arial, serif" fill="#000000"><tspan id="tspan3851" y="710.94043" x="608.99481">Acetate</tspan></text>
   </g>
   <g id="21">
    <title id="titlepropionate">Propionate production</title>
    <rect id="rect3061" stroke-linejoin="round" stroke-width="2.8557" rx="14.423" ry="14.423" stroke-dashoffset="0" width="124.04" stroke="#888" stroke-linecap="butt" stroke-dasharray="none" x="737.18" y="594.42" stroke-miterlimit="4" height="37.501" fill="#FFF" />
    <text id="text3853" font-size="20px" font-weight="normal" xml:space="preserve" style="word-spacing:0px;letter-spacing:0px;" font-style="normal" line-height="125%" font-stretch="normal" font-variant="normal" y="619.73792" x="742.81976" font-family="Ubuntu, Helvetica, Arial, serif" fill="#000000"><tspan id="tspan3855" y="619.73792" x="742.81976">Propionate</tspan></text>
   </g>
   <path id="path3947" stroke-linejoin="miter" d="m899.24,490.94,0,213.03c0,11.91-13.355,25.265-25.265,25.265h-41.691" stroke="#888" stroke-linecap="butt" stroke-miterlimit="4" stroke-dasharray="none" stroke-width="3" fill="none" />
   <path id="path3949" stroke-linejoin="miter" d="m878.59,489.79,0,164.79c0,8.6617-9.7126,18.374-18.374,18.374h-18.406" stroke="#888" stroke-linecap="butt" stroke-miterlimit="4" stroke-dasharray="none" stroke-width="3" fill="none" />
   <path id="path3951" stroke-linejoin="miter" d="m808,489.21,0,94.801" stroke="#888" stroke-linecap="butt" stroke-miterlimit="4" stroke-dasharray="none" stroke-width="3" fill="none" />
   <g id="14" transform="translate(-146.52411,-13.436908)">
    <title id="title4127">Monosaccharide degradation</title>
    <path id="path3899" stroke-linejoin="round" d="m771.76,205.68a112.13,24.244,0,1,1,-224.25,0,112.13,24.244,0,1,1,224.25,0z" stroke-dashoffset="0" transform="translate(0,306.2677)" stroke="#888" stroke-linecap="butt" stroke-miterlimit="4" stroke-dasharray="none" stroke-width="3" fill="#FFF" />
    <text id="text3895" style="word-spacing:0px;letter-spacing:0px;" line-height="125%" font-weight="normal" xml:space="preserve" font-size="20px" font-style="normal" font-stretch="normal" font-variant="normal" y="520.01178" x="576.79712" font-family="Ubuntu, Helvetica, Arial, serif" fill="#000000"><tspan id="tspan3897" y="520.01178" x="576.79712">Monosaccharides</tspan></text>
   </g>
	<g id="13" transform="translate(-146.93292,-86.33948)">
    <title id="title4125">Disaccharide degradation</title>
    <path id="path3899-4" stroke-linejoin="round" d="m510.74,560.41a89.198,19.286,0,1,1,-178.39,0,89.198,19.286,0,1,1,178.39,0z" stroke-dashoffset="0" stroke="#888" stroke-linecap="butt" stroke-miterlimit="4" stroke-dasharray="none" stroke-width="3" fill="#FFF" />
    <text id="text3919" style="word-spacing:0px;letter-spacing:0px;" line-height="125%" font-weight="normal" xml:space="preserve" font-size="20px" font-style="normal" font-stretch="normal" font-variant="normal" y="566.41791" x="357.59399" font-family="Ubuntu, Helvetica, Arial, serif" fill="#000000"><tspan id="tspan3921" y="566.41791" x="357.59399">Disaccharides</tspan></text>
   </g>
   <g id="15" transform="translate(158.04631,-199.13408)">
    <title id="title4129">Polysaccharide degradation</title>
    <path id="path3945" stroke-linejoin="round" d="m396.99,338.01c0,10.6-42.286,19.193-94.449,19.193s-94.449-8.593-94.449-19.193,42.286-19.193,94.449-19.193,94.449,8.593,94.449,19.193z" stroke-dashoffset="0" transform="matrix(1.1421278,0,0,1.1421278,-76.738032,238.01538)" stroke="#888" stroke-linecap="butt" stroke-miterlimit="4" stroke-dasharray="none" stroke-width="2.62667632" fill="#FFF" />
    <text id="text3941" font-size="20px" font-weight="normal" xml:space="preserve" style="word-spacing:0px;letter-spacing:0px;" font-style="normal" font-stretch="normal" line-height="125%" font-variant="normal" y="630.29895" x="345.80093" font-family="Ubuntu, Helvetica, Arial, serif" fill="#000000"><tspan id="tspan3943" y="630.29895" x="268.32074" style="text-anchor:middle;text-align:center;">Polysaccharides</tspan></text>
   </g>
   <g id="16" transform="translate(-227.47817,-17.298464)">
    <title id="title4135">Sugar acid degradation</title>
    <path id="path3899-4-2" stroke-linejoin="round" d="m510.74,560.41a89.198,19.286,0,1,1,-178.39,0,89.198,19.286,0,1,1,178.39,0z" stroke-dashoffset="0" stroke="#000000" stroke-linecap="butt" stroke-miterlimit="4" stroke-dasharray="none" stroke-width="3" fill="#E60303" style="opacity:1;" />
    <text id="text3919-1" style="word-spacing:0px;letter-spacing:0px;" line-height="125%" font-weight="normal" xml:space="preserve" font-size="20px" font-style="normal" font-stretch="normal" font-variant="normal" y="566.41791" x="357.59399" font-family="Ubuntu, Helvetica, Arial, serif" fill="#000000"><tspan id="tspan3921-5" y="566.41791" x="357.59399">Sugar acid</tspan></text>
   </g>
   <g id="11" transform="translate(-26.887562,-1.1756453)">
    <title id="title3130">Mucus degradation</title>
    <path id="path5764" d="m401.15,566.66c0,18.163-35.447,32.888-79.174,32.888-43.726,0-79.174-14.724-79.174-32.888,0-18.163,35.447-32.888,79.174-32.888,43.726,0,79.174,14.724,79.174,32.888z" transform="translate(-2,306.2677)" stroke="#888" stroke-dasharray="none" stroke-miterlimit="4" stroke-width="3" fill="#FFF" />
    <text id="text4103" style="word-spacing:0px;letter-spacing:0px;" font-weight="normal" xml:space="preserve" font-size="20px" font-style="normal" font-stretch="normal" line-height="125%" font-variant="normal" y="862.341" x="318.44635" font-family="Ubuntu, Helvetica, Arial, serif" fill="#000000"><tspan id="tspan4105" y="862.341" x="318.44635" style="text-anchor:middle;text-align:center;">Mucus</tspan><tspan id="tspan4107" y="889.841" x="318.44635" style="text-anchor:middle;text-align:center;">Degradation</tspan></text>
   </g>
   <g id="10" transform="translate(62.33683,92.208619)">
    <title id="title4139">Lipolytic fermentation</title>
    <path id="path5760" d="m242.8,390.85c0,16.594-42.9,30.045-95.82,30.045s-95.82-13.452-95.82-30.045c0-16.594,42.9-30.045,95.82-30.045s95.82,13.452,95.82,30.045z" transform="translate(0,308.2677)" stroke="#888" stroke-dasharray="none" stroke-miterlimit="4" stroke-width="3" fill="#FFF" />
    <text id="text4109" style="word-spacing:0px;letter-spacing:0px;" font-weight="normal" xml:space="preserve" font-size="20px" font-style="normal" font-stretch="normal" line-height="125%" font-variant="normal" y="690.18921" x="145.28256" font-family="Ubuntu, Helvetica, Arial, serif" fill="#000000"><tspan id="tspan4111" y="690.18921" x="145.28256" style="text-anchor:middle;text-align:center;">Lipolytic</tspan><tspan id="tspan4113" y="717.68921" x="145.28256" style="text-anchor:middle;text-align:center;">Fermentation</tspan></text>
   </g>
   <g id="12" transform="translate(-132.31461,-66.66335)">
    <title id="title4133">Proteolytic fermentation</title>
    <path id="path5762" d="m370.29,473.28c0,18.612-41.264,33.7-92.166,33.7s-92.166-15.088-92.166-33.7,41.264-33.7,92.166-33.7,92.166,15.088,92.166,33.7z" transform="matrix(1.0301192,0,0,1.0582779,-7.5347084,272.7163)" stroke="#888" stroke-dasharray="none" stroke-miterlimit="4" stroke-width="3" fill="#FFF" />
    <text id="text3158" style="word-spacing:0px;letter-spacing:0px;text-anchor:middle;text-align:center;" font-weight="normal" xml:space="preserve" font-size="20px" font-style="normal" line-height="125%" font-stretch="normal" font-variant="normal" y="767.08661" x="278.83426" font-family="Ubuntu, Helvetica, Arial, serif" fill="#000000"><tspan id="tspan3160" y="767.08661" x="278.83426">Proteolytic</tspan><tspan id="tspan3162" y="794.58661" x="278.83426">Fermentation</tspan></text>
   </g>
   <g id="23" transform="translate(108.46166,28.814247)">
    <title id="title4117">Oxidative stress</title>
    <path id="path4250" d="m810.41,448.51-4.6226,4.4749,6.4322,0.14112-5.2657,3.6967,6.331,1.1456-5.7792,2.8274,6.0738,2.1219-6.1504,1.8886,5.6671,3.0459-6.3701,0.90317,5.1208,3.8949-6.4329-0.10445,4.4485,4.648-6.3374-1.1095,3.6666,5.2867-6.0858-2.0872,2.7944,5.7952-5.6844-3.0135,1.8535,6.161-5.143-3.8657,0.86684,6.3751-4.4749-4.6226-0.14112,6.4322-3.6967-5.2657-1.1456,6.331-2.8274-5.7792-2.1219,6.0738-1.8886-6.1504-3.0459,5.6671-0.90317-6.3701-3.8949,5.1208,0.10444-6.4329-4.648,4.4485,1.1095-6.3374-5.2867,3.6666,2.0872-6.0858-5.7952,2.7944,3.0135-5.6844-6.161,1.8534,3.8657-5.143-6.3751,0.86684,4.6226-4.4749-6.4322-0.14112,5.2657-3.6967-6.331-1.1456,5.7792-2.8274-6.0738-2.1219,6.1504-1.8886-5.6671-3.0459,6.3701-0.90317-5.1208-3.8949,6.4329,0.10444-4.4485-4.648,6.3374,1.1095-3.6666-5.2867,6.0858,2.0872-2.7944-5.7952,5.6844,3.0136-1.8534-6.161,5.143,3.8657-0.86684-6.3751,4.4749,4.6226,0.14112-6.4322,3.6967,5.2657,1.1456-6.331,2.8274,5.7792,2.1219-6.0738,1.8886,6.1504,3.0459-5.6671,0.90317,6.3701,3.8949-5.1208-0.10444,6.4329,4.648-4.4485-1.1095,6.3374,5.2867-3.6666-2.0872,6.0858,5.7952-2.7944-3.0136,5.6844,6.161-1.8535-3.8657,5.143z" transform="matrix(1.1472383,0,0,1.1472383,-110.26689,245.06973)" stroke="#000" stroke-dasharray="none" stroke-miterlimit="4" stroke-width="3" fill="none" />
    <text id="text4252" style="word-spacing:0px;letter-spacing:0px;" font-weight="normal" xml:space="preserve" font-size="20px" font-style="normal" font-stretch="normal" line-height="125%" font-variant="normal" y="783.57343" x="765.75092" font-family="Ubuntu, Helvetica, Arial, serif" fill="#000000"><tspan id="tspan4254" y="783.57343" x="765.75092">ROS</tspan></text>
   </g>
   <g id="22" transform="translate(40.144935,72.348487)">
    <title id="title4115">Nitrate metabolism</title>
    <path id="path4250-6" d="m810.41,448.51-4.6226,4.4749,6.4322,0.14112-5.2657,3.6967,6.331,1.1456-5.7792,2.8274,6.0738,2.1219-6.1504,1.8886,5.6671,3.0459-6.3701,0.90317,5.1208,3.8949-6.4329-0.10445,4.4485,4.648-6.3374-1.1095,3.6666,5.2867-6.0858-2.0872,2.7944,5.7952-5.6844-3.0135,1.8535,6.161-5.143-3.8657,0.86684,6.3751-4.4749-4.6226-0.14112,6.4322-3.6967-5.2657-1.1456,6.331-2.8274-5.7792-2.1219,6.0738-1.8886-6.1504-3.0459,5.6671-0.90317-6.3701-3.8949,5.1208,0.10444-6.4329-4.648,4.4485,1.1095-6.3374-5.2867,3.6666,2.0872-6.0858-5.7952,2.7944,3.0135-5.6844-6.161,1.8534,3.8657-5.143-6.3751,0.86684,4.6226-4.4749-6.4322-0.14112,5.2657-3.6967-6.331-1.1456,5.7792-2.8274-6.0738-2.1219,6.1504-1.8886-5.6671-3.0459,6.3701-0.90317-5.1208-3.8949,6.4329,0.10444-4.4485-4.648,6.3374,1.1095-3.6666-5.2867,6.0858,2.0872-2.7944-5.7952,5.6844,3.0136-1.8534-6.161,5.143,3.8657-0.86684-6.3751,4.4749,4.6226,0.14112-6.4322,3.6967,5.2657,1.1456-6.331,2.8274,5.7792,2.1219-6.0738,1.8886,6.1504,3.0459-5.6671,0.90317,6.3701,3.8949-5.1208-0.10444,6.4329,4.648-4.4485-1.1095,6.3374,5.2867-3.6666-2.0872,6.0858,5.7952-2.7944-3.0136,5.6844,6.161-1.8535-3.8657,5.143z" transform="matrix(1.1472383,0,0,1.1472383,-110.26689,245.06973)" stroke="#000" stroke-dasharray="none" stroke-miterlimit="4" stroke-width="3" fill="none" />
    <text id="text4252-6" style="word-spacing:0px;letter-spacing:0px;" font-weight="normal" xml:space="preserve" font-size="20px" font-style="normal" font-stretch="normal" line-height="125%" font-variant="normal" y="783.57343" x="765.75092" font-family="Ubuntu, Helvetica, Arial, serif" fill="#000000"><tspan id="tspan4254-9" y="783.57343" x="765.75092">RNS</tspan></text>
   </g>
   <g id="6" transform="translate(132.66116,60.988642)">
    <title id="title4111">Acetogenesis</title>
    <rect id="rect4290" ry="11.002" rx="11.002" transform="translate(0,308.2677)" height="33.294" width="146.98" stroke="#000000" stroke-dasharray="none" x="779.56" y="131" stroke-miterlimit="4" stroke-width="3" fill="#E60303" style="opacity:1;" />
    <text id="text3845-5" font-size="20px" line-height="125%" font-weight="normal" xml:space="preserve" transform="translate(253.23109,-334.3188)" font-stretch="normal" font-variant="normal" y="794.75299" x="535.40118" font-family="Ubuntu, Helvetica, Arial, serif" style="word-spacing:0px;letter-spacing:0px;" font-style="normal" fill="#000000"><tspan id="tspan3847-6" y="794.75299" x="535.40118">Acetogenesis</tspan></text>
   </g>
   <g id="4" transform="translate(-25.703375,-109.27671)">
    <title id="title3128">Ethanol production</title>
    <rect id="rect5754" ry="7.3522" rx="7.3522" transform="translate(77.507608,424.23114)" height="26.797" width="96.632" stroke="#888" stroke-dasharray="none" x="563.55" y="497.23" stroke-miterlimit="4" stroke-width="3" fill="#FFF" />
    <text id="text3841-9" style="word-spacing:0px;letter-spacing:0px;" font-weight="normal" xml:space="preserve" font-size="20px" font-style="normal" font-stretch="normal" line-height="125%" font-variant="normal" y="943.26569" x="648.51794" font-family="Ubuntu, Helvetica, Arial, serif" fill="#000000"><tspan id="tspan3843-7" y="943.26569" x="648.51794">Ethanol</tspan></text>
   </g>
   <g id="2">
    <title id="title6752">central metabolism</title>
    <path id="path3917" stroke-linejoin="round" d="m591.97,359.8c0,38.068-34.693,68.929-77.488,68.929-42.796,0-77.488-30.86-77.488-68.929,0-38.068,34.693-68.929,77.488-68.929,42.796,0,77.488,30.86,77.488,68.929z" stroke-dashoffset="0" transform="matrix(1.1197745,0,0,1.1197745,-50.359514,270.00407)" stroke="#888" stroke-linecap="butt" stroke-miterlimit="4" stroke-dasharray="none" stroke-width="3" fill="none" />
    <text id="text3148" style="word-spacing:0px;letter-spacing:0px;text-anchor:middle;text-align:center;" font-weight="bold" xml:space="preserve" font-size="24px" font-style="normal" line-height="125%" font-stretch="normal" font-variant="normal" y="663.79333" x="525.74701" font-family="Ubuntu, Helvetica, Arial, serif" fill="#000000"><tspan id="tspan3150" y="663.79333" x="525.74701">Central</tspan><tspan id="tspan3152" y="693.79333" x="525.74701">Metabolism</tspan></text>
   </g>
   <g id="17" transform="translate(-257.18572,37.587996)">
    <title id="title4137">Sugar alcohol degradation</title>
    <path id="path3899-4-2-7" stroke-linejoin="round" d="m510.74,560.41a89.198,19.286,0,1,1,-178.39,0,89.198,19.286,0,1,1,178.39,0z" stroke-dashoffset="0" stroke="#888" stroke-linecap="butt" stroke-miterlimit="4" stroke-dasharray="none" stroke-width="2.38646078" fill="#FFF" />
    <text id="text3919-1-3" style="word-spacing:0px;letter-spacing:0px;" font-weight="normal" xml:space="preserve" font-size="20px" font-style="normal" font-stretch="normal" line-height="125%" font-variant="normal" y="566.41791" x="353.59399" font-family="Ubuntu, Helvetica, Arial, serif" fill="#000000"><tspan id="tspan3921-5-2" y="566.41791" x="353.59399">Sugar alcohol</tspan></text>
   </g>
   <g id="1" transform="translate(137.93988,-584.81393)">
    <title id="title3956">Ammonia production</title>
    <rect id="rect4343-1-8-5" stroke-linejoin="round" stroke-width="3" rx="11.002" ry="11.002" stroke-dashoffset="0" width="64.034" stroke="#888" stroke-linecap="round" stroke-dasharray="none" x="482.64" y="944.04" stroke-miterlimit="4" height="40.351" fill="#FFF" />
    <text id="text4351-8-0-1" style="word-spacing:0px;letter-spacing:0px;" font-weight="normal" xml:space="preserve" font-size="20px" font-style="normal" font-stretch="normal" line-height="125%" font-variant="normal" y="970.34174" x="495.52991" font-family="Ubuntu, Helvetica, Arial, serif" fill="#000000"><tspan id="tspan4353-6-9-6" y="970.34174" x="495.52991">NH<tspan id="tspan4393-45-6" style="baseline-shift:sub;" font-size="65.00091553%">3</tspan></tspan></text>
   </g>
   <path id="path3329" stroke-linejoin="miter" style="marker-start:none;marker-end:none;" d="m372.4,563.47,24.848,0c9.9864,0,21.184-11.198,21.184-21.184v-110.38c0-8.297,9.3036-17.601,17.601-17.601h11.939" stroke-opacity="0.94117647" transform="translate(0,308.2677)" stroke="#88888f" stroke-linecap="butt" stroke-miterlimit="4" stroke-dasharray="none" stroke-width="3" fill="none" />
   <path id="path3329-2" stroke-linejoin="miter" style="marker-end:none;" d="m305.97,791.45,24.848,0c9.9864,0,21.184-11.198,21.184-21.184v-49.218c0-8.297,9.3036-17.601,17.601-17.601h65.96" stroke-opacity="0.94117647" stroke="#88888f" stroke-linecap="butt" stroke-miterlimit="4" stroke-dasharray="none" stroke-width="3" fill="none" />
   <path id="path4815" stroke-linejoin="miter" style="marker-end:none;" d="m241.48,399,64.423,0c4.6578,0,12.101-5.032,12.101-9.6898v-6.0374c0-5.7513,9.191-11.33,14.942-11.33h96.323" transform="translate(0,308.2677)" stroke="#888" stroke-linecap="butt" stroke-miterlimit="4" stroke-dasharray="none" stroke-width="3" fill="none" />
   <path id="path5021" stroke-linejoin="miter" style="marker-end:none;" d="m153.52,618.63,0,28.201c0,5.939,6.6595,12.599,12.599,12.599h264.54" stroke="#888" stroke-linecap="butt" stroke-miterlimit="4" stroke-dasharray="none" stroke-width="3" fill="none" />
   <g id="9" transform="translate(16.655284,63.660543)">
    <title id="title3124">Sulfate metabolism</title>
    <rect id="rect4288" stroke-dasharray="none" rx="11.002" ry="11.002" height="62.527" width="112.87" stroke="#888" stroke-miterlimit="4" y="608.17" x="927.39" stroke-width="3" fill="#FFF" />
    <text id="text4238" font-size="20px" font-family="'Ubuntu, Helvetica, Arial, serif'" xml:space="preserve" style="letter-spacing:0px;word-spacing:0px;" font-style="normal" line-height="125%" font-stretch="normal" font-variant="normal" y="632.53461" x="943.76758" font-weight="normal" fill="#000000" />
    <text id="text3164" font-size="20px" font-family="'Ubuntu, Helvetica, Arial, serif'" xml:space="preserve" style="letter-spacing:0px;text-anchor:middle;word-spacing:0px;text-align:center;" font-style="normal" line-height="125%" font-stretch="normal" font-variant="normal" y="633.70679" x="984.43475" font-weight="normal" fill="#000000"><tspan id="tspan3166" y="633.70679" x="984.43475">Sulfate</tspan><tspan id="tspan3168" y="661.20679" x="984.43475">reduction</tspan></text>
   </g>
   <path id="path3927" stroke-linejoin="miter" style="marker-end:none;" d="m375.59,136.76,0,160.01c0,7.3386,8.2289,15.568,15.568,15.568h60.971" transform="translate(0,308.2677)" stroke="#888" stroke-linecap="butt" stroke-miterlimit="4" stroke-dasharray="none" stroke-width="3" fill="none" />
   <path id="path3929" stroke-linejoin="miter" d="m271.67,494.06,0,14.188c0,4.9234,5.5207,10.444,10.444,10.444h82.567c5.1556,0,10.937,5.7811,10.937,10.937v18.031" stroke="#888" stroke-linecap="butt" stroke-miterlimit="4" stroke-dasharray="none" stroke-width="3" fill="none" />
   <path id="path3931" stroke-linejoin="miter" d="m401.01,190.16-13.4,0c-5.6665,0-12.021,6.354-12.021,12.021v17.341" transform="translate(0,308.2677)" stroke="#888" stroke-linecap="butt" stroke-miterlimit="4" stroke-dasharray="none" stroke-width="3" fill="none" />
   <path id="path3933" stroke-linejoin="miter" d="m603.02,635.62,31.893,0c8.145,0,17.278-9.1332,17.278-17.278v-208.58" stroke="#888" stroke-linecap="butt" stroke-miterlimit="4" stroke-dasharray="none" stroke-width="3" fill="none" />
   <path id="path3935" stroke-linejoin="miter" d="m612.46,349.19,50.501,0c10.033,0,21.282-11.25,21.282-21.282v-156.05c0-8.5462,9.5831-18.129,18.129-18.129h62.997" transform="translate(0,308.2677)" stroke="#888" stroke-linecap="butt" stroke-miterlimit="4" stroke-dasharray="none" stroke-width="3" fill="none" />
   <path id="path3946" stroke-linejoin="miter" d="m605.76,394.12,13.006,13.006c4.0331,4.0331,4.4286,10.824,4.4286,16.528v45.348c0,5.5956-6.2745,11.87-11.87,11.87h-37.094c-6.3058,0-13.377,7.0708-13.377,13.377v107.52" transform="translate(0,308.2677)" stroke="#888" stroke-linecap="butt" stroke-miterlimit="4" stroke-dasharray="none" stroke-width="3" fill="none" />
   <path id="path3948" stroke-linejoin="miter" d="m612.46,375.2,36.199,0c7.3386,0,15.568,8.2289,15.568,15.568v103.55" transform="translate(0,308.2677)" stroke="#888" stroke-linecap="butt" stroke-miterlimit="4" stroke-dasharray="none" stroke-width="3" fill="none" />
   <g id="20" transform="translate(-25.706537,21.507028)">
    <g id="g5365" stroke-dashoffset="0" transform="matrix(1.126164,0,0,1,16.102315,-96.514984)" stroke="#888" stroke-dasharray="11.30785982, 11.30785982" stroke-miterlimit="4" stroke-width="2.82696486">
     <g id="g5946" stroke-dashoffset="0" stroke="#888" stroke-miterlimit="4" stroke-dasharray="11.30785982, 11.30785982" stroke-width="2.82696486">
      <title id="title5954">cross-feeding intermediate metabolism</title>
      <rect id="20" stroke-linejoin="round" stroke-dasharray="11.30785982, 11.30785982" stroke-dashoffset="0" ry="19.905" height="65.142" width="146.02" stroke="#888" stroke-miterlimit="4" y="499.21" x="693.79" stroke-width="2.827" fill="#FFF">
       <title id="title5351">cross-feeding intermediate metabolism</title>
      </rect>
     </g>
    </g>
    <text id="text3155" style="letter-spacing:0px;text-anchor:middle;word-spacing:0px;text-align:center;" line-height="125%" font-weight="normal" font-size="20px" font-style="normal" font-stretch="normal" font-variant="normal" y="440.11035" x="879.51965" font-family="Ubuntu, Helvetica, Arial, serif" xml:space="preserve" fill="#000000"><tspan id="tspan3157" y="440.11035" x="879.51965">Cross-feeding</tspan><tspan id="tspan3161" y="467.61035" x="879.51965" /></text>
   </g>
   <path id="path3925" stroke-linejoin="miter" d="m282.97,233.73,35.864,0c7.6173,0,16.159,8.5414,16.159,16.159v66.982c0,6.2239,6.979,13.203,13.203,13.203h90.576" transform="translate(0,308.2677)" stroke="#888" stroke-linecap="butt" stroke-miterlimit="4" stroke-dasharray="none" stroke-width="3" fill="none" />
   <g id="arrows" stroke-linejoin="miter" stroke="#777" stroke-linecap="butt" stroke-width="1px" fill="#888">
   <path id="path5815" d="m448.3,616.97,9.7614,3.6605-9.6178,3.4452c1.6994-2.4605,1.7925-4.8365-0.14355-7.1057z" />
   <path id="path5815-6" d="m434.92,634.81,9.7614,3.6605-9.6178,3.4452c1.6994-2.4605,1.7925-4.8365-0.14355-7.1057z" />
   <path id="path5815-6-4" d="m427.35,655.77,9.7614,3.6605-9.6178,3.4452c1.6994-2.4605,1.7925-4.8365-0.14355-7.1057z" />
   <path id="path5815-6-8" d="m426.48,676.58,9.7614,3.6605-9.6178,3.4452c1.6994-2.4605,1.7925-4.8365-0.14355-7.1057z" />
   <path id="path5815-6-7" d="m432.94,699.76,9.7614,3.6605-9.6178,3.4452c1.6994-2.4605,1.7925-4.8365-0.14355-7.1057z" />
   <path id="path5815-6-7-4" d="m445.91,718.88,9.7614,3.6605-9.6178,3.4452c1.6994-2.4605,1.7925-4.8365-0.14355-7.1057z" />
   <path id="path5815-6-7-9" d="m667.76,799.57-3.6605,9.7614-3.4452-9.6178c2.4605,1.6994,4.8365,1.7925,7.1057-0.14355z" />
   <path id="path5815-6-7-3" d="m564.29,907.73-3.6605,9.7614-3.4452-9.6178c2.4605,1.6994,4.8365,1.7925,7.1057-0.14355z" />
   <path id="path5815-6-7-7" d="m811.47,581.85-3.6605,9.7614-3.4452-9.6178c2.4605,1.6994,4.8365,1.7925,7.1057-0.14355z" />
   <path id="path5815-6-7-5" d="m845.62,676.69-9.7614-3.6605,9.6178-3.4452c-1.6994,2.4605-1.7925,4.8365,0.14355,7.1057z" />
   <path id="path5815-6-7-33" d="m834.22,732.83-9.7614-3.6605,9.6178-3.4452c-1.6994,2.4605-1.7925,4.8365,0.14355,7.1057z" />
   <path id="path5815-6-7-50" d="m758.99,458.25,9.7614,3.6605-9.6178,3.4452c1.6994-2.4605,1.7925-4.8365-0.14355-7.1057z" />
   <path id="path5815-6-7-52" d="m648.63,412.27,3.6605-9.7614,3.4452,9.6178c-2.4605-1.6994-4.8365-1.7925-7.1057,0.14355z" />
  </g>
<g transform="translate(880,280)"><rect x="0" y="30" width="20" height="20" fill="#E60303" /> <text x="30" y="45" font-family="Ubuntu, Helvetica, Arial, serif">Down color</text><rect x="0" y="60" width="20" height="20" fill="#278127" /> <text x="30" y="75" font-family="Ubuntu, Helvetica, Arial, serif">Up color</text><rect x="0" y="90" width="20" height="20" fill="#4a647a" /> <text x="30" y="105" font-family="Ubuntu, Helvetica, Arial, serif">Conflict color</text></g></g></svg>


