<svg width="920" height="920"><g id="circle" transform="translate(460,460)"><g class="group"><title>NA</title><path id="group0" d="M2.1431318985078682e-14,-350A350,350 0 0,1 342.25261085236065,73.2335330619968L318.7838603939131,68.21180508060273A326,326 0 0,0 1.9961742826101858e-14,-326Z" style="fill: rgb(204, 204, 204);"></path><text dy=".35em" font-family="Ubuntu, Helvetica, Arial, Sans-Serif" font-size="16" transform="rotate(-38.961130068895976)translate(355)">NA</text></g><g class="group"><title>MF0001</title><path id="group1" d="M339.05028504139284,86.86140807833057A350,350 0 0,1 336.62097074982796,95.84530270933197L313.53838989841114,89.27305338069208A326,326 0 0,0 315.8011226385545,80.90519723867362Z" style="fill: rgb(31, 120, 180);"></path><text dy=".35em" font-family="Ubuntu, Helvetica, Arial, Sans-Serif" font-size="16" transform="rotate(15.131345220807518)translate(355)">MF0001</text></g><g class="group"><title>MF0006</title><path id="group2" d="M332.51892003728744,109.22988518366232A350,350 0 0,1 329.49718607009623,118.03221751661023L306.9030933110039,109.93857974404267A326,326 0 0,0 309.717622663302,101.73983591392548Z" style="fill: rgb(255, 255, 153);"></path><text dy=".35em" font-family="Ubuntu, Helvetica, Arial, Sans-Serif" font-size="16" transform="rotate(18.94672475748318)translate(355)">MF0006</text></g><g class="group"><title>MF0005</title><path id="group3" d="M324.51359367467103,131.11417741934136A350,350 0 0,1 320.91283451509923,139.69592923018382L298.9073830054925,130.11677979725692A326,326 0 0,0 302.26123296555073,122.1234909677294Z" style="fill: rgb(255, 255, 153);"></path><text dy=".35em" font-family="Ubuntu, Helvetica, Arial, Sans-Serif" font-size="16" transform="rotate(22.762104294158817)translate(355)">MF0005</text></g><g class="group"><title>MF0003</title><path id="group4" d="M315.06979127786576,152.41727797110835A350,350 0 0,1 310.9059680623863,160.74040880621905L289.5867016809655,149.71820934522117A326,326 0 0,0 293.46500559024065,141.96580748166093Z" style="fill: rgb(255, 255, 153);"></path><text dy=".35em" font-family="Ubuntu, Helvetica, Arial, Sans-Serif" font-size="16" transform="rotate(26.577483830834467)translate(355)">MF0003</text></g><g class="group"><title>MF0042</title><path id="group5" d="M304.2293745244229,173.04475628136908A350,350 0 0,1 299.5209442915784,181.0723720800089L278.9823652544416,168.65598085166545A326,326 0 0,0 283.3679316998911,161.17883013636092Z" style="fill: rgb(227, 26, 28);"></path><text dy=".35em" font-family="Ubuntu, Helvetica, Arial, Sans-Serif" font-size="16" transform="rotate(30.392863367510117)translate(355)">MF0042</text></g><g class="group"><title>MF0037</title><path id="group6" d="M292.0403958842679,192.90517663287335A350,350 0 0,1 286.80822975989287,200.6016932680193L267.1413797192145,186.84614858678367A326,326 0 0,0 272.01476873791813,179.67739309233346Z" style="fill: rgb(227, 26, 28);"></path><text dy=".35em" font-family="Ubuntu, Helvetica, Arial, Sans-Serif" font-size="16" transform="rotate(34.20824290418574)translate(355)">MF0037</text></g><g class="group"><title>MF0036</title><path id="group7" d="M278.5568856168317,211.91050345712299A350,350 0 0,1 272.8241762983154,219.24180446973543L254.11623278071664,204.20808073466785A326,326 0 0,0 259.45584203167755,197.3794975057774Z" style="fill: rgb(227, 26, 28);"></path><text dy=".35em" font-family="Ubuntu, Helvetica, Arial, Sans-Serif" font-size="16" transform="rotate(38.0236224408614)translate(355)">MF0036</text></g><g class="group"><title>MF0035</title><path id="group8" d="M263.8386122703493,229.97649157089143A350,350 0 0,1 257.63077122003534,236.91007939842876L239.96466119351865,220.66481681110793A326,326 0 0,0 245.7468217146682,214.2066750060303Z" style="fill: rgb(227, 26, 28);"></path><text dy=".35em" font-family="Ubuntu, Helvetica, Arial, Sans-Serif" font-size="16" transform="rotate(41.83900197753704)translate(355)">MF0035</text></g><g class="group"><title>MF0034</title><path id="group9" d="M247.9508177449635,247.02305961104906A350,350 0 0,1 241.2953625483984,253.52819963987628L224.74939483079393,236.14340880742762A326,326 0 0,0 230.94847595673744,230.08433552343428Z" style="fill: rgb(227, 26, 28);"></path><text dy=".35em" font-family="Ubuntu, Helvetica, Arial, Sans-Serif" font-size="16" transform="rotate(45.65438151421267)translate(355)">MF0034</text></g><g class="group"><title>MF0033</title><path id="group10" d="M230.9639280940243,262.97464501236306A350,350 0 0,1 223.8903604823635,269.0225018155123L208.5378786207157,250.5752445481629A326,326 0 0,0 215.12640159614836,244.94209792580102Z" style="fill: rgb(227, 26, 28);"></path><text dy=".35em" font-family="Ubuntu, Helvetica, Arial, Sans-Serif" font-size="16" transform="rotate(49.46976105088831)translate(355)">MF0033</text></g><g class="group"><title>MF0032</title><path id="group11" d="M212.95324134551748,277.76053895475826A350,350 0 0,1 205.49291642278095,283.3243041111369L191.40197358236168,263.89635182923035A326,326 0 0,0 198.35073336753914,258.71410199786055Z" style="fill: rgb(227, 26, 28);"></path><text dy=".35em" font-family="Ubuntu, Helvetica, Arial, Sans-Serif" font-size="16" transform="rotate(53.285140587563944)translate(355)">MF0032</text></g><g class="group"><title>MF0031</title><path id="group12" d="M193.99859372742233,291.315199795312A350,350 0 0,1 186.18458098227805,296.3702107237729L173.4176382863504,276.04768198842845A326,326 0 0,0 180.69583301468478,271.3393003807763Z" style="fill: rgb(227, 26, 28);"></path><text dy=".35em" font-family="Ubuntu, Helvetica, Arial, Sans-Serif" font-size="16" transform="rotate(57.10052012423961)translate(355)">MF0031</text></g><g class="group"><title>MF0030</title><path id="group13" d="M174.18400577652557,303.5785435956291A350,350 0 0,1 166.05094249469542,308.1023928771462L154.66459215220203,286.9753716512847A326,326 0 0,0 162.23995966613526,282.76172917764313Z" style="fill: rgb(227, 26, 28);"></path><text dy=".35em" font-family="Ubuntu, Helvetica, Arial, Sans-Serif" font-size="16" transform="rotate(60.915899660915244)translate(355)">MF0030</text></g><g class="group"><title>MF0027</title><path id="group14" d="M153.59730989938973,314.496210456773A350,350 0 0,1 145.18124762645914,318.4688451601267L135.22596207493052,296.63098149200374A326,326 0 0,0 143.06492293486014,292.9307560254514Z" style="fill: rgb(227, 26, 28);"></path><text dy=".35em" font-family="Ubuntu, Helvetica, Arial, Sans-Serif" font-size="16" transform="rotate(64.73127919759088)translate(355)">MF0027</text></g><g class="group"><title>MF0024</title><path id="group15" d="M132.32976103639206,324.01980548116404A350,350 0 0,1 123.6680057716098,327.4236160518558L115.18791394727084,304.97171095115715A326,326 0 0,0 123.25572027961088,301.8013045338842Z" style="fill: rgb(227, 26, 28);"></path><text dy=".35em" font-family="Ubuntu, Helvetica, Arial, Sans-Serif" font-size="16" transform="rotate(68.54665873426652)translate(355)">MF0024</text></g><g class="group"><title>MF0023</title><path id="group16" d="M110.47563215464908,332.10711329333293A350,350 0 0,1 101.6065789840925,334.9270116117083L94.63927071089758,311.96058795833403A326,326 0 0,0 102.90016023547314,309.3340540960758Z" style="fill: rgb(227, 26, 28);"></path><text dy=".35em" font-family="Ubuntu, Helvetica, Arial, Sans-Serif" font-size="16" transform="rotate(72.36203827094218)translate(355)">MF0023</text></g><g class="group"><title>MF0022</title><path id="group17" d="M88.13179636289101,338.722285168617A350,350 0 0,1 79.09475926502036,340.94577143118886L73.67111862970467,317.5666328187645A326,326 0 0,0 82.08847318372133,315.49561418562615Z" style="fill: rgb(227, 26, 28);"></path><text dy=".35em" font-family="Ubuntu, Helvetica, Arial, Sans-Serif" font-size="16" transform="rotate(76.17741780761781)translate(355)">MF0022</text></g><g class="group"><title>MF0019</title><path id="group18" d="M65.39729750065109,343.8359979403136A350,350 0 0,1 56.232335078676684,345.45321606781926L52.37640353042457,321.7649955374545A326,326 0 0,0 60.91291138632074,320.2586723672635Z" style="fill: rgb(227, 26, 28);"></path><text dy=".35em" font-family="Ubuntu, Helvetica, Arial, Sans-Serif" font-size="16" transform="rotate(79.99279734429342)translate(355)">MF0019</text></g><g class="group"><title>MF0017</title><path id="group19" d="M42.372911105226024,347.42558398089886A350,350 0 0,1 33.1206490187665,348.42936530748335L30.849518800336796,324.53706597211306A326,326 0 0,0 39.46734005801052,323.6021153650658Z" style="fill: rgb(227, 26, 28);"></path><text dy=".35em" font-family="Ubuntu, Helvetica, Arial, Sans-Serif" font-size="16" transform="rotate(83.80817688096909)translate(355)">MF0017</text></g><g class="group"><title>MF0015</title><path id="group20" d="M19.1606977025145,349.47513168114386A350,350 0 0,1 9.862148585656158,349.86102673100703L9.185886968354021,325.87055632659514A326,326 0 0,0 17.846821288627794,325.51112265157974Z" style="fill: rgb(227, 26, 28);"></path><text dy=".35em" font-family="Ubuntu, Helvetica, Arial, Sans-Serif" font-size="16" transform="rotate(87.62355641764472)translate(355)">MF0015</text></g><g class="group"><title>MF0014</title><path id="group21" d="M-4.136449598131155,349.97555598173153A350,350 0 0,1 -13.440067934122338,349.74185419238313L-12.518463275782521,325.75955561919113A326,326 0 0,0 -3.85280733997359,325.97723214298423Z" style="fill: rgb(227, 26, 28);"></path><text dy=".35em" font-family="Ubuntu, Helvetica, Arial, Sans-Serif" font-size="16" text-anchor="end" transform="rotate(91.43893595432039)translate(355)rotate(180)">MF0014</text></g><g class="group"><title>MF0013</title><path id="group22" d="M-27.415261199658126,348.92463864472876A350,350 0 0,1 -36.68270847311623,348.07237594942285L-34.1673227492454,324.2045558843196A326,326 0 0,0 -25.53535757453871,324.9983777090902Z" style="fill: rgb(227, 26, 28);"></path><text dy=".35em" font-family="Ubuntu, Helvetica, Arial, Sans-Serif" font-size="16" text-anchor="end" transform="rotate(95.25431549099602)translate(355)rotate(180)">MF0013</text></g><g class="group"><title>MF0011</title><path id="group23" d="M-50.57254878192854,346.32703808640105A350,350 0 0,1 -59.76274504717232,344.85999232214033L-55.664728243937645,321.2124499914793A326,326 0 0,0 -47.10471686545344,322.57889833190495Z" style="fill: rgb(227, 26, 28);"></path><text dy=".35em" font-family="Ubuntu, Helvetica, Arial, Sans-Serif" font-size="16" text-anchor="end" transform="rotate(99.06969502767163)translate(355)rotate(180)">MF0011</text></g><g class="group"><title>MF0008</title><path id="group24" d="M-73.50566270605759,342.1942687277846A350,350 0 0,1 -82.57787044905152,340.11894288924816L-76.9153879039737,316.7965010911283A326,326 0 0,0 -68.46527440621364,318.7295188721651Z" style="fill: rgb(227, 26, 28);"></path><text dy=".35em" font-family="Ubuntu, Helvetica, Arial, Sans-Serif" font-size="16" text-anchor="end" transform="rotate(102.88507456434729)translate(355)rotate(180)">MF0008</text></g><g class="group"><title>MF0044</title><path id="group25" d="M-96.11294703093158,336.54464995454816A350,350 0 0,1 -105.02695174704517,333.87024336817416L-97.8251036272478,310.97628382292794A326,326 0 0,0 -89.52234494881056,313.4673025290934Z" style="fill: rgb(156, 30, 67);"></path><text dy=".35em" font-family="Ubuntu, Helvetica, Arial, Sans-Serif" font-size="16" text-anchor="end" transform="rotate(106.70045410102293)translate(355)rotate(180)">MF0044</text></g><g class="group"><title>MF0074</title><path id="group26" d="M-118.29419012494773,329.4032249123902A350,350 0 0,1 -127.01047857836375,326.1415924583907L-118.30118861870451,303.7775975469582A326,326 0 0,0 -110.1825885163799,306.815575204112Z" style="fill: rgb(202, 178, 214);"></path><text dy=".35em" font-family="Ubuntu, Helvetica, Arial, Sans-Serif" font-size="16" text-anchor="end" transform="rotate(110.51583363769859)translate(355)rotate(180)">MF0074</text></g><g class="group"><title>MF0073</title><path id="group27" d="M-139.95106887554255,320.80164949793067A350,350 0 0,1 -148.43100425014075,316.9672490609948L-138.25287824441682,295.23235198252655A326,326 0 0,0 -130.3544241526482,298.80382210378684Z" style="fill: rgb(202, 178, 214);"></path><text dy=".35em" font-family="Ubuntu, Helvetica, Arial, Sans-Serif" font-size="16" text-anchor="end" transform="rotate(114.33121317437423)translate(355)rotate(180)">MF0073</text></g><g class="group"><title>MF0071</title><path id="group28" d="M-160.98758452745494,310.77805203716616A350,350 0 0,1 -169.19357769277798,306.3878804187886L-157.5917323652732,285.37842576150024A326,326 0 0,0 -149.94843587414374,289.4675570403319Z" style="fill: rgb(202, 178, 214);"></path><text dy=".35em" font-family="Ubuntu, Helvetica, Arial, Sans-Serif" font-size="16" text-anchor="end" transform="rotate(118.14659271104986)translate(355)rotate(180)">MF0071</text></g><g class="group"><title>MF0066</title><path id="group29" d="M-181.31048821777767,299.3768642734958A350,350 0 0,1 -189.20616435090557,294.4503818500124L-176.23202736684345,274.25949852315443A326,326 0 0,0 -168.8777690257015,278.8481650090275Z" style="fill: rgb(202, 178, 214);"></path><text dy=".35em" font-family="Ubuntu, Helvetica, Arial, Sans-Serif" font-size="16" text-anchor="end" transform="rotate(121.9619722477255)translate(355)rotate(180)">MF0066</text></g><g class="group"><title>MF0065</title><path id="group30" d="M-200.82969432152157,286.6486244144985A350,350 0 0,1 -208.380054146268,281.2076688747987L-194.0911361476668,261.92485729481245A326,326 0 0,0 -187.0585152823315,266.99271874036145Z" style="fill: rgb(202, 178, 214);"></path><text dy=".35em" font-family="Ubuntu, Helvetica, Arial, Sans-Serif" font-size="16" text-anchor="end" transform="rotate(125.77735178440113)translate(355)rotate(180)">MF0065</text></g><g class="group"><title>MF0062</title><path id="group31" d="M-219.4586797754501,272.6497531104997A350,350 0 0,1 -226.63025470415317,266.71844265579136L-211.08989438158267,248.4291780165371A326,326 0 0,0 -204.4100845908478,253.95377004006548Z" style="fill: rgb(202, 178, 214);"></path><text dy=".35em" font-family="Ubuntu, Helvetica, Arial, Sans-Serif" font-size="16" text-anchor="end" transform="rotate(129.59273132107677)translate(355)rotate(180)">MF0062</text></g><g class="group"><title>MF0061</title><path id="group32" d="M-237.11486761009553,257.4423033579502A350,350 0 0,1 -243.87586810030336,251.0469297926653L-227.1529514305683,233.83228317831112A326,326 0 0,0 -220.85556240254613,239.7891168419765Z" style="fill: rgb(202, 178, 214);"></path><text dy=".35em" font-family="Ubuntu, Helvetica, Arial, Sans-Serif" font-size="16" text-anchor="end" transform="rotate(133.40811085775243)translate(355)rotate(180)">MF0061</text></g><g class="group"><title>MF0059</title><path id="group33" d="M-253.71999298986907,241.09368543622364A350,350 0 0,1 -260.0404494582981,234.262597623962L-242.20910435258622,218.19887664403316A326,326 0 0,0 -236.3220506134209,224.56154700631117Z" style="fill: rgb(202, 178, 214);"></path><text dy=".35em" font-family="Ubuntu, Helvetica, Arial, Sans-Serif" font-size="16" text-anchor="end" transform="rotate(137.22349039442807)translate(355)rotate(180)">MF0059</text></g><g class="group"><title>MF0057</title><path id="group34" d="M-269.20045013871373,223.67636809711013A350,350 0 0,1 -275.05234580784764,216.4398462982272L-256.19161352388096,201.59825683777734A326,326 0 0,0 -250.7409907006305,208.33855999902258Z" style="fill: rgb(202, 178, 214);"></path><text dy=".35em" font-family="Ubuntu, Helvetica, Arial, Sans-Serif" font-size="16" text-anchor="end" transform="rotate(141.03886993110373)translate(355)rotate(180)">MF0057</text></g><g class="group"><title>MF0055</title><path id="group35" d="M-283.4876186134771,205.26755733154658A350,350 0 0,1 -288.8450137019363,197.65767897941186L-269.03849847666066,184.10400956368076A326,326 0 0,0 -264.04846762283864,191.1920676859548Z" style="fill: rgb(202, 178, 214);"></path><text dy=".35em" font-family="Ubuntu, Helvetica, Arial, Sans-Serif" font-size="16" text-anchor="end" transform="rotate(144.85424946777937)translate(355)rotate(180)">MF0055</text></g><g class="group"><title>MF0052</title><path id="group36" d="M-296.51816747872857,185.94885413752A350,350 0 0,1 -301.357314184909,177.99935164842051L-280.6928126408009,165.79368182110025A326,326 0 0,0 -276.18549313733007,173.19807556809005Z" style="fill: rgb(202, 178, 214);"></path><text dy=".35em" font-family="Ubuntu, Helvetica, Arial, Sans-Serif" font-size="16" text-anchor="end" transform="rotate(148.66962900445503)translate(355)rotate(180)">MF0052</text></g><g class="group"><title>MF0049</title><path id="group37" d="M-308.23433603469977,165.80589280615985A350,350 0 0,1 -312.5337838039915,157.55200405313752L-291.10289577171784,146.74843806092238A326,326 0 0,0 -287.09826727803465,154.4363458708803Z" style="fill: rgb(202, 178, 214);"></path><text dy=".35em" font-family="Ubuntu, Helvetica, Arial, Sans-Serif" font-size="16" text-anchor="end" transform="rotate(152.48500854113067)translate(355)rotate(180)">MF0049</text></g><g class="group"><title>MF0047</title><path id="group38" d="M-318.58418985396224,144.92796132939475A350,350 0 0,1 -322.32488046292906,136.40627344282416L-300.22260294547107,127.05270040674479A326,326 0 0,0 -296.73841683540485,134.99004398109338Z" style="fill: rgb(202, 178, 214);"></path><text dy=".35em" font-family="Ubuntu, Helvetica, Arial, Sans-Serif" font-size="16" text-anchor="end" transform="rotate(156.30038807780628)translate(355)rotate(180)">MF0047</text></g><g class="group"><title>MF0045</title><path id="group39" d="M-327.52185099190416,123.40760561179744A350,350 0 0,1 -330.68720302794196,114.65589279909116L-308.0115091060259,106.79377443572491A326,326 0 0,0 -305.0632097810307,114.94536979841703Z" style="fill: rgb(202, 178, 214);"></path><text dy=".35em" font-family="Ubuntu, Helvetica, Arial, Sans-Serif" font-size="16" text-anchor="end" transform="rotate(160.11576761448194)translate(355)rotate(180)">MF0045</text></g><g class="group"><title>MF0088</title><path id="group40" d="M-335.0077013505499,101.34021924103381A350,350 0 0,1 -337.58368371255125,92.39727534437462L-314.4350882579763,86.06146217790322A326,326 0 0,0 -312.03574468651215,94.39117563593435Z" style="fill: rgb(51, 160, 44);"></path><text dy=".35em" font-family="Ubuntu, Helvetica, Arial, Sans-Serif" font-size="16" text-anchor="end" transform="rotate(163.93114715115757)translate(355)rotate(180)">MF0088</text></g><g class="group"><title>MF0086</title><path id="group41" d="M-341.0085582942677,78.82362063534664A350,350 0 0,1 -342.9837523884835,69.72908716967008L-319.464866510416,64.94766404946414A326,326 0 0,0 -317.6251142969465,73.4185723632086Z" style="fill: rgb(51, 160, 44);"></path><text dy=".35em" font-family="Ubuntu, Helvetica, Arial, Sans-Serif" font-size="16" text-anchor="end" transform="rotate(167.74652668783324)translate(355)rotate(180)">MF0086</text></g><g class="group"><title>MF0085</title><path id="group42" d="M-345.497821738912,55.95761944245811A350,350 0 0,1 -346.86347209431494,46.751809875943934L-323.07854829356194,43.54597148445064A326,326 0 0,0 -321.80654253395807,52.120525537832414Z" style="fill: rgb(51, 160, 44);"></path><text dy=".35em" font-family="Ubuntu, Helvetica, Arial, Sans-Serif" font-size="16" text-anchor="end" transform="rotate(171.5619062245089)translate(355)rotate(180)">MF0085</text></g><g class="group"><title>MF0084</title><path id="group43" d="M-348.45559206239574,32.84357411192112A350,350 0 0,1 -349.2056451411814,23.567295167908053L-325.2601151886432,21.951252070680074A326,326 0 0,0 -324.5614943209743,30.5914433156751Z" style="fill: rgb(51, 160, 44);"></path><text dy=".35em" font-family="Ubuntu, Helvetica, Arial, Sans-Serif" font-size="16" text-anchor="end" transform="rotate(175.3772857611845)translate(355)rotate(180)">MF0084</text></g><g class="group"><title>MF0083</title><path id="group44" d="M-349.8687583140286,9.583942602074586A350,350 0 0,1 -349.999889345219,0.27831337451587457L-325.99989693297545,0.259229028834786A326,326 0 0,0 -325.8777577439238,8.926757966503757Z" style="fill: rgb(51, 160, 44);"></path><text dy=".35em" font-family="Ubuntu, Helvetica, Arial, Sans-Serif" font-size="16" text-anchor="end" transform="rotate(179.19266529786012)translate(355)rotate(180)">MF0083</text></g><g class="group"><title>MF0082</title><path id="group45" d="M-349.7310563316155,-13.718171786809513A350,350 0 0,1 -349.2426840488189,-23.011902102540223L-325.2946142854713,-21.43394310122318A326,326 0 0,0 -325.74949818316185,-12.777497149999718Z" style="fill: rgb(51, 160, 44);"></path><text dy=".35em" font-family="Ubuntu, Helvetica, Arial, Sans-Serif" font-size="16" text-anchor="end" transform="rotate(183.00804483453578)translate(355)rotate(180)">MF0082</text></g><g class="group"><title>MF0081</title><path id="group46" d="M-348.04309650869743,-36.959477439995496A350,350 0 0,1 -346.9373857266958,-46.20011239300069L-323.1473935625795,-43.03210468605207A326,326 0 0,0 -324.17728417667246,-34.425113272681514Z" style="fill: rgb(51, 160, 44);"></path><text dy=".35em" font-family="Ubuntu, Helvetica, Arial, Sans-Serif" font-size="16" text-anchor="end" transform="rotate(186.82342437121144)translate(355)rotate(180)">MF0081</text></g><g class="group"><title>MF0092</title><path id="group47" d="M-344.8123610888515,-60.03695229049751A350,350 0 0,1 -343.0942131075955,-69.18353078645117L-319.5677527802175,-64.4395172468088A326,326 0 0,0 -321.1680848999017,-55.92013270486339Z" style="fill: rgb(253, 191, 111);"></path><text dy=".35em" font-family="Ubuntu, Helvetica, Arial, Sans-Serif" font-size="16" text-anchor="end" transform="rotate(190.63880390788705)translate(355)rotate(180)">MF0092</text></g><g class="group"><title>MF0099</title><path id="group48" d="M-340.05317099904306,-82.84830048646498A350,350 0 0,1 -337.73020187758965,-91.8602783564395L-314.57155946312633,-85.56128784056935A326,326 0 0,0 -316.73523927339437,-77.1672741673931Z" style="fill: rgb(166, 206, 227);"></path><text dy=".35em" font-family="Ubuntu, Helvetica, Arial, Sans-Serif" font-size="16" text-anchor="end" transform="rotate(194.45418344456272)translate(355)rotate(180)">MF0099</text></g><g class="group"><title>MF0095</title><path id="group49" d="M-333.7866223690483,-105.29240583946381A350,350 0 0,1 -330.8691291657473,-114.12983556064569L-308.18096030866747,-106.30378969362998A326,326 0 0,0 -310.8983968351707,-98.07235515332916Z" style="fill: rgb(166, 206, 227);"></path><text dy=".35em" font-family="Ubuntu, Helvetica, Arial, Sans-Serif" font-size="16" text-anchor="end" transform="rotate(198.26956298123832)translate(355)rotate(180)">MF0095</text></g><g class="group"><title>MF0094</title><path id="group50" d="M-326.04049301833936,-127.26978004364673A350,350 0 0,1 -322.541408146916,-135.89348781529068L-300.42428301684174,-126.57507722224219A326,326 0 0,0 -303.68343063993893,-118.54270941208239Z" style="fill: rgb(166, 206, 227);"></path><text dy=".35em" font-family="Ubuntu, Helvetica, Arial, Sans-Serif" font-size="16" text-anchor="end" transform="rotate(202.084942517914)translate(355)rotate(180)">MF0094</text></g><g class="group"><title>MF0093</title><path id="group51" d="M-316.8491193249475,-148.68300367898536A350,350 0 0,1 -312.7839532288077,-157.05476306867948L-291.33591072168946,-146.28529360111287A326,326 0 0,0 -295.1223225712368,-138.48759771242638Z" style="fill: rgb(166, 206, 227);"></path><text dy=".35em" font-family="Ubuntu, Helvetica, Arial, Sans-Serif" font-size="16" text-anchor="end" transform="rotate(205.90032205458965)translate(355)rotate(180)">MF0093</text></g><g class="group"><title>MF0091</title><path id="group52" d="M-306.2532440221109,-169.4371580437225A350,350 0 0,1 -301.64001642097753,-177.5198594342402L-280.95612958068193,-165.34706907303516A326,326 0 0,0 -285.25302157488045,-157.81861006358153Z" style="fill: rgb(251, 154, 153);"></path><text dy=".35em" font-family="Ubuntu, Helvetica, Arial, Sans-Serif" font-size="16" text-anchor="end" transform="rotate(209.71570159126526)translate(355)rotate(180)">MF0091</text></g><g class="group"><title>MF0110</title><path id="group53" d="M-294.2998355973797,-189.44024590185492A350,350 0 0,1 -289.1589956110242,-197.19806098748464L-269.3309501976968,-183.67590823405712A326,326 0 0,0 -274.1192754421308,-176.45005761144202Z" style="fill: rgb(106, 61, 154);"></path><text dy=".35em" font-family="Ubuntu, Helvetica, Arial, Sans-Serif" font-size="16" text-anchor="end" transform="rotate(213.53108112794092)translate(355)rotate(180)">MF0110</text></g><g class="group"><title>MF0109</title><path id="group54" d="M-281.0418800947318,-208.60359928059341A350,350 0 0,1 -275.39621559786906,-216.00213988377993L-256.511903671158,-201.1905645774636A326,326 0 0,0 -261.7704368882359,-194.2993524727813Z" style="fill: rgb(106, 61, 154);"></path><text dy=".35em" font-family="Ubuntu, Helvetica, Arial, Sans-Serif" font-size="16" text-anchor="end" transform="rotate(217.34646066461653)translate(355)rotate(180)">MF0109</text></g><g class="group"><title>MF0108</title><path id="group55" d="M-266.53814624257984,-226.84227251014994A350,350 0 0,1 -260.41268285273134,-233.84874301445961L-242.55581317140118,-217.81340063632524A326,326 0 0,0 -248.26124478594576,-211.28737382373964Z" style="fill: rgb(106, 61, 154);"></path><text dy=".35em" font-family="Ubuntu, Helvetica, Arial, Sans-Serif" font-size="16" text-anchor="end" transform="rotate(221.1618402012922)translate(355)rotate(180)">MF0108</text></g><g class="group"><title>MF0106</title><path id="group56" d="M-250.85292494879099,-244.07541876361952A350,350 0 0,1 -244.27481509487296,-250.65876148733688L-227.52454205979595,-233.4707321282052A326,326 0 0,0 -233.65158152373104,-227.33881861982846Z" style="fill: rgb(106, 61, 154);"></path><text dy=".35em" font-family="Ubuntu, Helvetica, Arial, Sans-Serif" font-size="16" text-anchor="end" transform="rotate(224.97721973796786)translate(355)rotate(180)">MF0106</text></g><g class="group"><title>MF0128</title><path id="group57" d="M-234.05574431746277,-260.22664842786276A350,350 0 0,1 -227.05414688082732,-266.35768129381904L-211.484719666142,-248.0931545765286A326,326 0 0,0 -218.0062075642653,-242.3825353928093Z" style="fill: rgb(255, 127, 0);"></path><text dy=".35em" font-family="Ubuntu, Helvetica, Arial, Sans-Serif" font-size="16" text-anchor="end" transform="rotate(228.79259927464346)translate(355)rotate(180)">MF0128</text></g><g class="group"><title>MF0127</title><path id="group58" d="M-216.22106145070447,-275.2243677168333A350,350 0 0,1 -208.82701251215062,-280.87591360821614L-194.50744593988887,-261.6158509607956A326,326 0 0,0 -201.39447437979902,-256.35183964482184Z" style="fill: rgb(255, 127, 0);"></path><text dy=".35em" font-family="Ubuntu, Helvetica, Arial, Sans-Serif" font-size="16" text-anchor="end" transform="rotate(232.60797881131913)translate(355)rotate(180)">MF0127</text></g><g class="group"><title>MF0125</title><path id="group59" d="M-197.4279324015791,-289.00209602637403A350,350 0 0,1 -189.67420766727454,-294.1491032551206L-176.66797628437573,-273.97887903191236A326,326 0 0,0 -183.8900170368994,-269.18480944170835Z" style="fill: rgb(255, 127, 0);"></path><text dy=".35em" font-family="Ubuntu, Helvetica, Arial, Sans-Serif" font-size="16" text-anchor="end" transform="rotate(236.42335834799474)translate(355)rotate(180)">MF0125</text></g><g class="group"><title>MF0124</title><path id="group60" d="M-177.75966174120944,-301.49876062373926A350,350 0 0,1 -169.6806312573507,-306.1184139775113L-158.04538797113236,-285.1274370190534A326,326 0 0,0 -165.57042779324078,-280.82455989525425Z" style="fill: rgb(255, 127, 0);"></path><text dy=".35em" font-family="Ubuntu, Helvetica, Arial, Sans-Serif" font-size="16" text-anchor="end" transform="rotate(240.23873788467046)translate(355)rotate(180)">MF0124</text></g><g class="group"><title>MF0117</title><path id="group61" d="M-157.30343329341775,-312.6589673655679A350,350 0 0,1 -148.93490909363624,-316.73078924106875L-138.72222961292974,-295.0121065502526A326,326 0 0,0 -146.51691215329768,-291.21949531764324Z" style="fill: rgb(255, 127, 0);"></path><text dy=".35em" font-family="Ubuntu, Helvetica, Arial, Sans-Serif" font-size="16" text-anchor="end" transform="rotate(244.05411742134606)translate(355)rotate(180)">MF0117</text></g><g class="group"><title>MF0116</title><path id="group62" d="M-136.14992367374688,-322.43324624429306A350,350 0 0,1 -127.52900103459662,-325.9391874186316L-118.78415524936713,-303.5890717099254A326,326 0 0,0 -126.8139289075471,-300.32353793039863Z" style="fill: rgb(255, 127, 0);"></path><text dy=".35em" font-family="Ubuntu, Helvetica, Arial, Sans-Serif" font-size="16" text-anchor="end" transform="rotate(247.86949695802167)translate(355)rotate(180)">MF0116</text></g><g class="group"><title>MF0114</title><path id="group63" d="M-114.39290034593326,-330.7782706745493A350,350 0 0,1 -105.55779335412967,-333.702790312288L-98.31954466698934,-310.82031326230253A326,326 0 0,0 -106.54881575078355,-308.09633211400876Z" style="fill: rgb(255, 127, 0);"></path><text dy=".35em" font-family="Ubuntu, Helvetica, Arial, Sans-Serif" font-size="16" text-anchor="end" transform="rotate(251.68487649469733)translate(355)rotate(180)">MF0114</text></g><g class="group"><title>MF0113</title><path id="group64" d="M-92.12880597753343,-337.65704954754614A350,350 0 0,1 -83.11867813782618,-339.98718408878364L-77.41911163694667,-316.6737771798385A326,326 0 0,0 -85.81140213907399,-314.50342329285724Z" style="fill: rgb(255, 127, 0);"></path><text dy=".35em" font-family="Ubuntu, Helvetica, Arial, Sans-Serif" font-size="16" text-anchor="end" transform="rotate(255.50025603137294)translate(355)rotate(180)">MF0113</text></g><g class="group"><title>MF0132</title><path id="group65" d="M-69.45633093713633,-343.039091202083A350,350 0 0,1 -60.31112157168332,-344.7645118262111L-56.1755018067679,-321.1235167295566A326,326 0 0,0 -64.69361110144698,-319.5164106625116Z" style="fill: rgb(20, 181, 170);"></path><text dy=".35em" font-family="Ubuntu, Helvetica, Arial, Sans-Serif" font-size="16" text-anchor="end" transform="rotate(259.31563556804866)translate(355)rotate(180)">MF0132</text></g><g class="group"><title>MF0130</title><path id="group66" d="M-46.47597582815903,-346.90053858537084A350,350 0 0,1 -37.2362230369236,-348.0135969957847L-34.68288202867741,-324.14980748750236A326,326 0 0,0 -43.28905177137098,-323.113073082374Z" style="fill: rgb(20, 181, 170);"></path><text dy=".35em" font-family="Ubuntu, Helvetica, Arial, Sans-Serif" font-size="16" text-anchor="end" transform="rotate(263.13101510472427)translate(355)rotate(180)">MF0130</text></g><g class="group"><title>MF0133</title><path id="group67" d="M-23.289605998388954,-349.2242750045303A350,350 0 0,1 -13.99626696532607,-349.7200373313421L-13.036522944846569,-325.73923477147866A326,326 0 0,0 -21.69260444421371,-325.27746757564825Z" style="fill: rgb(178, 223, 138);"></path><text dy=".35em" font-family="Ubuntu, Helvetica, Arial, Sans-Serif" font-size="16" text-anchor="end" transform="rotate(266.9463946413999)translate(355)rotate(180)">MF0133</text></g><path class="chord" d="M1.9961742826101858e-14,-326A326,326 0 0,1 8.667623320144347,-325.8847531044987Q 0,0 315.8011226385545,80.90519723867362A326,326 0 0,1 313.53838989841114,89.27305338069208Q 0,0 1.9961742826101858e-14,-326Z" style="fill: rgb(39, 129, 39);"><title>NA → MF0001</title></path><path class="chord" d="M8.667623320144347,-325.8847531044987A326,326 0 0,1 17.329118317104495,-325.53909390171833Q 0,0 309.717622663302,101.73983591392548A326,326 0 0,1 306.9030933110039,109.93857974404267Q 0,0 8.667623320144347,-325.8847531044987Z" style="fill: rgb(39, 129, 39);"><title>NA → MF0006</title></path><path class="chord" d="M17.329118317104495,-325.53909390171833A326,326 0 0,1 25.978361000642433,-324.9632667852173Q 0,0 302.26123296555073,122.1234909677294A326,326 0 0,1 298.9073830054925,130.11677979725692Q 0,0 17.329118317104495,-325.53909390171833Z" style="fill: rgb(39, 129, 39);"><title>NA → MF0005</title></path><path class="chord" d="M25.978361000642433,-324.9632667852173A326,326 0 0,1 34.609236043348865,-324.15767888559384Q 0,0 293.46500559024065,141.96580748166093A326,326 0 0,1 289.5867016809655,149.71820934522117Q 0,0 25.978361000642433,-324.9632667852173Z" style="fill: rgb(39, 129, 39);"><title>NA → MF0003</title></path><path class="chord" d="M34.609236043348865,-324.15767888559384A326,326 0 0,1 43.215641104400895,-323.1228997826301Q 0,0 283.3679316998911,161.17883013636092A326,326 0 0,1 278.9823652544416,168.65598085166545Q 0,0 34.609236043348865,-324.15767888559384Z" style="fill: rgb(39, 129, 39);"><title>NA → MF0042</title></path><path class="chord" d="M43.215641104400895,-323.1228997826301A326,326 0 0,1 51.791491144137716,-321.85966110257857Q 0,0 272.01476873791813,179.67739309233346A326,326 0 0,1 267.1413797192145,186.84614858678367Q 0,0 43.215641104400895,-323.1228997826301Z" style="fill: rgb(39, 129, 39);"><title>NA → MF0037</title></path><path class="chord" d="M51.791491144137716,-321.85966110257857A326,326 0 0,1 60.33072272640372,-320.36885600087567Q 0,0 259.45584203167755,197.3794975057774A326,326 0 0,1 254.11623278071664,204.20808073466785Q 0,0 51.791491144137716,-321.85966110257857Z" style="fill: rgb(39, 129, 39);"><title>NA → MF0036</title></path><path class="chord" d="M60.33072272640372,-320.36885600087567A326,326 0 0,1 68.82729830561716,-318.65153853064885Q 0,0 245.7468217146682,214.2066750060303A326,326 0 0,1 239.96466119351865,220.66481681110793Q 0,0 60.33072272640372,-320.36885600087567Z" style="fill: rgb(39, 129, 39);"><title>NA → MF0035</title></path><path class="chord" d="M68.82729830561716,-318.65153853064885A326,326 0 0,1 77.27521049553329,-316.70892289746274Q 0,0 230.94847595673744,230.08433552343428A326,326 0 0,1 224.74939483079393,236.14340880742762Q 0,0 68.82729830561716,-318.65153853064885Z" style="fill: rgb(39, 129, 39);"><title>NA → MF0034</title></path><path class="chord" d="M77.27521049553329,-316.70892289746274A326,326 0 0,1 85.66848631668367,-314.542382600832Q 0,0 215.12640159614836,244.94209792580102A326,326 0 0,1 208.5378786207157,250.5752445481629Q 0,0 77.27521049553329,-316.70892289746274Z" style="fill: rgb(39, 129, 39);"><title>NA → MF0033</title></path><path class="chord" d="M85.66848631668367,-314.542382600832A326,326 0 0,1 94.00119141948869,-312.1534494631072Q 0,0 198.35073336753914,258.71410199786055A326,326 0 0,1 191.40197358236168,263.89635182923035Q 0,0 85.66848631668367,-314.542382600832Z" style="fill: rgb(39, 129, 39);"><title>NA → MF0032</title></path><path class="chord" d="M94.00119141948869,-312.1534494631072A326,326 0 0,1 102.26743428005742,-309.54381254642146Q 0,0 180.69583301468478,271.3393003807763A326,326 0 0,1 173.4176382863504,276.04768198842845Q 0,0 94.00119141948869,-312.1534494631072Z" style="fill: rgb(39, 129, 39);"><title>NA → MF0031</title></path><path class="chord" d="M102.26743428005742,-309.54381254642146A326,326 0 0,1 110.46137036570799,-306.71531695846215Q 0,0 162.23995966613526,282.76172917764313A326,326 0 0,1 154.66459215220203,286.9753716512847Q 0,0 102.26743428005742,-309.54381254642146Z" style="fill: rgb(39, 129, 39);"><title>NA → MF0030</title></path><path class="chord" d="M110.46137036570799,-306.71531695846215A326,326 0 0,1 118.57720626726372,-303.66996254791286Q 0,0 143.06492293486014,292.9307560254514A326,326 0 0,1 135.22596207493052,296.63098149200374Q 0,0 110.46137036570799,-306.71531695846215Z" style="fill: rgb(39, 129, 39);"><title>NA → MF0027</title></path><path class="chord" d="M118.57720626726372,-303.66996254791286A326,326 0 0,1 126.60920379520275,-300.4099024904885Q 0,0 123.25572027961088,301.8013045338842A326,326 0 0,1 115.18791394727084,304.97171095115715Q 0,0 118.57720626726372,-303.66996254791286Z" style="fill: rgb(39, 129, 39);"><title>NA → MF0024</title></path><path class="chord" d="M126.60920379520275,-300.4099024904885A326,326 0 0,1 134.5516840367658,-296.9374417665619Q 0,0 102.90016023547314,309.3340540960758A326,326 0 0,1 94.63927071089758,311.96058795833403Q 0,0 126.60920379520275,-300.4099024904885Z" style="fill: rgb(39, 129, 39);"><title>NA → MF0023</title></path><path class="chord" d="M134.5516840367658,-296.9374417665619A326,326 0 0,1 142.39903137115274,-293.25503553145927Q 0,0 82.08847318372133,315.49561418562615A326,326 0 0,1 73.67111862970467,317.5666328187645Q 0,0 134.5516840367658,-296.9374417665619Z" style="fill: rgb(39, 129, 39);"><title>NA → MF0022</title></path><path class="chord" d="M142.39903137115274,-293.25503553145927A326,326 0 0,1 150.14569743996967,-289.36528737957684Q 0,0 60.91291138632074,320.2586723672635A326,326 0 0,1 52.37640353042457,321.7649955374545Q 0,0 142.39903137115274,-293.25503553145927Z" style="fill: rgb(39, 129, 39);"><title>NA → MF0019</title></path><path class="chord" d="M150.14569743996967,-289.36528737957684A326,326 0 0,1 157.78620507011885,-285.27094750354513Q 0,0 39.46734005801052,323.6021153650658A326,326 0 0,1 30.849518800336796,324.53706597211306Q 0,0 150.14569743996967,-289.36528737957684Z" style="fill: rgb(39, 129, 39);"><title>NA → MF0017</title></path><path class="chord" d="M157.78620507011885,-285.27094750354513A326,326 0 0,1 165.3151521463586,-280.97491074974346Q 0,0 17.846821288627794,325.51112265157974A326,326 0 0,1 9.185886968354021,325.87055632659514Q 0,0 157.78620507011885,-285.27094750354513Z" style="fill: rgb(39, 129, 39);"><title>NA → MF0015</title></path><path class="chord" d="M165.3151521463586,-280.97491074974346A326,326 0 0,1 172.72721543079336,-276.4802145715391Q 0,0 -3.85280733997359,325.97723214298423A326,326 0 0,1 -12.518463275782521,325.75955561919113Q 0,0 165.3151521463586,-280.97491074974346Z" style="fill: rgb(39, 129, 39);"><title>NA → MF0014</title></path><path class="chord" d="M172.72721543079336,-276.4802145715391A326,326 0 0,1 180.01715432659645,-271.79003688169723Q 0,0 -25.53535757453871,324.9983777090902A326,326 0 0,1 -34.1673227492454,324.2045558843196Q 0,0 172.72721543079336,-276.4802145715391Z" style="fill: rgb(39, 129, 39);"><title>NA → MF0013</title></path><path class="chord" d="M180.01715432659645,-271.79003688169723A326,326 0 0,1 187.17981458330067,-266.90769380548244Q 0,0 -47.10471686545344,322.57889833190495A326,326 0 0,1 -55.664728243937645,321.2124499914793Q 0,0 180.01715432659645,-271.79003688169723Z" style="fill: rgb(39, 129, 39);"><title>NA → MF0011</title></path><path class="chord" d="M187.17981458330067,-266.90769380548244A326,326 0 0,1 194.21013194104032,-261.83663733603765Q 0,0 -68.46527440621364,318.7295188721651A326,326 0 0,1 -76.9153879039737,316.7965010911283Q 0,0 187.17981458330067,-266.90769380548244Z" style="fill: rgb(39, 129, 39);"><title>NA → MF0008</title></path><path class="chord" d="M194.21013194104032,-261.83663733603765A326,326 0 0,1 201.10313571116578,-256.58045289370045Q 0,0 -89.52234494881056,313.4673025290934A326,326 0 0,1 -97.8251036272478,310.97628382292794Q 0,0 194.21013194104032,-261.83663733603765Z" style="fill: rgb(39, 129, 39);"><title>NA → MF0044</title></path><path class="chord" d="M201.10313571116578,-256.58045289370045A326,326 0 0,1 207.85395229070062,-251.14285679098094Q 0,0 -110.1825885163799,306.815575204112A326,326 0 0,1 -118.30118861870451,303.7775975469582Q 0,0 201.10313571116578,-256.58045289370045Z" style="fill: rgb(39, 129, 39);"><title>NA → MF0074</title></path><path class="chord" d="M207.85395229070062,-251.14285679098094A326,326 0 0,1 214.4578086081546,-245.52769360499468Q 0,0 -130.3544241526482,298.80382210378684A326,326 0 0,1 -138.25287824441682,295.23235198252655Q 0,0 207.85395229070062,-251.14285679098094Z" style="fill: rgb(39, 129, 39);"><title>NA → MF0073</title></path><path class="chord" d="M214.4578086081546,-245.52769360499468A326,326 0 0,1 220.91003549825828,-239.73893345920737Q 0,0 -149.94843587414374,289.4675570403319A326,326 0 0,1 -157.5917323652732,285.37842576150024Q 0,0 214.4578086081546,-245.52769360499468Z" style="fill: rgb(39, 129, 39);"><title>NA → MF0071</title></path><path class="chord" d="M220.91003549825828,-239.73893345920737A326,326 0 0,1 227.2060710032316,-233.7806692164142Q 0,0 -168.8777690257015,278.8481650090275A326,326 0 0,1 -176.23202736684345,274.25949852315443Q 0,0 220.91003549825828,-239.73893345920737Z" style="fill: rgb(39, 129, 39);"><title>NA → MF0066</title></path><path class="chord" d="M227.2060710032316,-233.7806692164142A326,326 0 0,1 233.34146359825303,-227.65711358493755Q 0,0 -187.0585152823315,266.99271874036145A326,326 0 0,1 -194.0911361476668,261.92485729481245Q 0,0 227.2060710032316,-233.7806692164142Z" style="fill: rgb(39, 129, 39);"><title>NA → MF0065</title></path><path class="chord" d="M233.34146359825303,-227.65711358493755A326,326 0 0,1 239.3118753388485,-221.3725961400901Q 0,0 -204.4100845908478,253.95377004006548A326,326 0 0,1 -211.08989438158267,248.4291780165371Q 0,0 233.34146359825303,-227.65711358493755Z" style="fill: rgb(39, 129, 39);"><title>NA → MF0062</title></path><path class="chord" d="M239.3118753388485,-221.3725961400901A326,326 0 0,1 245.1130849279753,-214.9315602630083Q 0,0 -220.85556240254613,239.7891168419765A326,326 0 0,1 -227.1529514305683,233.83228317831112Q 0,0 239.3118753388485,-221.3725961400901Z" style="fill: rgb(39, 129, 39);"><title>NA → MF0061</title></path><path class="chord" d="M245.1130849279753,-214.9315602630083A326,326 0 0,1 250.74099070063167,-208.3385599990212Q 0,0 -236.3220506134209,224.56154700631117A326,326 0 0,1 -242.20910435258622,218.19887664403316Q 0,0 245.1130849279753,-214.9315602630083Z" style="fill: rgb(39, 129, 39);"><title>NA → MF0059</title></path><path class="chord" d="M250.74099070063167,-208.3385599990212A326,326 0 0,1 256.1916135238821,-201.59825683777584Q 0,0 -250.7409907006305,208.33855999902258A326,326 0 0,1 -256.19161352388096,201.59825683777734Q 0,0 250.74099070063167,-208.3385599990212Z" style="fill: rgb(39, 129, 39);"><title>NA → MF0057</title></path><path class="chord" d="M256.1916135238821,-201.59825683777584A326,326 0 0,1 261.46109961024854,-194.71541641739537Q 0,0 -264.04846762283864,191.1920676859548A326,326 0 0,1 -269.03849847666066,184.10400956368076Q 0,0 256.1916135238821,-201.59825683777584Z" style="fill: rgb(39, 129, 39);"><title>NA → MF0055</title></path><path class="chord" d="M261.46109961024854,-194.71541641739537A326,326 0 0,1 266.5457232424774,-187.69490515500055Q 0,0 -276.18549313733007,173.19807556809005A326,326 0 0,1 -280.6928126408009,165.79368182110025Q 0,0 261.46109961024854,-194.71541641739537Z" style="fill: rgb(39, 129, 39);"><title>NA → MF0052</title></path><path class="chord" d="M266.5457232424774,-187.69490515500055A326,326 0 0,1 271.44188940775626,-180.5416868059768Q 0,0 -287.09826727803465,154.4363458708803A326,326 0 0,1 -291.10289577171784,146.74843806092238Q 0,0 266.5457232424774,-187.69490515500055Z" style="fill: rgb(39, 129, 39);"><title>NA → MF0049</title></path><path class="chord" d="M271.44188940775626,-180.5416868059768A326,326 0 0,1 276.1461363395183,-173.2608189544196Q 0,0 -296.73841683540485,134.99004398109338A326,326 0 0,1 -300.22260294547107,127.05270040674479Q 0,0 271.44188940775626,-180.5416868059768Z" style="fill: rgb(39, 129, 39);"><title>NA → MF0047</title></path><path class="chord" d="M276.1461363395183,-173.2608189544196A326,326 0 0,1 280.6551379650362,-165.8574494372396Q 0,0 -305.0632097810307,114.94536979841703A326,326 0 0,1 -308.0115091060259,106.79377443572491Q 0,0 276.1461363395183,-173.2608189544196Z" style="fill: rgb(39, 129, 39);"><title>NA → MF0045</title></path><path class="chord" d="M280.6551379650362,-165.8574494372396A326,326 0 0,1 284.96570625707585,-158.33681270445595Q 0,0 -312.03574468651215,94.39117563593435A326,326 0 0,1 -314.4350882579763,86.06146217790322Q 0,0 280.6551379650362,-165.8574494372396Z" style="fill: rgb(39, 129, 39);"><title>NA → MF0088</title></path><path class="chord" d="M284.96570625707585,-158.33681270445595A326,326 0 0,1 289.07479348794703,-150.7042261182505Q 0,0 -317.6251142969465,73.4185723632086A326,326 0 0,1 -319.464866510416,64.94766404946414Q 0,0 284.96570625707585,-158.33681270445595Z" style="fill: rgb(39, 129, 39);"><title>NA → MF0086</title></path><path class="chord" d="M289.07479348794703,-150.7042261182505A326,326 0 0,1 292.97949438435717,-142.9650861934005Q 0,0 -321.80654253395807,52.120525537832414A326,326 0 0,1 -323.07854829356194,43.54597148445064Q 0,0 289.07479348794703,-150.7042261182505Z" style="fill: rgb(39, 129, 39);"><title>NA → MF0085</title></path><path class="chord" d="M292.97949438435717,-142.9650861934005A326,326 0 0,1 296.67704818154436,-135.12486478174773Q 0,0 -324.5614943209743,30.5914433156751A326,326 0 0,1 -325.2601151886432,21.951252070680074Q 0,0 292.97949438435717,-142.9650861934005Z" style="fill: rgb(39, 129, 39);"><title>NA → MF0084</title></path><path class="chord" d="M296.67704818154436,-135.12486478174773A326,326 0 0,1 300.16484057523826,-127.18910520340093Q 0,0 -325.8777577439238,8.926757966503757A326,326 0 0,1 -325.99989693297545,0.259229028834786Q 0,0 296.67704818154436,-135.12486478174773Z" style="fill: rgb(39, 129, 39);"><title>NA → MF0083</title></path><path class="chord" d="M300.16484057523826,-127.18910520340093A326,326 0 0,1 303.4404055700676,-119.16341832740822Q 0,0 -325.74949818316185,-12.777497149999718A326,326 0 0,1 -325.2946142854713,-21.43394310122318Q 0,0 300.16484057523826,-127.18910520340093Z" style="fill: rgb(39, 129, 39);"><title>NA → MF0082</title></path><path class="chord" d="M303.4404055700676,-119.16341832740822A326,326 0 0,1 306.50142722310795,-111.05347860466982Q 0,0 -324.17728417667246,-34.425113272681514A326,326 0 0,1 -323.1473935625795,-43.03210468605207Q 0,0 303.4404055700676,-119.16341832740822Z" style="fill: rgb(39, 129, 39);"><title>NA → MF0081</title></path><path class="chord" d="M306.50142722310795,-111.05347860466982A326,326 0 0,1 309.34574128133744,-102.86502005589578Q 0,0 -321.1680848999017,-55.92013270486339A326,326 0 0,1 -319.5677527802175,-64.4395172468088Q 0,0 306.50142722310795,-111.05347860466982Z" style="fill: rgb(39, 129, 39);"><title>NA → MF0092</title></path><path class="chord" d="M309.34574128133744,-102.86502005589578A326,326 0 0,1 311.9713367118417,-94.60383221744615Q 0,0 -316.73523927339437,-77.1672741673931A326,326 0 0,1 -314.57155946312633,-85.56128784056935Q 0,0 309.34574128133744,-102.86502005589578Z" style="fill: rgb(39, 129, 39);"><title>NA → MF0099</title></path><path class="chord" d="M311.9713367118417,-94.60383221744615A326,326 0 0,1 314.3763571236869,-86.27575604791934Q 0,0 -310.8983968351707,-98.07235515332916A326,326 0 0,1 -308.18096030866747,-106.30378969362998Q 0,0 311.9713367118417,-94.60383221744615Z" style="fill: rgb(39, 129, 39);"><title>NA → MF0095</title></path><path class="chord" d="M314.3763571236869,-86.27575604791934A326,326 0 0,1 316.5591020804554,-77.88667979838304Q 0,0 -303.68343063993893,-118.54270941208239A326,326 0 0,1 -300.42428301684174,-126.57507722224219Q 0,0 314.3763571236869,-86.27575604791934Z" style="fill: rgb(39, 129, 39);"><title>NA → MF0094</title></path><path class="chord" d="M316.5591020804554,-77.88667979838304A326,326 0 0,1 318.5180283025156,-69.4425348491678Q 0,0 -295.1223225712368,-138.48759771242638A326,326 0 0,1 -291.33591072168946,-146.28529360111287Q 0,0 316.5591020804554,-77.88667979838304Z" style="fill: rgb(39, 129, 39);"><title>NA → MF0093</title></path><path class="chord" d="M318.5180283025156,-69.4425348491678A326,326 0 0,1 320.25175075817674,-60.94929151616663Q 0,0 -285.25302157488045,-157.81861006358153A326,326 0 0,1 -280.95612958068193,-165.34706907303516Q 0,0 318.5180283025156,-69.4425348491678Z" style="fill: rgb(39, 129, 39);"><title>NA → MF0091</title></path><path class="chord" d="M320.25175075817674,-60.94929151616663A326,326 0 0,1 321.75904364295604,-52.412954829605695Q 0,0 -274.1192754421308,-176.45005761144202A326,326 0 0,1 -269.3309501976968,-183.67590823405712Q 0,0 320.25175075817674,-60.94929151616663Z" style="fill: rgb(39, 129, 39);"><title>NA → MF0110</title></path><path class="chord" d="M321.75904364295604,-52.412954829605695A326,326 0 0,1 323.0388412462673,-43.83956028827079Q 0,0 -261.7704368882359,-194.2993524727813A326,326 0 0,1 -256.511903671158,-201.1905645774636Q 0,0 321.75904364295604,-52.412954829605695Z" style="fill: rgb(39, 129, 39);"><title>NA → MF0109</title></path><path class="chord" d="M323.0388412462673,-43.83956028827079A326,326 0 0,1 324.09023870491615,-35.235169592191305Q 0,0 -248.26124478594576,-211.28737382373964A326,326 0 0,1 -242.55581317140118,-217.81340063632524Q 0,0 323.0388412462673,-43.83956028827079Z" style="fill: rgb(39, 129, 39);"><title>NA → MF0108</title></path><path class="chord" d="M324.09023870491615,-35.235169592191305A326,326 0 0,1 324.91249264287165,-26.605866356799172Q 0,0 -233.65158152373104,-227.33881861982846A326,326 0 0,1 -227.52454205979595,-233.4707321282052Q 0,0 324.09023870491615,-35.235169592191305Z" style="fill: rgb(39, 129, 39);"><title>NA → MF0106</title></path><path class="chord" d="M324.91249264287165,-26.605866356799172A326,326 0 0,1 325.5050216968599,-17.957751811592672Q 0,0 -218.0062075642653,-242.3825353928093A326,326 0 0,1 -211.484719666142,-248.0931545765286Q 0,0 324.91249264287165,-26.605866356799172Z" style="fill: rgb(39, 129, 39);"><title>NA → MF0128</title></path><path class="chord" d="M325.5050216968599,-17.957751811592672A326,326 0 0,1 325.86740692740864,-9.296940486346486Q 0,0 -201.39447437979902,-256.35183964482184A326,326 0 0,1 -194.50744593988887,-261.6158509607956Q 0,0 325.5050216968599,-17.957751811592672Z" style="fill: rgb(39, 129, 39);"><title>NA → MF0127</title></path><path class="chord" d="M325.86740692740864,-9.296940486346486A326,326 0 0,1 325.99939211505284,-0.6295558879180194Q 0,0 -183.8900170368994,-269.18480944170835A326,326 0 0,1 -176.66797628437573,-273.97887903191236Q 0,0 325.86740692740864,-9.296940486346486Z" style="fill: rgb(39, 129, 39);"><title>NA → MF0125</title></path><path class="chord" d="M325.99939211505284,-0.6295558879180194A326,326 0 0,1 325.90088394149114,8.038273829293436Q 0,0 -165.57042779324078,-280.82455989525425A326,326 0 0,1 -158.04538797113236,-285.1274370190534Q 0,0 325.99939211505284,-0.6295558879180194Z" style="fill: rgb(39, 129, 39);"><title>NA → MF0124</title></path><path class="chord" d="M325.90088394149114,8.038273829293436A326,326 0 0,1 325.5719520555652,16.700420196173507Q 0,0 -146.51691215329768,-291.21949531764324A326,326 0 0,1 -138.72222961292974,-295.0121065502526Q 0,0 325.90088394149114,8.038273829293436Z" style="fill: rgb(39, 129, 39);"><title>NA → MF0117</title></path><path class="chord" d="M325.5719520555652,16.700420196173507A326,326 0 0,1 325.01282902401533,25.350758761942075Q 0,0 -126.8139289075471,-300.32353793039863A326,326 0 0,1 -118.78415524936713,-303.5890717099254Q 0,0 325.5719520555652,16.700420196173507Z" style="fill: rgb(39, 129, 39);"><title>NA → MF0116</title></path><path class="chord" d="M325.01282902401533,25.350758761942075A326,326 0 0,1 324.2239101670476,33.98317342436146Q 0,0 -106.54881575078355,-308.09633211400876A326,326 0 0,1 -98.31954466698934,-310.82031326230253Q 0,0 325.01282902401533,25.350758761942075Z" style="fill: rgb(39, 129, 39);"><title>NA → MF0114</title></path><path class="chord" d="M324.2239101670476,33.98317342436146A326,326 0 0,1 323.2057532788282,42.591560754041964Q 0,0 -85.81140213907399,-314.50342329285724A326,326 0 0,1 -77.41911163694667,-316.6737771798385Q 0,0 324.2239101670476,33.98317342436146Z" style="fill: rgb(39, 129, 39);"><title>NA → MF0113</title></path><path class="chord" d="M323.2057532788282,42.591560754041964A326,326 0 0,1 321.95907823310233,51.169834309787134Q 0,0 -64.69361110144698,-319.5164106625116A326,326 0 0,1 -56.1755018067679,-321.1235167295566Q 0,0 323.2057532788282,42.591560754041964Z" style="fill: rgb(39, 129, 39);"><title>NA → MF0132</title></path><path class="chord" d="M321.95907823310233,51.169834309787134A326,326 0 0,1 320.48476647421813,59.7119289419279Q 0,0 -43.28905177137098,-323.113073082374A326,326 0 0,1 -34.68288202867741,-324.14980748750236Q 0,0 321.95907823310233,51.169834309787134Z" style="fill: rgb(39, 129, 39);"><title>NA → MF0130</title></path><path class="chord" d="M320.48476647421813,59.7119289419279A326,326 0 0,1 318.7838603939131,68.21180508060273Q 0,0 -21.69260444421371,-325.27746757564825A326,326 0 0,1 -13.036522944846569,-325.73923477147866Q 0,0 320.48476647421813,59.7119289419279Z" style="fill: rgb(39, 129, 39);"><title>NA → MF0133</title></path></g></svg>