<?xml version="1.0" encoding="utf-8"?>
<!-- Generator: Adobe Illustrator 14.0.0, SVG Export Plug-In . SVG Version: 6.00 Build 43363)  -->
<!DOCTYPE svg PUBLIC "-//W3C//DTD SVG 1.1//EN" "http://www.w3.org/Graphics/SVG/1.1/DTD/svg11.dtd">
<svg version="1.1"
	 id="egg_2_0" xmlns:rdf="http://www.w3.org/1999/02/22-rdf-syntax-ns#" xmlns:dc="http://purl.org/dc/elements/1.1/" xmlns:cc="http://creativecommons.org/ns#"
	 xmlns="http://www.w3.org/2000/svg" xmlns:xlink="http://www.w3.org/1999/xlink" x="0px" y="0px" width="612px" height="792px"
	 viewBox="0 0 612 792" enable-background="new 0 0 612 792" xml:space="preserve">
<path id="path3775" fill="none" stroke="#000000" stroke-width="5.359" stroke-linecap="round" stroke-linejoin="round" d="
	M574.968,220.447c0,96.842-126.566,175.348-282.698,175.348c-156.128,0-282.698-78.5-282.698-175.348
	c0-96.842,126.57-175.348,282.698-175.348c57.992,0,111.903,10.831,156.769,29.41c75.918,31.439,125.924,85.066,125.924,145.94
	L574.968,220.447z"/>
<title  id="title4109">CO2 metabolism</title>
<path id="rect4343-1-3_1_" fill="none" d="M403.669,46.359h25.616c3.209,0,5.811,2.602,5.811,5.811v11.844
	c0,3.209-2.602,5.811-5.811,5.811h-25.616c-3.209,0-5.811-2.602-5.811-5.811V52.17C397.858,48.961,400.46,46.359,403.669,46.359z"/>
<title  id="title4113">Hydrogen metabolism</title>
<path id="rect4343-1-8" fill="#FFFFFF" stroke="#000000" stroke-width="3" stroke-linecap="round" stroke-linejoin="round" d="
	M544.807,148.99h21.933c3.17,0,5.737,2.57,5.737,5.74v9.573c0,3.17-2.567,5.74-5.737,5.74h-21.933c-3.17,0-5.737-2.57-5.737-5.74
	v-9.573C539.066,151.561,541.637,148.99,544.807,148.99z"/>
<text transform="matrix(1 0 0 1 551.5713 162.6104)" font-family="'ArialMT'" font-size="11.6306">H</text>
<text transform="matrix(1 0 0 1 559.9707 164.9365)" font-family="'ArialMT'" font-size="7.56">2</text>
<title  id="title3126">Methane metabolism</title>
<path id="rect4343-1-9" fill="#FFFFFF" stroke="#000000" stroke-width="3" stroke-linecap="round" stroke-linejoin="round" d="
	M558.136,181.272h24.442c3.533,0,6.396,2.865,6.396,6.398v10.669c0,3.533-2.861,6.398-6.396,6.398h-24.442
	c-3.533,0-6.396-2.865-6.396-6.398V187.67C551.738,184.137,554.604,181.272,558.136,181.272z"/>
<text transform="matrix(1 0 0 1 560.5684 195.3242)" font-family="'ArialMT'" font-size="11.6306">CH</text>
<text transform="matrix(1 0 0 1 577.3662 197.6504)" font-family="'ArialMT'" font-size="7.56">4</text>
<title  id="title3958">#Energy storage</title>
<path id="rect3057" fill="#FFFFFF" stroke="#000000" stroke-width="3" stroke-linejoin="round" d="M270.686,362.579h88.117
	c3.569,0,6.462,2.893,6.462,6.462v7.636c0,3.569-2.893,6.462-6.462,6.462h-88.117c-3.569,0-6.462-2.893-6.462-6.462v-7.636
	C264.224,365.472,267.117,362.579,270.686,362.579z"/>
<text transform="matrix(0.9436 0 0 1 273.0771 378.3428)" font-family="'ArialMT'" font-size="12.3255">Energy storage</text>
<title  id="title4121">Butyrate production</title>
<path id="rect3059" fill="#0477BE" stroke="#000000" stroke-width="3" stroke-linejoin="round" d="M402.813,241.755h56.981
	c2.92,0,5.287,2.367,5.287,5.287v8.811c0,2.92-2.367,5.287-5.287,5.287h-56.981c-2.921,0-5.285-2.367-5.285-5.287v-8.811
	C397.524,244.123,399.892,241.755,402.813,241.755z"/>
<text transform="matrix(1.0117 0 0 1 406.3242 255.2559)" font-family="'ArialMT'" font-size="11.6306">Butyrate</text>
<title  id="title4123">Acetate production</title>
<path id="rect3063" fill="#FFFFFF" stroke="#000000" stroke-width="3" stroke-linejoin="round" d="M414.55,208.844h49.934
	c3.896,0,7.052,3.156,7.052,7.049v5.287c0,3.893-3.155,7.049-7.052,7.049H414.55c-3.894,0-7.05-3.156-7.05-7.049v-5.287
	C407.5,212,410.656,208.844,414.55,208.844z"/>
<text transform="matrix(1 0 0 1 416.4766 222.8887)" font-family="'ArialMT'" font-size="11.6306">Acetate</text>
<title  id="titlepropionate">Propionate production</title>
<path id="rect3061" fill="#0477BE" stroke="#000000" stroke-width="3" stroke-linejoin="round" d="M424.237,173h55.355
	c4.632,0,8.39,3.755,8.39,8.387v5.033c0,4.632-3.758,8.387-8.39,8.387h-55.355c-4.632,0-8.39-3.755-8.39-8.387v-5.033
	C415.851,176.755,419.605,173,424.237,173z"/>
<text transform="matrix(1 0 0 1 421.8896 186.3887)" font-family="'ArialMT'" font-size="11.6306">Propionate</text>
<path id="path3947" fill="none" stroke="#888888" stroke-width="3" d="M510.093,112.824v123.883c0,6.926-7.767,14.692-14.689,14.692
	h-24.244"/>
<path id="path3949" fill="none" stroke="#888888" stroke-width="3" d="M498.084,112.155v95.83c0,5.037-5.648,10.685-10.685,10.685
	h-10.704"/>
<path id="path3951" fill="none" stroke="#888888" stroke-width="3" d="M457.034,111.817v55.129"/>
<title  id="title4127">Monosaccharide degradation</title>
<path id="path3899" fill="#FFFFFF" stroke="#000000" stroke-width="3" stroke-linejoin="round" d="M348.155,112.824
	c0.34,7.786-28.577,14.158-64.589,14.231c-36.011,0.074-65.479-6.179-65.819-13.965c-0.004-0.089-0.004-0.177,0-0.266
	c-0.34-7.786,28.577-14.158,64.588-14.231c36.011-0.074,65.479,6.179,65.82,13.965C348.159,112.646,348.159,112.735,348.155,112.824
	z"/>
<text transform="matrix(1 0 0 1 242.3174 114.6377)" font-family="'ArialMT'" font-size="11.6306">Monosaccharides</text>
<title  id="title4125">Disaccharide degradation</title>
<path id="path3899-4_1_" fill="#F5EB28" d="M198.723,103.014c0.235,6.193-22.798,11.256-51.444,11.307
	c-28.647,0.051-52.06-4.929-52.294-11.123c-0.002-0.063-0.002-0.123,0-0.184c-0.234-6.194,22.798-11.256,51.445-11.307
	s52.06,4.929,52.294,11.123C198.726,102.891,198.726,102.952,198.723,103.014z"/>
<path d="M146.84,115.821c-26.277,0-53.042-4.316-53.354-12.566c-0.002-0.085-0.003-0.162-0.001-0.237
	c-0.03-1.207,0.475-2.36,1.502-3.429c5.268-5.48,26.421-9.338,51.441-9.382h0.437c26.28,0,53.047,4.317,53.359,12.567
	c0.002,0.085,0.003,0.166,0.001,0.246c0.027,1.203-0.478,2.353-1.502,3.418c-5.267,5.48-26.42,9.338-51.441,9.383H146.84
	L146.84,115.821z M146.864,93.207h-0.432c-26.773,0.047-45.374,4.395-49.283,8.461c-0.456,0.475-0.68,0.908-0.666,1.289
	c0.001,0.035,0.001,0.07,0,0.104c0.153,4.122,19.384,9.759,50.356,9.759h0.436c26.774-0.047,45.375-4.395,49.283-8.462
	c0.456-0.474,0.68-0.907,0.665-1.288c-0.001-0.042-0.001-0.085,0-0.127C197.073,98.845,177.84,93.207,146.864,93.207L146.864,93.207
	z"/>
<text transform="matrix(1 0 0 1 111.5571 108.4326)" font-family="'ArialMT'" font-size="11.6306">Disaccharides</text>
<title  id="title4129">Polysaccharide degradation</title>
<path id="path3945" fill="#FFFFFF" stroke="#000000" stroke-width="3" stroke-linejoin="round" d="M298.115,74.438
	c0,7.041-28.085,12.748-62.731,12.748s-62.731-5.707-62.731-12.748s28.085-12.748,62.731-12.748S298.115,67.397,298.115,74.438z"/>
<text transform="matrix(1 0 0 1 191.0186 78.5625)" font-family="'ArialMT'" font-size="11.6306">Polysaccharides</text>
<title  id="title4135">Sugar acid degradation</title>
<path id="path3899-4-2_1_" fill="none" d="M151.884,143.163c0.234,6.194-22.798,11.256-51.445,11.307
	c-28.646,0.05-52.06-4.93-52.294-11.124c-0.002-0.061-0.002-0.123,0-0.184c-0.235-6.194,22.798-11.256,51.444-11.307
	s52.06,4.929,52.294,11.123C151.886,143.04,151.886,143.102,151.884,143.163z"/>
<title  id="title3130">Mucus degradation</title>
<path id="path5764_1_" fill="none" d="M203.641,334.276c0,10.563-20.614,19.125-46.042,19.125c-25.428,0-46.042-8.563-46.042-19.125
	c0-10.563,20.613-19.125,46.042-19.125C183.026,315.151,203.641,323.713,203.641,334.276z"/>
<path fill="#231F20" d="M157.599,354.901c-26.659,0-47.542-9.06-47.542-20.625s20.883-20.625,47.542-20.625
	c26.659,0,47.542,9.06,47.542,20.625S184.258,354.901,157.599,354.901L157.599,354.901z M157.599,316.651
	c-24.144,0-44.542,8.071-44.542,17.625c0,9.554,20.398,17.625,44.542,17.625s44.542-8.071,44.542-17.625
	C202.141,324.722,181.743,316.651,157.599,316.651L157.599,316.651z"/>
<text transform="matrix(1 0 0 1 138.3096 331.623)" font-family="'ArialMT'" font-size="11.6306">Mucus</text>
<text transform="matrix(1 0 0 1 127.6523 341.4258)" font-family="'ArialMT'" font-size="11.6306">Degradation</text>
<title  id="title4139">Lipolytic fermentation</title>
<path id="path5760" fill="#FFFFFF" stroke="#000000" stroke-width="3" d="M164.605,287.506c0,9.65-24.948,17.472-55.722,17.472
	c-30.774,0-55.722-7.823-55.722-17.472c0-9.65,24.947-17.472,55.722-17.472C139.658,270.034,164.605,277.857,164.605,287.506
	L164.605,287.506z"/>
<text transform="matrix(1 0 0 1 85.4111 282.9004)" font-family="'ArialMT'" font-size="11.6306">Lipolytic</text>
<text transform="matrix(1 0 0 1 72.1592 298.8926)" font-family="'ArialMT'" font-size="11.6306">Fermentation</text>
<title  id="title4133">Proteolytic fermentation</title>
<path id="path5762_1_" fill="#F5EB28" d="M127.652,238.419c0,11.454-24.719,20.739-55.211,20.739
	c-30.493,0-55.211-9.285-55.211-20.739s24.719-20.74,55.211-20.74C102.933,217.679,127.652,226.965,127.652,238.419L127.652,238.419
	z"/>
<path d="M72.441,260.658c-31.8,0-56.711-9.769-56.711-22.239c0-12.471,24.911-22.24,56.711-22.24c31.8,0,56.711,9.771,56.711,22.24
	C129.152,250.889,104.242,260.658,72.441,260.658L72.441,260.658z M72.441,219.179c-29.114,0-53.711,8.811-53.711,19.24
	c0,10.429,24.597,19.239,53.711,19.239c29.114,0,53.711-8.81,53.711-19.239C126.152,227.99,101.556,219.179,72.441,219.179
	L72.441,219.179z"/>
<text transform="matrix(1 0 0 1 45.2163 234.6436)" font-family="'ArialMT'" font-size="11.6306">Proteolytic</text>
<text transform="matrix(1 0 0 1 38.1035 250.6357)" font-family="'ArialMT'" font-size="11.6306">Fermentation</text>
<g id="_x32_3" transform="translate(108.46166,28.814247)">
	<title  id="title4117">Oxidative stress</title>
	<path id="path4250" fill="none" stroke="#000000" stroke-width="3" d="M418.314,257.009l-3.084,2.985l4.291,0.094l-3.513,2.466
		l4.224,0.764l-3.854,1.886l4.052,1.416l-4.104,1.26l3.78,2.032l-4.25,0.603l3.417,2.598l-4.292-0.069l2.968,3.101l-4.228-0.74
		l2.445,3.527l-4.063-1.393l1.864,3.866l-3.792-2.01l1.236,4.11l-3.435-2.579l0.578,4.253l-2.984-3.084l-0.095,4.292l-2.467-3.513
		l-0.764,4.224l-1.89-3.855l-1.415,4.052l-1.261-4.103l-2.031,3.781l-0.603-4.25l-2.601,3.417l0.068-4.292l-3.101,2.968l0.738-4.228
		l-3.525,2.446l1.393-4.06l-3.865,1.864l2.013-3.792l-4.11,1.237l2.578-3.431l-4.253,0.578l3.084-2.985l-4.291-0.094l3.513-2.466
		l-4.224-0.764l3.854-1.886l-4.053-1.416l4.104-1.26l-3.781-2.032l4.25-0.603l-3.416-2.598l4.291,0.069l-2.968-3.101l4.229,0.74
		l-2.445-3.527l4.062,1.393l-1.864-3.866l3.793,2.011l-1.233-4.11l3.431,2.579l-0.578-4.253l2.985,3.084l0.094-4.292l2.467,3.513
		l0.768-4.224l1.886,3.855l1.416-4.052l1.26,4.104l2.032-3.781l0.603,4.25l2.602-3.416l-0.07,4.292l3.102-2.968l-0.737,4.228
		l3.523-2.446l-1.393,4.06l3.867-1.864l-2.014,3.792l4.11-1.236l-2.579,3.431L418.314,257.009z"/>
	<text transform="matrix(1 0 0 1 387.0774 270.9396)" font-family="'ArialMT'" font-size="11.6306">ROS</text>
</g>
<g id="_x32_2" transform="translate(40.144935,72.348487)">
	<title  id="title4115">Nitrate metabolism</title>
	<path id="path4250-6" fill="none" stroke="#000000" stroke-width="3" d="M446.903,238.791l-3.084,2.985l4.291,0.094l-3.514,2.466
		l4.225,0.764l-3.854,1.886l4.053,1.416l-4.104,1.26l3.781,2.032l-4.25,0.603l3.416,2.598l-4.292-0.069l2.968,3.101l-4.228-0.74
		l2.446,3.527l-4.063-1.393l1.864,3.866l-3.792-2.01l1.233,4.11l-3.431-2.579l0.578,4.253l-2.985-3.084l-0.095,4.292l-2.466-3.513
		l-0.766,4.224l-1.888-3.855l-1.416,4.052l-1.26-4.103l-2.032,3.781l-0.603-4.25l-2.602,3.417l0.069-4.292l-3.101,2.968l0.737-4.228
		l-3.524,2.446l1.393-4.06l-3.866,1.864l2.014-3.792l-4.11,1.237l2.579-3.431l-4.253,0.578l3.084-2.985l-4.292-0.094l3.514-2.466
		l-4.224-0.764l3.854-1.886l-4.053-1.416l4.104-1.26l-3.78-2.032l4.249-0.603l-3.416-2.598l4.292,0.069l-2.968-3.101l4.228,0.74
		l-2.446-3.527l4.063,1.393l-1.864-3.866l3.792,2.011l-1.236-4.11l3.435,2.579l-0.579-4.253l2.986,3.084l0.094-4.292l2.466,3.513
		l0.765-4.224l1.89,3.855l1.415-4.052l1.26,4.104l2.032-3.781l0.603,4.25l2.602-3.416l-0.069,4.292l3.101-2.968l-0.737,4.228
		l3.524-2.446l-1.393,4.06l3.866-1.864l-2.014,3.792l4.11-1.236l-2.579,3.431L446.903,238.791z"/>
	<text transform="matrix(1 0 0 1 415.6656 252.7218)" font-family="'ArialMT'" font-size="11.6306">RNS</text>
</g>
<title  id="title4111">Acetogenesis</title>
<path id="rect4290" fill="#FFFFFF" stroke="#000000" stroke-width="3" d="M524.039,118.241h72.678c3.533,0,6.397,2.864,6.397,6.398
	v6.565c0,3.534-2.864,6.398-6.397,6.398h-72.678c-3.533,0-6.397-2.864-6.397-6.398v-6.565
	C517.642,121.105,520.506,118.241,524.039,118.241z"/>
<text transform="matrix(1 0 0 1 522.917 130.5498)" font-family="'ArialMT'" font-size="11.6306">Acetogenesis</text>
<title  id="title3128">Ethanol production</title>
<path id="rect5754" fill="#F5EB28" stroke="#000000" stroke-width="3" d="M349.28,299.636h47.645c2.36,0,4.274,1.811,4.274,4.045
	v6.654c0,2.234-1.914,4.045-4.274,4.045H349.28c-2.36,0-4.274-1.811-4.274-4.045v-6.654
	C345.005,301.447,346.919,299.636,349.28,299.636z"/>
<text transform="matrix(1.0569 0 0 1 352.1289 311.3799)" font-family="'ArialMT'" font-size="11.0049">Ethanol</text>
<title  id="title6752">central metabolism</title>
<path id="path3917_1_" fill="#F5EB28" d="M343.353,218.638c0,24.789-22.591,44.885-50.458,44.885
	c-27.868,0-50.459-20.095-50.459-44.885c0-24.789,22.592-44.885,50.459-44.885C320.763,173.752,343.353,193.848,343.353,218.638z"/>
<path d="M292.895,265.023c-28.65,0-51.959-20.808-51.959-46.385c0-25.577,23.309-46.385,51.959-46.385
	c13.846,0,26.871,4.803,36.676,13.525c9.854,8.766,15.279,20.436,15.279,32.86C344.853,244.215,321.545,265.023,292.895,265.023
	L292.895,265.023z M292.895,175.253c-26.996,0-48.959,19.462-48.959,43.385c0,23.922,21.963,43.385,48.959,43.385
	c26.996,0,48.958-19.462,48.958-43.385c0-11.556-5.067-22.429-14.273-30.619C318.322,179.787,306.005,175.252,292.895,175.253
	L292.895,175.253z"/>
<text transform="matrix(1 0 0 1 268.8535 213.3418)" font-family="'Arial-BoldMT'" font-size="13.9567">Central</text>
<text transform="matrix(1 0 0 1 254.5083 230.7881)" font-family="'Arial-BoldMT'" font-size="13.9567">Metabolism</text>
<title  id="title4137">Sugar alcohol degradation</title>
<g>
	<path id="path3899-4-2-7_1_" fill="#FFFFFF" d="M134.608,175.081c0.234,6.194-22.798,11.256-51.445,11.307
		c-28.646,0.051-52.06-4.93-52.294-11.123c-0.002-0.062-0.002-0.123,0-0.184c-0.235-6.194,22.798-11.256,51.444-11.307
		c28.647-0.051,52.06,4.929,52.294,11.123C134.61,174.958,134.61,175.02,134.608,175.081z"/>
	<path fill="#231F20" d="M82.729,187.582c-25.493,0-52.75-4.301-53.052-12.272c-0.003-0.095-0.003-0.181,0-0.267
		c-0.043-1.056,0.433-2.152,1.416-3.173c5.213-5.425,26.275-9.244,51.22-9.289h0.436c25.494,0,52.75,4.301,53.052,12.272
		c0.004,0.081,0.004,0.175,0.001,0.267c0.042,1.056-0.434,2.152-1.416,3.174c-5.214,5.424-26.276,9.244-51.22,9.289L82.729,187.582
		L82.729,187.582z M82.747,164.967h-0.432c-27.147,0.048-45.452,4.341-49.503,8.556c-0.516,0.537-0.768,1.046-0.75,1.513v0.192
		c0.154,4.069,18.286,9.968,50.667,9.968h0.432c27.147-0.048,45.452-4.341,49.504-8.556c0.516-0.537,0.769-1.046,0.751-1.513
		c0-0.004-0.001-0.18-0.001-0.184C133.26,170.865,115.129,164.967,82.747,164.967L82.747,164.967z"/>
</g>
<text transform="matrix(1 0 0 1 43.2236 178.5742)" font-family="'ArialMT'" font-size="11.6306">Sugar alcohol</text>
<title  id="title3956">Ammonia production</title>
<path id="rect4343-1-8-5" fill="#F5EB28" stroke="#000000" stroke-width="3" stroke-linecap="round" stroke-linejoin="round" d="
	M354.442,36.228h24.438c3.533,0,6.397,2.865,6.397,6.398v10.669c0,3.534-2.864,6.398-6.397,6.398h-24.438
	c-3.534,0-6.398-2.864-6.398-6.398V42.626C348.044,39.093,350.908,36.228,354.442,36.228z"/>
<text transform="matrix(1 0 0 1 358.376 49.3838)" font-family="'ArialMT'" font-size="11.6306">NH</text>
<text transform="matrix(1 0 0 1 375.1738 51.709)" font-family="'ArialMT'" font-size="7.56">3</text>
<path id="path3329" fill="none" stroke="#88888F" stroke-width="3" stroke-opacity="0.9412" d="M203.72,334.268h14.45
	c5.807,0,12.319-6.512,12.319-12.319V257.76c0-4.825,5.41-10.235,10.235-10.235h6.943"/>
<path id="path3329-2" fill="none" stroke="#88888F" stroke-width="3" stroke-opacity="0.9412" d="M165.089,287.579h14.45
	c5.808,0,12.319-6.512,12.319-12.319v-28.622c0-4.825,5.41-10.235,10.235-10.235h38.358"/>
<path id="path4815" fill="none" stroke="#888888" stroke-width="3" d="M127.587,238.624h37.463c2.709,0,7.037-2.926,7.037-5.635
	v-3.511c0-3.345,5.345-6.589,8.689-6.589h56.015"/>
<path id="path5021" fill="none" stroke="#888888" stroke-width="3" d="M76.436,187.079v16.4c0,3.454,3.873,7.327,7.327,7.327H237.6"
	/>
<title  id="title3124">Sulfate metabolism</title>
<g>
	<path id="rect4288_1_" fill="#FFFFFF" d="M542.546,218.017h52.842c3.533,0,6.397,2.864,6.397,6.398v23.565
		c0,3.534-2.864,6.398-6.397,6.398h-52.842c-3.532,0-6.396-2.864-6.396-6.398v-23.565
		C536.148,220.88,539.013,218.017,542.546,218.017z"/>
	<path fill="#231F20" d="M595.388,255.877h-52.842c-4.354,0-7.896-3.543-7.896-7.898v-23.565c-0.001-2.109,0.818-4.093,2.313-5.585
		c1.491-1.492,3.475-2.313,5.584-2.313h52.842c4.354,0,7.897,3.543,7.897,7.898v23.565
		C603.285,252.334,599.742,255.877,595.388,255.877L595.388,255.877z M542.546,219.517c-1.309,0-2.538,0.509-3.463,1.434
		c-0.925,0.925-1.434,2.155-1.434,3.463v23.565c0,2.701,2.194,4.898,4.896,4.898h52.842c2.7,0,4.897-2.197,4.897-4.898v-23.565
		c0-2.701-2.197-4.898-4.897-4.898L542.546,219.517L542.546,219.517z"/>
</g>
<text transform="matrix(1 0 0 1 551.2168 232.8662)" font-family="'ArialMT'" font-size="11.6306">Sulfate</text>
<text transform="matrix(1 0 0 1 545.3984 248.8594)" font-family="'ArialMT'" font-size="11.6306">reduction</text>
<path id="path3927" fill="none" stroke="#888888" stroke-width="3" d="M205.576,86.124v93.05c0,4.268,4.785,9.053,9.053,9.053
	h35.456"/>
<path id="path3929" fill="none" stroke="#888888" stroke-width="3" d="M145.143,114.638v8.251c0,2.863,3.21,6.073,6.074,6.073
	h48.015c2.998,0,6.36,3.362,6.36,6.36v10.485"/>
<path id="path3931" fill="none" stroke="#888888" stroke-width="3" d="M220.358,117.178h-7.792c-3.295,0-6.991,3.695-6.991,6.991
	v10.084"/>
<path id="path3933" fill="none" stroke="#888888" stroke-width="3" d="M337.832,196.959h18.547c4.736,0,10.048-5.311,10.048-10.048
	V65.616"/>
<path id="path3935" fill="none" stroke="#888888" stroke-width="3" d="M343.322,209.658h29.367c5.835,0,12.376-6.542,12.376-12.376
	v-90.748c0-4.97,5.57-10.542,10.543-10.542h36.635"/>
<path id="path3946" fill="none" stroke="#888888" stroke-width="3" d="M339.426,235.786l7.563,7.563
	c2.345,2.345,2.575,6.294,2.575,9.611v26.371c0,3.254-3.648,6.903-6.902,6.903h-21.571c-3.667,0-7.778,4.112-7.778,7.779v62.526"/>
<path id="path3948" fill="none" stroke="#888888" stroke-width="3" d="M343.322,224.784h21.051c4.268,0,9.053,4.786,9.053,9.053
	v60.217"/>
<title  id="title5954">cross-feeding intermediate metabolism</title>
<path id="_x32_0_1_" fill="#FFFFFF" d="M448.97,74.014h69.558c7.198,0,13.035,5.182,13.035,11.575v14.731
	c0,6.393-5.837,11.575-13.035,11.575H448.97c-7.2,0-13.036-5.183-13.036-11.575V85.589C435.936,79.196,441.771,74.014,448.97,74.014
	z">
<title  id="title5351">cross-feeding intermediate metabolism</title>
</path>
<path d="M518.525,113.309h-1.393v-2.827h1.393c3.092,0,6.003-1.051,8.195-2.961l1.855,2.133
	C525.869,112.01,522.3,113.309,518.525,113.309L518.525,113.309z M505.827,113.309H494.52v-2.827h11.31L505.827,113.309
	L505.827,113.309z M483.211,113.309h-11.308v-2.827h11.308V113.309L483.211,113.309z M460.596,113.309h-11.308v-2.827h11.308
	V113.309L460.596,113.309z M438.05,108.83c-2.273-2.358-3.528-5.38-3.528-8.509v-2.944h2.825v2.943
	c0.001,2.393,0.976,4.718,2.738,6.547L438.05,108.83L438.05,108.83z M532.976,98.45h-2.824V87.142h2.824V98.45L532.976,98.45z
	 M437.347,86.068h-2.825v-0.479c0.002-4.055,2.049-7.802,5.614-10.281l1.613,2.321c-2.797,1.944-4.401,4.845-4.402,7.96V86.068
	L437.347,86.068z M526.507,78.206c-2.166-1.792-5-2.778-7.979-2.778h-1.708v-2.827h1.708c3.638,0,7.11,1.217,9.783,3.427
	L526.507,78.206L526.507,78.206z M505.509,75.428h-11.308v-2.827h11.308V75.428L505.509,75.428z M482.894,75.428h-11.308v-2.827
	h11.308V75.428L482.894,75.428z M460.277,75.428H448.97v-2.827h11.31L460.277,75.428L460.277,75.428z"/>
<text transform="matrix(1 0 0 1 447.0098 93.8135)" font-family="'ArialMT'" font-size="11.6306">Cross-feeding</text>
<path id="path3925" fill="none" stroke="#888888" stroke-width="3" d="M151.714,142.515h20.856c4.43,0,9.397,4.967,9.397,9.397
	v38.952c0,3.62,4.059,7.678,7.678,7.678h52.672"/>
<g id="arrows">
	<path id="path5815" fill="#888888" stroke="#777777" d="M247.858,186.113l5.676,2.129l-5.593,2.003
		C248.93,188.815,248.984,187.433,247.858,186.113L247.858,186.113z"/>
	<path id="path5815-6" fill="#888888" stroke="#777777" d="M240.078,196.488l5.676,2.129l-5.593,2.003
		C241.149,199.189,241.204,197.808,240.078,196.488L240.078,196.488z"/>
	<path id="path5815-6-4" fill="#888888" stroke="#777777" d="M235.675,208.677l5.677,2.129l-5.593,2.003
		C236.747,211.378,236.801,209.997,235.675,208.677L235.675,208.677z"/>
	<path id="path5815-6-8" fill="#888888" stroke="#777777" d="M235.169,220.778l5.677,2.129l-5.593,2.003
		C236.241,223.479,236.295,222.098,235.169,220.778L235.169,220.778z"/>
	<path id="path5815-6-7" fill="#888888" stroke="#777777" d="M238.926,234.258l5.676,2.128l-5.593,2.004
		C239.998,236.959,240.052,235.578,238.926,234.258L238.926,234.258z"/>
	<path id="path5815-6-7-4" fill="#888888" stroke="#777777" d="M246.469,245.377l5.676,2.129l-5.593,2.003
		C247.54,248.078,247.594,246.697,246.469,245.377L246.469,245.377z"/>
	<path id="path5815-6-7-9" fill="#888888" stroke="#777777" d="M375.48,292.3l-2.132,5.677l-2.003-5.593
		C372.779,293.372,374.161,293.426,375.48,292.3L375.48,292.3z"/>
	<path id="path5815-6-7-3" fill="#888888" stroke="#777777" d="M315.31,355.199l-2.129,5.676l-2.003-5.593
		C312.608,356.271,313.99,356.324,315.31,355.199L315.31,355.199z"/>
	<path id="path5815-6-7-7" fill="#888888" stroke="#777777" d="M459.052,165.69l-2.129,5.676l-2.003-5.593
		C456.351,166.762,457.732,166.816,459.052,165.69L459.052,165.69z"/>
	<path id="path5815-6-7-5" fill="#888888" stroke="#777777" d="M478.911,220.842l-5.677-2.128l5.593-2.004
		C477.839,218.141,477.785,219.522,478.911,220.842L478.911,220.842z"/>
	<path id="path5815-6-7-33" fill="#888888" stroke="#777777" d="M472.281,253.489l-5.676-2.128l5.593-2.003
		C471.21,250.788,471.155,252.17,472.281,253.489L472.281,253.489z"/>
	<path id="path5815-6-7-50" fill="#888888" stroke="#777777" d="M428.533,93.813l5.677,2.128l-5.593,2.003
		C429.605,96.515,429.659,95.133,428.533,93.813L428.533,93.813z"/>
	<path id="path5815-6-7-52" fill="#888888" stroke="#777777" d="M364.355,67.075l2.129-5.676l2.004,5.593
		C367.058,66.003,365.676,65.949,364.355,67.075L364.355,67.075z"/>
</g>
<g transform="translate(880,280)">
	<rect x="-381.096" y="-272.398" fill="#278127" width="11.63" height="11.63"/>
	<text transform="matrix(1 0 0 1 -363.6504 -263.6758)" font-family="'ArialMT'" font-size="6.9783">Significanlty different</text>
</g>
<g>
	<g>
		<rect x="100.468" y="524.456" fill="#0477BE" width="9.37" height="66.044"/>
		<rect x="102.217" y="524.457" fill="#2C8AA5" width="9.256" height="66.044"/>
		<rect x="103.965" y="524.457" fill="#549E8C" width="9.142" height="66.044"/>
		<rect x="105.714" y="524.457" fill="#7CB173" width="9.028" height="66.044"/>
		<rect x="107.462" y="524.457" fill="#A5C45A" width="8.914" height="66.044"/>
		<rect x="109.211" y="524.457" fill="#CDD841" width="8.8" height="66.044"/>
		<rect x="110.959" y="524.457" fill="#F5EB28" width="8.687" height="66.044"/>
	</g>
</g>
<path id="path3899-4-2-7_2_" fill="#FFFFFF" d="M151.382,145.806c0.233,6.194-22.798,11.256-51.445,11.307
	c-28.646,0.051-52.06-4.93-52.294-11.123c-0.002-0.062-0.002-0.123,0-0.184c-0.235-6.194,22.798-11.256,51.444-11.307
	c28.647-0.051,52.06,4.929,52.294,11.123C151.384,145.683,151.384,145.745,151.382,145.806z"/>
<path d="M99.503,158.307c-25.493,0-52.75-4.301-53.052-12.272c-0.003-0.095-0.003-0.181,0-0.267
	c-0.043-1.056,0.433-2.152,1.416-3.173c5.213-5.425,26.275-9.244,51.22-9.289h0.436c25.494,0,52.75,4.301,53.052,12.272
	c0.004,0.081,0.004,0.175,0.002,0.267c0.041,1.056-0.435,2.152-1.416,3.174c-5.215,5.424-26.276,9.244-51.221,9.289L99.503,158.307
	L99.503,158.307z M99.521,135.692h-0.432c-27.147,0.048-45.452,4.341-49.503,8.556c-0.516,0.537-0.768,1.046-0.75,1.513v0.192
	c0.154,4.069,18.286,9.968,50.667,9.968h0.432c27.147-0.048,45.452-4.341,49.504-8.556c0.517-0.537,0.769-1.046,0.751-1.513
	c0-0.004-0.001-0.18-0.001-0.184C150.033,141.59,131.902,135.692,99.521,135.692L99.521,135.692z"/>
<text transform="matrix(1 0 0 1 72.3647 148.9902)" fill="#231F20" font-family="'ArialMT'" font-size="11.6306">Sugar acid</text>
<path id="rect4343-1-8-5_1_" fill="#F5EB28" stroke="#000000" stroke-width="3" stroke-linecap="round" stroke-linejoin="round" d="
	M404.259,45.693h24.438c3.533,0,6.397,2.865,6.397,6.398V62.76c0,3.534-2.864,6.398-6.397,6.398h-24.438
	c-3.534,0-6.398-2.864-6.398-6.398V52.091C397.86,48.558,400.725,45.693,404.259,45.693z"/>
<text transform="matrix(1 0 0 1 424.5732 62.8535)" font-family="'ArialMT'" font-size="7.56">2</text>
<text transform="matrix(1 0 0 1 407.127 60.5273)" font-family="'ArialMT'" font-size="11.6306">CO</text>
</svg>
