<?xml version="1.0" encoding="utf-8"?>
<!-- Generator: Adobe Illustrator 14.0.0, SVG Export Plug-In . SVG Version: 6.00 Build 43363)  -->
<!DOCTYPE svg PUBLIC "-//W3C//DTD SVG 1.1//EN" "http://www.w3.org/Graphics/SVG/1.1/DTD/svg11.dtd">
<svg version="1.1" id="Layer_1" xmlns="http://www.w3.org/2000/svg" xmlns:xlink="http://www.w3.org/1999/xlink" x="0px" y="0px"
	 width="612px" height="792px" viewBox="0 0 612 792" enable-background="new 0 0 612 792" xml:space="preserve">
<pattern  y="792" width="19.178" height="66.045" patternUnits="userSpaceOnUse" id="path3899_1_1" viewBox="0 -66.045 19.178 66.045" overflow="visible">
	<g>
		<polygon fill="none" points="0,0 19.178,0 19.178,-66.045 0,-66.045 		"/>
		<g>
			<polygon fill="none" points="0,-66.045 19.178,-66.045 19.178,0 0,0 			"/>
			<g>
				<polygon fill="none" points="0,0 19.178,0 19.178,-66.045 0,-66.045 				"/>
				<g>
					<polygon fill="#0777BE" points="9.37,-0.001 0,-0.001 0,-66.045 9.37,-66.045 					"/>
					<polygon fill="#2C8AA5" points="11.004,0 1.749,0 1.749,-66.044 11.004,-66.044 					"/>
					<polygon fill="#539E8C" points="12.639,0 3.497,0 3.497,-66.044 12.639,-66.044 					"/>
					<polygon fill="#7BB173" points="14.273,0 5.246,0 5.246,-66.044 14.273,-66.044 					"/>
					<polygon fill="#A5C459" points="15.908,0 6.994,0 6.994,-66.044 15.908,-66.044 					"/>
					<polygon fill="#CDD83F" points="17.543,0 8.743,0 8.743,-66.044 17.543,-66.044 					"/>
					<polygon fill="#F4EB26" points="19.178,0 10.491,0 10.491,-66.044 19.178,-66.044 					"/>
				</g>
			</g>
		</g>
	</g>
</pattern>
<pattern  y="792" width="19.178" height="66.045" patternUnits="userSpaceOnUse" id="path5762_2_" viewBox="0 -66.045 19.178 66.045" overflow="visible">
	<g>
		<polygon fill="none" points="0,0 19.178,0 19.178,-66.045 0,-66.045 		"/>
		<g>
			<polygon fill="none" points="0,-66.045 19.178,-66.045 19.178,0 0,0 			"/>
			<g>
				<polygon fill="none" points="0,0 19.178,0 19.178,-66.045 0,-66.045 				"/>
				<g>
					<polygon fill="#0777BE" points="9.37,-0.001 0,-0.001 0,-66.045 9.37,-66.045 					"/>
					<polygon fill="#2C8AA5" points="11.004,0 1.749,0 1.749,-66.044 11.004,-66.044 					"/>
					<polygon fill="#539E8C" points="12.639,0 3.497,0 3.497,-66.044 12.639,-66.044 					"/>
					<polygon fill="#7BB173" points="14.273,0 5.246,0 5.246,-66.044 14.273,-66.044 					"/>
					<polygon fill="#A5C459" points="15.908,0 6.994,0 6.994,-66.044 15.908,-66.044 					"/>
					<polygon fill="#CDD83F" points="17.543,0 8.743,0 8.743,-66.044 17.543,-66.044 					"/>
					<polygon fill="#F4EB26" points="19.178,0 10.491,0 10.491,-66.044 19.178,-66.044 					"/>
				</g>
			</g>
		</g>
	</g>
</pattern>
<pattern  y="792" width="19.178" height="66.045" patternUnits="userSpaceOnUse" id="rect4343-1-3_2_1" viewBox="0 -66.045 19.178 66.045" overflow="visible">
	<g>
		<polygon fill="none" points="0,0 19.178,0 19.178,-66.045 0,-66.045 		"/>
		<g>
			<polygon fill="none" points="0,-66.045 19.178,-66.045 19.178,0 0,0 			"/>
			<g>
				<polygon fill="none" points="0,0 19.178,0 19.178,-66.045 0,-66.045 				"/>
				<g>
					<polygon fill="#0777BE" points="9.37,-0.001 0,-0.001 0,-66.045 9.37,-66.045 					"/>
					<polygon fill="#2C8AA5" points="11.004,0 1.749,0 1.749,-66.044 11.004,-66.044 					"/>
					<polygon fill="#539E8C" points="12.639,0 3.497,0 3.497,-66.044 12.639,-66.044 					"/>
					<polygon fill="#7BB173" points="14.273,0 5.246,0 5.246,-66.044 14.273,-66.044 					"/>
					<polygon fill="#A5C459" points="15.908,0 6.994,0 6.994,-66.044 15.908,-66.044 					"/>
					<polygon fill="#CDD83F" points="17.543,0 8.743,0 8.743,-66.044 17.543,-66.044 					"/>
					<polygon fill="#F4EB26" points="19.178,0 10.491,0 10.491,-66.044 19.178,-66.044 					"/>
				</g>
			</g>
		</g>
	</g>
</pattern>
<path id="path3775" fill="none" stroke="#010101" stroke-width="5.359" stroke-linecap="round" stroke-linejoin="round" d="
	M576.968,400.447c0,96.842-126.565,175.348-282.698,175.348c-156.128,0-282.698-78.5-282.698-175.348
	c0-96.842,126.57-175.348,282.698-175.348c57.992,0,111.903,10.831,156.769,29.41c75.918,31.439,125.924,85.066,125.924,145.94
	L576.968,400.447z"/>
<path id="rect4343-1-3_1_" fill="none" d="M405.669,226.359h25.616c3.209,0,5.811,2.602,5.811,5.811v11.844
	c0,3.209-2.602,5.811-5.811,5.811h-25.616c-3.209,0-5.811-2.602-5.811-5.811V232.17C399.858,228.961,402.46,226.359,405.669,226.359
	z"/>
<path id="rect4343-1-8" fill="#F4EB26" stroke="#010101" stroke-width="3" stroke-linecap="round" stroke-linejoin="round" d="
	M546.807,328.99h21.934c3.17,0,5.736,2.57,5.736,5.74v9.573c0,3.17-2.566,5.74-5.736,5.74h-21.934c-3.17,0-5.736-2.57-5.736-5.74
	v-9.573C541.066,331.561,543.637,328.99,546.807,328.99z"/>
<text transform="matrix(1 0 0 1 545.7324 345.4121)" fill="#010101" font-family="'ArialMT'" font-size="17">H</text>
<text transform="matrix(1 0 0 1 557.7734 346.9453)" fill="#010101" font-family="'ArialMT'" font-size="12">2</text>
<path id="rect4343-1-9" fill="#FFFFFF" stroke="#010101" stroke-width="3" stroke-linecap="round" stroke-linejoin="round" d="
	M560.136,361.272h24.442c3.533,0,6.396,2.865,6.396,6.398v10.669c0,3.533-2.86,6.398-6.396,6.398h-24.442
	c-3.533,0-6.396-2.865-6.396-6.398V367.67C553.738,364.137,556.604,361.272,560.136,361.272z"/>
<text transform="matrix(1 0 0 1 557.7734 378.542)" fill="#010101" font-family="'ArialMT'" font-size="17">CH</text>
<text transform="matrix(1 0 0 1 582.3271 380.2891)" fill="#010101" font-family="'ArialMT'" font-size="12">4</text>
<path id="rect3057" fill="#FFFFFF" stroke="#010101" stroke-width="3" stroke-linejoin="round" d="M252.547,540.965h104.074
	c4.216,0,7.632,4.193,7.632,9.365v11.065c0,5.172-3.416,9.364-7.632,9.364H252.547c-4.214,0-7.632-4.192-7.632-9.364V550.33
	C244.916,545.158,248.333,540.965,252.547,540.965z"/>
<text transform="matrix(0.9436 0 0 1 252.085 559.8428)" fill="#010101" font-family="'ArialMT'" font-size="17">Energy storage</text>
<path id="rect3059" fill="#0777BE" stroke="#010101" stroke-width="3" stroke-linejoin="round" d="M400.225,421.755h61.18
	c3.135,0,5.677,2.367,5.677,5.287v8.812c0,2.92-2.542,5.287-5.677,5.287h-61.18c-3.137,0-5.674-2.367-5.674-5.287v-8.812
	C394.547,424.123,397.088,421.755,400.225,421.755z"/>
<text transform="matrix(1.0117 0 0 1 399.8584 436.8633)" fill="#010101" font-family="'ArialMT'" font-size="17">Butyrate</text>
<g id="_x31_8" transform="translate(131.00183,-31.65217)">
	<title  id="title4123">Acetate production</title>
	<path id="rect3063" fill="none" stroke="#010101" stroke-width="3" stroke-linejoin="round" d="M277.958,417.202h56.584
		c4.415,0,7.992,3.692,7.992,8.246v6.186c0,4.556-3.575,8.247-7.992,8.247h-56.584c-4.412,0-7.988-3.691-7.988-8.247v-6.186
		C269.97,420.894,273.546,417.202,277.958,417.202z"/>
	<text transform="matrix(0.9686 0 0 1 277.1193 433.826)" fill="#010101" font-family="'ArialMT'" font-size="17">Acetate</text>
</g>
<path id="rect3061" fill="#F4EB26" stroke="#010101" stroke-width="3" stroke-linejoin="round" d="M417.156,352.961h68.246
	c5.712,0,10.346,4.001,10.346,8.938v5.365c0,4.938-4.634,8.94-10.346,8.94h-68.246c-5.712,0-10.346-4.003-10.346-8.94V361.9
	C406.815,356.963,411.444,352.961,417.156,352.961z"/>
<text transform="matrix(1 0 0 1 410.4775 370.2451)" fill="#010101" font-family="'ArialMT'" font-size="17">Propionate</text>
<path id="path3947" fill="none" stroke="#888888" stroke-width="3" d="M512.093,292.824v123.883c0,6.926-7.767,14.691-14.688,14.691
	H473.16"/>
<path id="path3949" fill="none" stroke="#888888" stroke-width="3" d="M500.084,292.155v95.83c0,5.037-5.648,10.685-10.685,10.685
	h-10.704"/>
<path id="path3951" fill="none" stroke="#888888" stroke-width="3" d="M459.034,291.817v55.129"/>
<path id="path3899" fill="url(#rect4343-1-3_2_1)" stroke="#010101" stroke-width="3" stroke-linejoin="round" d="M364.99,296.879
	c0.379,10.829-31.827,19.691-71.937,19.793c-40.107,0.103-72.928-8.595-73.307-19.424c-0.004-0.124-0.004-0.245,0-0.369
	c-0.378-10.83,31.828-19.692,71.936-19.794c40.106-0.103,72.929,8.594,73.308,19.424
	C364.994,296.631,364.994,296.754,364.99,296.879z"/>
<text transform="matrix(1 0 0 1 227.6938 301.627)" fill="#010101" font-family="'ArialMT'" font-size="17">Monosaccharides</text>
<path id="path3899-4_1_" fill="#0877BE" d="M208.377,286.162c0.261,10.328-25.329,18.773-57.153,18.858
	c-31.826,0.086-57.837-8.22-58.097-18.551c-0.002-0.105-0.002-0.205,0-0.307c-0.26-10.331,25.328-18.773,57.154-18.858
	s57.837,8.22,58.097,18.551C208.38,285.958,208.38,286.059,208.377,286.162z"/>
<path id="path3945" fill="#F4EB26" stroke="#010101" stroke-width="3" stroke-linejoin="round" d="M321.092,253.825
	c0,8.841-32.782,16.007-73.22,16.007c-40.439,0-73.219-7.166-73.219-16.007c0-8.84,32.78-16.006,73.219-16.006
	C288.31,237.819,321.092,244.985,321.092,253.825z"/>
<text transform="matrix(1 0 0 1 188.189 260.9414)" fill="#010101" font-family="'ArialMT'" font-size="17">Polysaccharides</text>
<path id="path3899-4-2_1_" fill="none" d="M153.884,323.163c0.234,6.194-22.798,11.256-51.445,11.307
	c-28.646,0.05-52.06-4.93-52.294-11.124c-0.002-0.061-0.002-0.123,0-0.184c-0.235-6.194,22.798-11.256,51.444-11.307
	s52.06,4.929,52.294,11.123C153.886,323.04,153.886,323.102,153.884,323.163z"/>
<path id="path5764_1_" fill="none" d="M205.641,514.275c0,10.563-20.614,19.125-46.042,19.125c-25.428,0-46.042-8.563-46.042-19.125
	s20.613-19.125,46.042-19.125C185.026,495.15,205.641,503.713,205.641,514.275z"/>
<path id="path5760" fill="#0777BE" stroke="#010101" stroke-width="3" d="M175.258,463.326c0,11.959-26.885,21.652-60.049,21.652
	c-33.163,0-60.048-9.695-60.048-21.652c0-11.959,26.884-21.652,60.048-21.652C148.374,441.674,175.258,451.369,175.258,463.326
	L175.258,463.326z"/>
<text transform="matrix(1.1314 0 0 1 80.0171 459.9922)" fill="#010101" font-family="'ArialMT'" font-size="17">Lipolytic</text>
<text transform="matrix(1 0 0 1 63.8647 474.0547)" fill="#010101" font-family="'ArialMT'" font-size="17">Fermentation</text>
<path id="path5762_1_" fill="url(#path3899_1_1)" d="M140.804,416.443c0,12.545-27.215,22.715-60.787,22.715
	s-60.787-10.17-60.787-22.715c0-12.546,27.216-22.716,60.787-22.716C113.588,393.727,140.804,403.897,140.804,416.443
	L140.804,416.443z"/>
<path fill="#010101" d="M80.017,440.159c-34.604,0-61.711-10.47-61.711-23.835s27.107-23.835,61.711-23.835
	c34.604,0,61.711,10.472,61.711,23.835C141.728,429.689,114.622,440.159,80.017,440.159L80.017,440.159z M80.017,395.705
	c-31.681,0-58.446,9.443-58.446,20.62c0,11.178,26.766,20.619,58.446,20.619c31.681,0,58.446-9.441,58.446-20.619
	C138.463,405.147,111.699,395.705,80.017,395.705L80.017,395.705z"/>
<text transform="matrix(1 0 0 1 40.1035 414.2578)" fill="#010101" font-family="'ArialMT'" font-size="17">Proteolytic</text>
<text transform="matrix(1 0 0 1 32.9834 427.5254)" fill="#010101" font-family="'ArialMT'" font-size="17">Fermentation</text>
<g id="_x32_2" transform="translate(40.144935,72.348487)">
	<title  id="title4115">Nitrate metabolism</title>
	<path id="path4250-6" fill="#0777BE" stroke="#010101" stroke-width="3" d="M445.999,417.616l-3.63,3.67l5.051,0.115l-4.136,3.031
		l4.973,0.939l-4.536,2.318l4.77,1.74l-4.83,1.55l4.45,2.497l-5.001,0.741l4.02,3.194l-5.051-0.085l3.492,3.812l-4.976-0.909
		l2.879,4.335l-4.782-1.711l2.194,4.752l-4.463-2.471l1.45,5.053l-4.037-3.171l0.68,5.228l-3.513-3.791l-0.111,5.276l-2.902-4.319
		l-0.903,5.193l-2.221-4.738l-1.666,4.98l-1.482-5.045l-2.392,4.648l-0.71-5.225l-3.063,4.201l0.081-5.276l-3.649,3.648l0.867-5.197
		l-4.146,3.007l1.639-4.99l-4.551,2.291l2.371-4.662l-4.837,1.521l3.035-4.219l-5.005,0.711l3.629-3.669l-5.051-0.116l4.135-3.031
		l-4.971-0.939l4.535-2.318l-4.77-1.74l4.831-1.549l-4.45-2.498l5.001-0.741l-4.021-3.194l5.052,0.086l-3.492-3.813l4.975,0.91
		l-2.879-4.336l4.782,1.712l-2.194-4.752l4.463,2.472l-1.454-5.053l4.043,3.171l-0.682-5.229l3.515,3.792l0.11-5.276l2.901,4.317
		l0.9-5.191l2.225,4.738l1.666-4.98l1.482,5.045l2.392-4.648l0.71,5.225l3.063-4.199l-0.082,5.275l3.649-3.648l-0.866,5.198
		l4.146-3.007l-1.639,4.991l4.55-2.292l-2.371,4.661l4.838-1.519l-3.035,4.217L445.999,417.616z"/>
	<text transform="matrix(0.9574 0 0 1 408.235 435.2521)" fill="#010101" font-family="'ArialMT'" font-size="16">RNS</text>
</g>
<path id="rect4290" fill="#FFFFFF" stroke="#010101" stroke-width="3" d="M493.783,298.266h93.253c4.532,0,8.207,3.632,8.207,8.113
	v8.325c0,4.481-3.675,8.114-8.207,8.114h-93.253c-4.532,0-8.207-3.632-8.207-8.114v-8.325
	C485.576,301.897,489.251,298.266,493.783,298.266z"/>
<text transform="matrix(1 0 0 1 488.6348 316.4824)" fill="#010101" font-family="'ArialMT'" font-size="17">Acetogenesis</text>
<path id="rect5754" fill="#F4EB26" stroke="#010101" stroke-width="3" d="M345.948,477.787h56.965c2.822,0,5.11,2.811,5.11,6.277
	v10.326c0,3.467-2.288,6.277-5.11,6.277h-56.965c-2.822,0-5.11-2.811-5.11-6.277v-10.326
	C340.837,480.598,343.125,477.787,345.948,477.787z"/>
<text transform="matrix(1.0569 0 0 1 343.1836 493.8701)" fill="#010101" font-family="'ArialMT'" font-size="17">Ethanol</text>
<path id="path3917_1_" fill="url(#rect4343-1-3_2_1)" d="M345.353,398.639c0,24.788-22.591,44.885-50.458,44.885
	c-27.868,0-50.459-20.096-50.459-44.885c0-24.79,22.592-44.886,50.459-44.886C322.763,353.752,345.353,373.848,345.353,398.639z"/>
<path fill="#010101" d="M294.895,445.023c-28.65,0-51.959-20.809-51.959-46.385c0-25.578,23.309-46.386,51.959-46.386
	c13.846,0,26.871,4.803,36.676,13.525c9.854,8.766,15.278,20.436,15.278,32.861C346.853,424.215,323.545,445.023,294.895,445.023
	L294.895,445.023z M294.895,355.253c-26.996,0-48.959,19.462-48.959,43.386c0,23.922,21.963,43.385,48.959,43.385
	c26.996,0,48.958-19.463,48.958-43.385c0-11.557-5.066-22.43-14.272-30.62C320.322,359.787,308.005,355.252,294.895,355.253
	L294.895,355.253z"/>
<text transform="matrix(1 0 0 1 263.0576 390.7432)" fill="#010101" font-family="'Arial-BoldMT'" font-size="17">Central</text>
<text transform="matrix(1 0 0 1 249.667 408.3105)" fill="#010101" font-family="'Arial-BoldMT'" font-size="17">Metabolism</text>
<g>
	<path id="path3899-4-2-7_1_" fill="#FFFFFF" d="M165.188,360.02c0.298,8.064-29.006,14.655-65.456,14.722
		c-36.448,0.065-66.239-6.419-66.537-14.482c-0.002-0.081-0.002-0.16,0-0.24c-0.299-8.065,29.007-14.655,65.455-14.721
		c36.45-0.066,66.24,6.417,66.537,14.481C165.19,359.86,165.19,359.94,165.188,360.02z"/>
	<path fill="#231F20" d="M99.179,376.296c-32.437,0-67.117-5.6-67.502-15.978c-0.003-0.125-0.003-0.236,0-0.348
		c-0.054-1.375,0.552-2.802,1.803-4.131c6.633-7.063,33.431-12.036,65.169-12.094h0.555c32.438,0,67.117,5.6,67.501,15.979
		c0.005,0.104,0.005,0.227,0.001,0.347c0.054,1.375-0.552,2.802-1.802,4.132c-6.634,7.062-33.433,12.036-65.17,12.094
		L99.179,376.296L99.179,376.296z M99.202,346.851h-0.549c-34.541,0.063-57.832,5.652-62.985,11.139
		c-0.657,0.7-0.978,1.362-0.955,1.971v0.251c0.196,5.297,23.268,12.977,64.467,12.977h0.55c34.541-0.062,57.831-5.651,62.987-11.14
		c0.656-0.699,0.979-1.362,0.956-1.97c0-0.005-0.002-0.233-0.002-0.239C163.472,354.531,140.403,346.851,99.202,346.851
		L99.202,346.851z"/>
</g>
<text transform="matrix(1 0 0 1 45.2236 366.1133)" fill="#010101" font-family="'ArialMT'" font-size="17">Sugar alcohol</text>
<path id="rect4343-1-8-5" fill="url(#rect4343-1-3_2_1)" stroke="#010101" stroke-width="3" stroke-linecap="round" stroke-linejoin="round" d="
	M356.442,216.228h24.438c3.533,0,6.397,2.865,6.397,6.398v10.669c0,3.534-2.864,6.398-6.397,6.398h-24.438
	c-3.534,0-6.398-2.864-6.398-6.398v-10.669C350.044,219.093,352.908,216.228,356.442,216.228z"/>
<text transform="matrix(1 0 0 1 354.1289 232.5557)" fill="#010101" font-family="'ArialMT'" font-size="15">NH</text>
<text transform="matrix(1 0 0 1 377.4805 234.834)" fill="#010101" font-family="'ArialMT'" font-size="12">3</text>
<path id="path3329" fill="none" stroke="#898990" stroke-width="3" stroke-opacity="0.9412" d="M205.72,514.268h14.45
	c5.807,0,12.319-6.512,12.319-12.318V437.76c0-4.824,5.41-10.234,10.235-10.234h6.943"/>
<path id="path3329-2" fill="none" stroke="#898990" stroke-width="3" stroke-opacity="0.9412" d="M175.258,463.326h12.884
	c5.179,0,10.983-5.972,10.983-11.296v-26.243c0-4.424,4.824-9.385,9.125-9.385h34.201"/>
<path id="path4815" fill="none" stroke="#888888" stroke-width="3" d="M139.298,418.624h34.131c2.468,0,6.411-2.926,6.411-5.635
	v-3.511c0-3.346,4.87-6.59,7.917-6.59h51.034"/>
<path id="path5021" fill="none" stroke="#888888" stroke-width="3" d="M78.436,374.742v11.104c0,2.338,3.873,4.96,7.327,4.96H239.6"
	/>
<g>
	<path id="rect4288_1_" fill="#FFFFFF" d="M522.587,399.004h70.236c4.696,0,8.503,2.863,8.503,6.397v23.565
		c0,3.533-3.807,6.397-8.503,6.397h-70.236c-4.694,0-8.5-2.864-8.5-6.397v-23.565C514.084,401.866,517.891,399.004,522.587,399.004z
		"/>
	<path fill="#231F20" d="M592.823,436.863h-70.236c-5.786,0-10.494-3.543-10.494-7.898V405.4c-0.001-2.109,1.087-4.094,3.073-5.585
		c1.982-1.492,4.619-2.313,7.423-2.313h70.235c5.788,0,10.497,3.543,10.497,7.898v23.564
		C603.32,433.32,598.611,436.863,592.823,436.863L592.823,436.863z M522.587,400.504c-1.739,0-3.373,0.508-4.603,1.434
		c-1.229,0.925-1.905,2.154-1.905,3.463v23.564c0,2.701,2.915,4.898,6.507,4.898h70.235c3.59,0,6.51-2.197,6.51-4.898V405.4
		c0-2.701-2.92-4.898-6.51-4.898L522.587,400.504L522.587,400.504z"/>
</g>
<text transform="matrix(1 0 0 1 533.5625 415.7861)" fill="#010101" font-family="'ArialMT'" font-size="17">Sulfate</text>
<text transform="matrix(1 0 0 1 525.1504 431.0928)" fill="#010101" font-family="'ArialMT'" font-size="17">reduction</text>
<path id="path3927" fill="none" stroke="#888888" stroke-width="3" d="M207.576,269.658v89.83c0,4.12,4.785,8.74,9.053,8.74h35.456"
	/>
<path id="path3929" fill="none" stroke="#888888" stroke-width="3" d="M155.563,299.299v6.647c0,2.307,2.682,4.893,5.076,4.893
	h40.12c2.505,0,5.315,2.709,5.315,5.125v8.447"/>
<path id="path3931" fill="none" stroke="#888888" stroke-width="3" d="M217.265,297.178h-5.107c-2.16,0-4.582,3.695-4.582,6.991
	v10.084"/>
<path id="path3933" fill="none" stroke="#888888" stroke-width="3" d="M339.832,376.959h18.547c4.736,0,10.048-5.311,10.048-10.048
	V245.616"/>
<path id="path3935" fill="none" stroke="#888888" stroke-width="3" d="M345.322,389.658h22.828c4.534,0,9.619-6.572,9.619-12.434
	v-91.17c0-4.994,4.329-10.591,8.195-10.591h28.477"/>
<path id="path3946" fill="none" stroke="#888888" stroke-width="3" d="M341.426,415.786l7.563,7.563
	c2.345,2.344,2.575,6.293,2.575,9.61v26.371c0,3.254-3.648,6.903-6.902,6.903h-21.571c-3.667,0-7.778,4.111-7.778,7.779v62.525"/>
<path id="path3948" fill="none" stroke="#888888" stroke-width="3" d="M345.322,404.784h21.051c4.268,0,9.053,4.786,9.053,9.053
	v60.218"/>
<path id="_x32_0_1_" fill="#F4EB26" d="M437.426,254.014h80.965c8.378,0,15.172,5.182,15.172,11.575v14.731
	c0,6.393-6.794,11.575-15.172,11.575h-80.965c-8.381,0-15.174-5.183-15.174-11.575v-14.731
	C422.254,259.196,429.047,254.014,437.426,254.014z">
<title  id="title5351">cross-feeding intermediate metabolism</title>
</path>
<path fill="#010101" d="M517.792,293.309h-1.62v-2.827h1.62c3.597,0,6.981-1.051,9.53-2.961l2.158,2.133
	C526.333,292.01,522.182,293.309,517.792,293.309L517.792,293.309z M503.024,293.309h-13.15v-2.827h13.153L503.024,293.309
	L503.024,293.309z M476.722,293.309h-13.15v-2.827h13.15V293.309L476.722,293.309z M450.42,293.309h-13.149v-2.827h13.149V293.309
	L450.42,293.309z M424.2,288.83c-2.643-2.358-4.104-5.38-4.104-8.509v-2.944h3.286v2.943c0.001,2.393,1.135,4.718,3.185,6.547
	L424.2,288.83L424.2,288.83z M534.598,278.45h-3.283v-11.308h3.283V278.45L534.598,278.45z M423.383,266.068h-3.286v-0.479
	c0.003-4.055,2.385-7.802,6.529-10.281l1.876,2.321c-3.252,1.944-5.118,4.845-5.119,7.96V266.068L423.383,266.068z M527.074,258.206
	c-2.519-1.792-5.814-2.778-9.279-2.778h-1.985v-2.827h1.985c4.231,0,8.269,1.217,11.378,3.427L527.074,258.206L527.074,258.206z
	 M502.654,255.428h-13.15v-2.827h13.15V255.428L502.654,255.428z M476.353,255.428h-13.15v-2.827h13.15V255.428L476.353,255.428z
	 M450.051,255.428H436.9v-2.827h13.153L450.051,255.428L450.051,255.428z"/>
<text transform="matrix(1 0 0 1 422.252 278.0859)" fill="#010101" font-family="'ArialMT'" font-size="17">Cross-feeding</text>
<path id="path3925" fill="none" stroke="#888888" stroke-width="3" d="M153.714,322.515h20.856c4.43,0,9.397,4.967,9.397,9.397
	v38.952c0,3.62,4.059,7.678,7.678,7.678h52.672"/>
<path id="path5815" fill="#888888" stroke="#787878" d="M250.375,365.782l5.676,2.129l-5.593,2.003
	C251.447,368.484,251.5,367.102,250.375,365.782L250.375,365.782z"/>
<path id="path5815-6" fill="#888888" stroke="#787878" d="M242.595,376.157l5.676,2.129l-5.593,2.003
	C243.666,378.858,243.721,377.477,242.595,376.157L242.595,376.157z"/>
<path id="path5815-6-4" fill="#888888" stroke="#787878" d="M238.191,388.346l5.677,2.129l-5.593,2.003
	C239.264,391.047,239.317,389.666,238.191,388.346L238.191,388.346z"/>
<path id="path5815-6-8" fill="#888888" stroke="#787878" d="M237.686,400.447l5.677,2.129l-5.593,2.003
	C238.758,403.148,238.812,401.768,237.686,400.447L237.686,400.447z"/>
<path id="path5815-6-7" fill="#888888" stroke="#787878" d="M241.442,413.927l5.676,2.128l-5.593,2.004
	C242.515,416.628,242.568,415.247,241.442,413.927L241.442,413.927z"/>
<path id="path5815-6-7-4" fill="#888888" stroke="#787878" d="M248.985,425.046l5.676,2.129l-5.593,2.003
	C250.057,427.747,250.11,426.366,248.985,425.046L248.985,425.046z"/>
<path id="path5815-6-7-9" fill="#888888" stroke="#787878" d="M377.997,471.969l-2.133,5.678l-2.003-5.594
	C375.296,473.041,376.678,473.095,377.997,471.969L377.997,471.969z"/>
<path id="path5815-6-7-3" fill="#888888" stroke="#787878" d="M317.826,534.868l-2.129,5.676l-2.003-5.593
	C315.125,535.939,316.507,535.993,317.826,534.868L317.826,534.868z"/>
<path id="path5815-6-7-7" fill="#888888" stroke="#787878" d="M461.568,345.359l-2.129,5.676l-2.003-5.593
	C458.867,346.431,460.249,346.485,461.568,345.359L461.568,345.359z"/>
<path id="path5815-6-7-5" fill="#888888" stroke="#787878" d="M481.428,400.511l-5.677-2.128l5.593-2.004
	C480.355,397.811,480.302,399.191,481.428,400.511L481.428,400.511z"/>
<path id="path5815-6-7-33" fill="#888888" stroke="#787878" d="M474.798,433.158l-5.676-2.129l5.593-2.002
	C473.727,430.457,473.672,431.839,474.798,433.158L474.798,433.158z"/>
<path id="path5815-6-7-50" fill="#888888" stroke="#787878" d="M412.801,273.397l5.677,2.128l-5.593,2.003
	C413.873,276.1,413.927,274.717,412.801,273.397L412.801,273.397z"/>
<path id="path5815-6-7-52" fill="#888888" stroke="#787878" d="M366.872,246.744l2.129-5.676l2.004,5.593
	C369.574,245.672,368.192,245.618,366.872,246.744L366.872,246.744z"/>
<path id="path3899-4-2-7_2_" fill="#F4EB26" d="M160.692,327.621c0.25,8.011-24.404,14.558-55.07,14.624
	c-30.665,0.066-55.729-6.376-55.979-14.385c-0.002-0.081-0.002-0.159,0-0.239c-0.251-8.011,24.404-14.558,55.069-14.624
	c30.666-0.065,55.729,6.375,55.979,14.386C160.694,327.462,160.694,327.542,160.692,327.621z"/>
<path fill="#010101" d="M104.972,342.552c-27.16,0-56.2-5.507-56.521-15.713c-0.003-0.122-0.003-0.232,0-0.342
	c-0.045-1.352,0.461-2.755,1.509-4.063c5.554-6.946,27.993-11.836,54.569-11.893h0.465c27.161,0,56.199,5.506,56.521,15.712
	c0.004,0.104,0.004,0.224,0.002,0.342c0.043,1.352-0.463,2.756-1.509,4.064c-5.557,6.945-27.995,11.836-54.57,11.894
	L104.972,342.552L104.972,342.552z M104.992,313.596h-0.461c-28.922,0.062-48.423,5.559-52.74,10.956
	c-0.549,0.688-0.818,1.339-0.799,1.937v0.247c0.165,5.209,19.482,12.762,53.98,12.762h0.46c28.923-0.062,48.425-5.558,52.742-10.954
	c0.55-0.688,0.819-1.34,0.8-1.938c0-0.005-0.001-0.23-0.001-0.235C158.807,321.147,139.49,313.596,104.992,313.596L104.992,313.596z
	"/>
<text transform="matrix(1 0 0 1 63.8647 331.0723)" fill="#231F20" font-family="'ArialMT'" font-size="17">Sugar acid</text>
<path id="rect4343-1-8-5_1_" fill="url(#path5762_2_)" stroke="#010101" stroke-width="3" stroke-linecap="round" stroke-linejoin="round" d="
	M406.27,226.086h24.48c3.539,0,6.407,2.817,6.407,6.291v10.49c0,3.475-2.868,6.291-6.407,6.291h-24.48
	c-3.54,0-6.408-2.816-6.408-6.291v-10.49C399.86,228.904,402.729,226.086,406.27,226.086z"/>
<text transform="matrix(1 0 0 1 426.5732 242.8535)" fill="#010101" font-family="'ArialMT'" font-size="12">2</text>
<text transform="matrix(1 0 0 1 403.1992 241.3984)" fill="#010101" font-family="'ArialMT'" font-size="15">CO</text>
<g id="_x32_2_1_" transform="translate(40.144935,72.348487)">
	<title  id="title4115">Nitrate metabolism</title>
	<path id="path4250-6_1_" fill="none" stroke="#010101" stroke-width="3" d="M491.962,391.136l-3.63,3.67l5.051,0.115l-4.136,3.031
		l4.973,0.939l-4.536,2.318l4.77,1.74l-4.83,1.55l4.45,2.497l-5.001,0.741l4.02,3.194l-5.051-0.085l3.492,3.812l-4.976-0.909
		l2.879,4.335l-4.782-1.711l2.194,4.752l-4.463-2.471l1.45,5.053l-4.037-3.171l0.68,5.228l-3.513-3.791l-0.111,5.276l-2.902-4.319
		l-0.903,5.193l-2.221-4.738l-1.666,4.98l-1.482-5.045l-2.392,4.648l-0.71-5.225l-3.063,4.201l0.081-5.276l-3.649,3.648l0.867-5.197
		l-4.146,3.007l1.639-4.99l-4.551,2.291l2.371-4.662l-4.837,1.521l3.035-4.219l-5.005,0.711l3.629-3.669l-5.051-0.116l4.135-3.031
		l-4.971-0.939l4.535-2.318l-4.77-1.74l4.831-1.549l-4.45-2.498l5.001-0.741l-4.021-3.194l5.052,0.086l-3.492-3.813l4.975,0.91
		l-2.879-4.336l4.782,1.712l-2.194-4.752l4.463,2.472l-1.454-5.053l4.043,3.171l-0.682-5.229l3.515,3.792l0.11-5.276l2.901,4.317
		l0.9-5.191l2.225,4.738l1.666-4.98l1.482,5.045l2.392-4.648l0.71,5.225l3.063-4.199l-0.082,5.275l3.649-3.648l-0.866,5.198
		l4.146-3.007l-1.639,4.991l4.55-2.292l-2.371,4.661l4.838-1.519l-3.035,4.217L491.962,391.136z"/>
	<text transform="matrix(0.9574 0 0 1 454.1978 408.7716)" fill="#010101" font-family="'ArialMT'" font-size="16">ROS</text>
</g>
<path id="path3945_1_" fill="#F4EB26" stroke="#010101" stroke-width="3" stroke-linejoin="round" d="M214.996,286.161
	c0,11.058-27.113,20.021-60.559,20.021c-33.447,0-60.559-8.962-60.559-20.021c0-11.056,27.112-20.019,60.559-20.019
	C187.883,266.143,214.996,275.105,214.996,286.161z"/>
<text transform="matrix(1 0 0 1 105.5142 291.8164)" fill="#010101" font-family="'ArialMT'" font-size="16">Disaccharides</text>
<g>
	<path id="path5760_1_" fill="#FFFFFF" stroke="#010101" stroke-width="3" d="M219.066,514.275
		c0,11.959-26.885,21.652-60.049,21.652c-33.163,0-60.048-9.695-60.048-21.652c0-11.959,26.884-21.652,60.048-21.652
		C192.183,492.623,219.066,502.318,219.066,514.275L219.066,514.275z"/>
	<text transform="matrix(1 0 0 1 132.187 511.3057)" fill="#010101" font-family="'ArialMT'" font-size="17">Mucus</text>
	<text transform="matrix(1 0 0 1 111.584 525.7207)" fill="#010101" font-family="'ArialMT'" font-size="17">Degradation</text>
</g>
</svg>
